KarnataGTN-Regular.ufo
<glyph name="exclam" format="2">
  <advance width="122"/>
  <unicode hex="0021"/>
  <outline>
    <contour>
      <point x="31" y="710" type="curve"/>
      <point x="4" y="613"/>
      <point x="4" y="245"/>
      <point x="31" y="134" type="curve" smooth="yes"/>
      <point x="34" y="121"/>
      <point x="47" y="112"/>
      <point x="61" y="116" type="curve"/>
      <point x="74" y="119"/>
      <point x="83" y="132"/>
      <point x="79" y="146" type="curve"/>
      <point x="54" y="249"/>
      <point x="54" y="609"/>
      <point x="79" y="696" type="curve" smooth="yes"/>
      <point x="83" y="710"/>
      <point x="75" y="723"/>
      <point x="62" y="727" type="curve" smooth="yes"/>
      <point x="48" y="731"/>
      <point x="35" y="723"/>
    </contour>
    <contour>
      <point x="38" y="23" type="curve" smooth="yes"/>
      <point x="38" y="-2"/>
      <point x="58" y="-10"/>
      <point x="79" y="-10" type="curve" smooth="yes"/>
      <point x="98" y="-10"/>
      <point x="112" y="7"/>
      <point x="112" y="23" type="curve" smooth="yes"/>
      <point x="112" y="43"/>
      <point x="101" y="64"/>
      <point x="79" y="64" type="curve" smooth="yes"/>
      <point x="54" y="64"/>
      <point x="38" y="50"/>
    </contour>
  </outline>
</glyph>
<glyph name="comma" format="2">
  <advance width="155"/>
  <unicode hex="002C"/>
  <outline>
    <contour>
      <point x="71" y="29" type="curve"/>
      <point x="92" y="35"/>
      <point x="118" y="-54"/>
      <point x="26" y="-98" type="curve"/>
      <point x="12" y="-104"/>
      <point x="7" y="-120"/>
      <point x="13" y="-133" type="curve"/>
      <point x="19" y="-147"/>
      <point x="35" y="-152"/>
      <point x="48" y="-146" type="curve" smooth="yes"/>
      <point x="199" y="-74"/>
      <point x="149" y="106"/>
      <point x="57" y="81" type="curve" smooth="yes"/>
      <point x="43" y="77"/>
      <point x="35" y="62"/>
      <point x="38" y="48" type="curve"/>
      <point x="42" y="34"/>
      <point x="57" y="26"/>
    </contour>
  </outline>
</glyph>
<glyph name="period" format="2">
  <advance width="119"/>
  <unicode hex="002E"/>
  <outline>
    <contour>
      <point x="10" y="30" type="curve" smooth="yes"/>
      <point x="10" y="64"/>
      <point x="31" y="85"/>
      <point x="65" y="85" type="curve" smooth="yes"/>
      <point x="94" y="85"/>
      <point x="109" y="55"/>
      <point x="109" y="30" type="curve" smooth="yes"/>
      <point x="109" y="6"/>
      <point x="89" y="-14"/>
      <point x="65" y="-14" type="curve" smooth="yes"/>
      <point x="37" y="-14"/>
      <point x="10" y="-3"/>
    </contour>
  </outline>
</glyph>
<glyph name="zero" format="2">
  <advance width="581"/>
  <unicode hex="0030"/>
  <outline>
    <contour>
      <point x="201" y="651" type="curve" smooth="yes"/>
      <point x="146" y="615"/>
      <point x="76" y="516"/>
      <point x="57" y="401" type="curve" smooth="yes"/>
      <point x="37" y="274"/>
      <point x="55" y="-12"/>
      <point x="294" y="1" type="curve" smooth="yes"/>
      <point x="521" y="12"/>
      <point x="572" y="473"/>
      <point x="501" y="590" type="curve" smooth="yes"/>
      <point x="464" y="652"/>
      <point x="392" y="712"/>
      <point x="285" y="675" type="curve"/>
      <point x="272" y="670"/>
      <point x="265" y="656"/>
      <point x="269" y="643" type="curve"/>
      <point x="274" y="630"/>
      <point x="288" y="623"/>
      <point x="301" y="627" type="curve"/>
      <point x="378" y="654"/>
      <point x="430" y="614"/>
      <point x="459" y="564" type="curve" smooth="yes"/>
      <point x="515" y="470"/>
      <point x="468" y="60"/>
      <point x="292" y="51" type="curve" smooth="yes"/>
      <point x="86" y="40"/>
      <point x="95" y="319"/>
      <point x="107" y="393" type="curve" smooth="yes"/>
      <point x="124" y="496"/>
      <point x="186" y="581"/>
      <point x="229" y="609" type="curve"/>
      <point x="240" y="617"/>
      <point x="244" y="632"/>
      <point x="236" y="644" type="curve"/>
      <point x="228" y="655"/>
      <point x="213" y="659"/>
    </contour>
  </outline>
</glyph>
<glyph name="one" format="2">
  <advance width="189"/>
  <unicode hex="0031"/>
  <outline>
    <contour>
      <point x="51" y="662" type="curve" smooth="yes"/>
      <point x="88" y="24" type="line" smooth="yes"/>
      <point x="89" y="10"/>
      <point x="101" y="-1"/>
      <point x="114" y="0" type="curve" smooth="yes"/>
      <point x="128" y="1"/>
      <point x="139" y="13"/>
      <point x="138" y="26" type="curve" smooth="yes"/>
      <point x="101" y="664" type="line" smooth="yes"/>
      <point x="100" y="678"/>
      <point x="88" y="689"/>
      <point x="75" y="688" type="curve" smooth="yes"/>
      <point x="61" y="687"/>
      <point x="50" y="675"/>
    </contour>
  </outline>
</glyph>
<glyph name="two" format="2">
  <advance width="847"/>
  <unicode hex="0032"/>
  <outline>
    <contour>
      <point x="100" y="511" type="curve"/>
      <point x="111" y="551"/>
      <point x="170" y="638"/>
      <point x="308" y="638" type="curve" smooth="yes"/>
      <point x="479" y="638"/>
      <point x="501" y="523"/>
      <point x="501" y="490" type="curve" smooth="yes"/>
      <point x="501" y="371"/>
      <point x="363" y="159"/>
      <point x="179" y="46" type="curve" smooth="yes"/>
      <point x="157" y="33"/>
      <point x="167" y="0"/>
      <point x="192" y="0" type="curve" smooth="yes"/>
      <point x="772" y="0" type="line" smooth="yes"/>
      <point x="786" y="0"/>
      <point x="797" y="11"/>
      <point x="797" y="25" type="curve" smooth="yes"/>
      <point x="797" y="39"/>
      <point x="786" y="50"/>
      <point x="772" y="50" type="curve" smooth="yes"/>
      <point x="272" y="50" type="line"/>
      <point x="422" y="164"/>
      <point x="551" y="358"/>
      <point x="551" y="490" type="curve" smooth="yes"/>
      <point x="551" y="549"/>
      <point x="509" y="688"/>
      <point x="308" y="688" type="curve" smooth="yes"/>
      <point x="147" y="688"/>
      <point x="69" y="584"/>
      <point x="52" y="525" type="curve" smooth="yes"/>
      <point x="48" y="512"/>
      <point x="56" y="498"/>
      <point x="69" y="494" type="curve" smooth="yes"/>
      <point x="82" y="490"/>
      <point x="96" y="498"/>
    </contour>
  </outline>
</glyph>
<glyph name="three" format="2">
  <advance width="520"/>
  <unicode hex="0033"/>
  <outline>
    <contour>
      <point x="141" y="637" type="curve" smooth="yes"/>
      <point x="411" y="637" type="line"/>
      <point x="392" y="576"/>
      <point x="338" y="484"/>
      <point x="241" y="429" type="curve" smooth="yes"/>
      <point x="218" y="416"/>
      <point x="227" y="382"/>
      <point x="253" y="382" type="curve" smooth="yes"/>
      <point x="381" y="382"/>
      <point x="417" y="322"/>
      <point x="419" y="246" type="curve" smooth="yes"/>
      <point x="422" y="116"/>
      <point x="314" y="50"/>
      <point x="218" y="50" type="curve" smooth="yes"/>
      <point x="143" y="50"/>
      <point x="100" y="93"/>
      <point x="100" y="104" type="curve" smooth="yes"/>
      <point x="100" y="118"/>
      <point x="89" y="129"/>
      <point x="75" y="129" type="curve" smooth="yes"/>
      <point x="61" y="129"/>
      <point x="50" y="118"/>
      <point x="50" y="104" type="curve" smooth="yes"/>
      <point x="50" y="55"/>
      <point x="125" y="0"/>
      <point x="218" y="0" type="curve" smooth="yes"/>
      <point x="340" y="0"/>
      <point x="472" y="88"/>
      <point x="469" y="248" type="curve" smooth="yes"/>
      <point x="466" y="371"/>
      <point x="387" y="413"/>
      <point x="323" y="425" type="curve"/>
      <point x="402" y="490"/>
      <point x="453" y="582"/>
      <point x="469" y="657" type="curve" smooth="yes"/>
      <point x="472" y="673"/>
      <point x="460" y="687"/>
      <point x="444" y="687" type="curve" smooth="yes"/>
      <point x="141" y="687" type="line" smooth="yes"/>
      <point x="127" y="687"/>
      <point x="116" y="676"/>
      <point x="116" y="662" type="curve" smooth="yes"/>
      <point x="116" y="648"/>
      <point x="127" y="637"/>
    </contour>
  </outline>
</glyph>
<glyph name="four" format="2">
  <advance width="630"/>
  <unicode hex="0034"/>
  <outline>
    <contour>
      <point x="405" y="1" type="curve" smooth="yes"/>
      <point x="435" y="228"/>
      <point x="445" y="559"/>
      <point x="445" y="681" type="curve" smooth="yes"/>
      <point x="445" y="702"/>
      <point x="421" y="714"/>
      <point x="404" y="700" type="curve" smooth="yes"/>
      <point x="350" y="657"/>
      <point x="82" y="315"/>
      <point x="55" y="270" type="curve"/>
      <point x="44" y="253"/>
      <point x="56" y="232"/>
      <point x="76" y="232" type="curve" smooth="yes"/>
      <point x="195" y="232"/>
      <point x="349" y="232"/>
      <point x="557" y="256" type="curve"/>
      <point x="571" y="258"/>
      <point x="580" y="270"/>
      <point x="579" y="284" type="curve"/>
      <point x="577" y="298"/>
      <point x="565" y="308"/>
      <point x="551" y="306" type="curve"/>
      <point x="372" y="286"/>
      <point x="233" y="282"/>
      <point x="124" y="282" type="curve"/>
      <point x="185" y="364"/>
      <point x="322" y="537"/>
      <point x="394" y="618" type="curve"/>
      <point x="392" y="469"/>
      <point x="381" y="200"/>
      <point x="355" y="7" type="curve" smooth="yes"/>
      <point x="353" y="-6"/>
      <point x="363" y="-19"/>
      <point x="377" y="-21" type="curve" smooth="yes"/>
      <point x="390" y="-23"/>
      <point x="403" y="-13"/>
    </contour>
  </outline>
</glyph>
<glyph name="five" format="2">
  <advance width="737"/>
  <unicode hex="0035"/>
  <outline>
    <contour>
      <point x="50" y="171" type="curve" smooth="yes"/>
      <point x="50" y="35"/>
      <point x="172" y="0"/>
      <point x="236" y="0" type="curve" smooth="yes"/>
      <point x="517" y="0"/>
      <point x="526" y="327"/>
      <point x="373" y="419" type="curve" smooth="yes"/>
      <point x="312" y="456"/>
      <point x="236" y="447"/>
      <point x="192" y="437" type="curve"/>
      <point x="273" y="629" type="line"/>
      <point x="363" y="600"/>
      <point x="575" y="586"/>
      <point x="668" y="615" type="curve" smooth="yes"/>
      <point x="682" y="619"/>
      <point x="689" y="633"/>
      <point x="685" y="646" type="curve" smooth="yes"/>
      <point x="681" y="660"/>
      <point x="667" y="667"/>
      <point x="654" y="663" type="curve" smooth="yes"/>
      <point x="565" y="636"/>
      <point x="338" y="652"/>
      <point x="269" y="684" type="curve"/>
      <point x="257" y="690"/>
      <point x="241" y="684"/>
      <point x="236" y="671" type="curve"/>
      <point x="125" y="408" type="line" smooth="yes"/>
      <point x="116" y="387"/>
      <point x="137" y="367"/>
      <point x="157" y="375" type="curve"/>
      <point x="171" y="380"/>
      <point x="278" y="418"/>
      <point x="347" y="377" type="curve" smooth="yes"/>
      <point x="458" y="309"/>
      <point x="465" y="50"/>
      <point x="236" y="50" type="curve" smooth="yes"/>
      <point x="194" y="50"/>
      <point x="100" y="70"/>
      <point x="100" y="171" type="curve" smooth="yes"/>
      <point x="100" y="185"/>
      <point x="89" y="196"/>
      <point x="75" y="196" type="curve" smooth="yes"/>
      <point x="61" y="196"/>
      <point x="50" y="185"/>
    </contour>
  </outline>
</glyph>
<glyph name="six" format="2">
  <advance width="630"/>
  <unicode hex="0036"/>
  <outline>
    <contour>
      <point x="392" y="681" type="curve" smooth="yes"/>
      <point x="220" y="625"/>
      <point x="-40" y="434"/>
      <point x="81" y="128" type="curve" smooth="yes"/>
      <point x="177" y="-116"/>
      <point x="599" y="21"/>
      <point x="579" y="224" type="curve" smooth="yes"/>
      <point x="562" y="411"/>
      <point x="259" y="442"/>
      <point x="211" y="120" type="curve" smooth="yes"/>
      <point x="209" y="106"/>
      <point x="219" y="93"/>
      <point x="232" y="91" type="curve" smooth="yes"/>
      <point x="246" y="89"/>
      <point x="259" y="99"/>
      <point x="261" y="112" type="curve" smooth="yes"/>
      <point x="299" y="366"/>
      <point x="516" y="357"/>
      <point x="529" y="220" type="curve" smooth="yes"/>
      <point x="543" y="73"/>
      <point x="202" y="-44"/>
      <point x="127" y="146" type="curve" smooth="yes"/>
      <point x="23" y="408"/>
      <point x="242" y="578"/>
      <point x="408" y="633" type="curve" smooth="yes"/>
      <point x="421" y="637"/>
      <point x="428" y="652"/>
      <point x="424" y="665" type="curve"/>
      <point x="419" y="678"/>
      <point x="405" y="685"/>
    </contour>
  </outline>
</glyph>
<glyph name="seven" format="2">
  <advance width="509"/>
  <unicode hex="0037"/>
  <outline>
    <contour>
      <point x="73" y="636" type="curve" smooth="yes"/>
      <point x="147" y="627"/>
      <point x="321" y="632"/>
      <point x="394" y="635" type="curve"/>
      <point x="350" y="535"/>
      <point x="208" y="221"/>
      <point x="102" y="38" type="curve" smooth="yes"/>
      <point x="95" y="26"/>
      <point x="99" y="10"/>
      <point x="111" y="3" type="curve" smooth="yes"/>
      <point x="123" y="-4"/>
      <point x="139" y="0"/>
      <point x="146" y="12" type="curve" smooth="yes"/>
      <point x="275" y="237"/>
      <point x="456" y="651"/>
      <point x="456" y="651" type="curve"/>
      <point x="463" y="668"/>
      <point x="450" y="687"/>
      <point x="432" y="686" type="curve"/>
      <point x="430" y="686"/>
      <point x="169" y="675"/>
      <point x="79" y="686" type="curve"/>
      <point x="65" y="687"/>
      <point x="53" y="678"/>
      <point x="51" y="664" type="curve"/>
      <point x="50" y="650"/>
      <point x="59" y="638"/>
    </contour>
  </outline>
</glyph>
<glyph name="eight" format="2">
  <advance width="406"/>
  <unicode hex="0038"/>
  <outline>
    <contour>
      <point x="138" y="365" type="curve" smooth="yes"/>
      <point x="-14" y="177"/>
      <point x="59" y="18"/>
      <point x="152" y="1" type="curve" smooth="yes"/>
      <point x="267" y="-20"/>
      <point x="321" y="127"/>
      <point x="268" y="223" type="curve" smooth="yes"/>
      <point x="225" y="301"/>
      <point x="74" y="460"/>
      <point x="134" y="580" type="curve" smooth="yes"/>
      <point x="153" y="617"/>
      <point x="197" y="635"/>
      <point x="224" y="635" type="curve" smooth="yes"/>
      <point x="280" y="636"/>
      <point x="317" y="567"/>
      <point x="303" y="526" type="curve" smooth="yes"/>
      <point x="274" y="437"/>
      <point x="202" y="443"/>
    </contour>
    <contour>
      <point x="176" y="333" type="curve" smooth="yes"/>
      <point x="228" y="398"/>
      <point x="316" y="405"/>
      <point x="351" y="510" type="curve" smooth="yes"/>
      <point x="373" y="577"/>
      <point x="320" y="686"/>
      <point x="224" y="685" type="curve" smooth="yes"/>
      <point x="183" y="685"/>
      <point x="120" y="661"/>
      <point x="90" y="602" type="curve" smooth="yes"/>
      <point x="15" y="452"/>
      <point x="182" y="277"/>
      <point x="224" y="199" type="curve" smooth="yes"/>
      <point x="261" y="133"/>
      <point x="225" y="39"/>
      <point x="162" y="51" type="curve" smooth="yes"/>
      <point x="106" y="61"/>
      <point x="51" y="180"/>
    </contour>
  </outline>
</glyph>
<glyph name="nine" format="2">
  <advance width="462"/>
  <unicode hex="0039"/>
  <outline>
    <contour>
      <point x="398" y="610" type="curve"/>
      <point x="344" y="669"/>
      <point x="305" y="692"/>
      <point x="230" y="692" type="curve" smooth="yes"/>
      <point x="98" y="692"/>
      <point x="46" y="586"/>
      <point x="51" y="510" type="curve" smooth="yes"/>
      <point x="55" y="435"/>
      <point x="105" y="362"/>
      <point x="226" y="362" type="curve" smooth="yes"/>
      <point x="274" y="362"/>
      <point x="310" y="386"/>
      <point x="335" y="410" type="curve"/>
      <point x="317" y="315"/>
      <point x="293" y="114"/>
      <point x="338" y="14" type="curve" smooth="yes"/>
      <point x="344" y="1"/>
      <point x="359" y="-4"/>
      <point x="371" y="1" type="curve"/>
      <point x="384" y="7"/>
      <point x="389" y="22"/>
      <point x="384" y="34" type="curve"/>
      <point x="342" y="126"/>
      <point x="366" y="360"/>
      <point x="410" y="514" type="curve" smooth="yes"/>
      <point x="418" y="542"/>
      <point x="381" y="559"/>
      <point x="365" y="535" type="curve" smooth="yes"/>
      <point x="328" y="478"/>
      <point x="292" y="412"/>
      <point x="226" y="412" type="curve" smooth="yes"/>
      <point x="125" y="412"/>
      <point x="104" y="471"/>
      <point x="101" y="513" type="curve" smooth="yes"/>
      <point x="99" y="555"/>
      <point x="122" y="642"/>
      <point x="230" y="642" type="curve" smooth="yes"/>
      <point x="287" y="642"/>
      <point x="313" y="628"/>
      <point x="360" y="576" type="curve" smooth="yes"/>
      <point x="369" y="566"/>
      <point x="385" y="564"/>
      <point x="396" y="574" type="curve" smooth="yes"/>
      <point x="406" y="583"/>
      <point x="407" y="599"/>
    </contour>
  </outline>
</glyph>
<glyph name="colon" format="2">
  <advance width="126"/>
  <unicode hex="003A"/>
  <outline>
    <contour>
      <point x="10" y="517" type="curve" smooth="yes"/>
      <point x="10" y="562"/>
      <point x="38" y="579"/>
      <point x="63" y="579" type="curve" smooth="yes"/>
      <point x="80" y="579"/>
      <point x="116" y="572"/>
      <point x="116" y="517" type="curve" smooth="yes"/>
      <point x="116" y="490"/>
      <point x="92" y="472"/>
      <point x="63" y="472" type="curve" smooth="yes"/>
      <point x="32" y="472"/>
      <point x="10" y="491"/>
    </contour>
    <contour>
      <point x="10" y="221" type="curve" smooth="yes"/>
      <point x="10" y="266"/>
      <point x="38" y="283"/>
      <point x="63" y="283" type="curve" smooth="yes"/>
      <point x="80" y="283"/>
      <point x="116" y="276"/>
      <point x="116" y="221" type="curve" smooth="yes"/>
      <point x="116" y="194"/>
      <point x="92" y="176"/>
      <point x="63" y="176" type="curve" smooth="yes"/>
      <point x="32" y="176"/>
      <point x="10" y="195"/>
    </contour>
  </outline>
</glyph>
<glyph name="semicolon" format="2">
  <advance width="155"/>
  <unicode hex="003B"/>
  <outline>
    <contour>
      <point x="24" y="543" type="curve" smooth="yes"/>
      <point x="24" y="588"/>
      <point x="52" y="605"/>
      <point x="77" y="605" type="curve" smooth="yes"/>
      <point x="94" y="605"/>
      <point x="130" y="598"/>
      <point x="130" y="543" type="curve" smooth="yes"/>
      <point x="130" y="516"/>
      <point x="106" y="498"/>
      <point x="77" y="498" type="curve" smooth="yes"/>
      <point x="46" y="498"/>
      <point x="24" y="517"/>
    </contour>
    <contour>
      <point x="71" y="183" type="curve"/>
      <point x="57" y="180"/>
      <point x="42" y="188"/>
      <point x="38" y="202" type="curve"/>
      <point x="35" y="216"/>
      <point x="43" y="231"/>
      <point x="57" y="235" type="curve" smooth="yes"/>
      <point x="149" y="260"/>
      <point x="199" y="80"/>
      <point x="48" y="8" type="curve" smooth="yes"/>
      <point x="35" y="2"/>
      <point x="19" y="7"/>
      <point x="13" y="21" type="curve"/>
      <point x="7" y="34"/>
      <point x="12" y="50"/>
      <point x="26" y="56" type="curve"/>
      <point x="118" y="100"/>
      <point x="92" y="189"/>
    </contour>
  </outline>
</glyph>
<glyph name="question" format="2">
  <advance width="366"/>
  <unicode hex="003F"/>
  <outline>
    <contour>
      <point x="163" y="40" type="curve" smooth="yes"/>
      <point x="163" y="68"/>
      <point x="179" y="87"/>
      <point x="209" y="87" type="curve" smooth="yes"/>
      <point x="235" y="87"/>
      <point x="247" y="60"/>
      <point x="247" y="40" type="curve" smooth="yes"/>
      <point x="247" y="20"/>
      <point x="228" y="3"/>
      <point x="209" y="3" type="curve" smooth="yes"/>
      <point x="185" y="3"/>
      <point x="163" y="12"/>
    </contour>
    <contour>
      <point x="61" y="645" type="curve" smooth="yes"/>
      <point x="59" y="631"/>
      <point x="46" y="622"/>
      <point x="32" y="624" type="curve" smooth="yes"/>
      <point x="18" y="626"/>
      <point x="9" y="639"/>
      <point x="11" y="653" type="curve" smooth="yes"/>
      <point x="32" y="781"/>
      <point x="287" y="816"/>
      <point x="346" y="622" type="curve" smooth="yes"/>
      <point x="400" y="441"/>
      <point x="198" y="322"/>
      <point x="229" y="165" type="curve" smooth="yes"/>
      <point x="232" y="151"/>
      <point x="223" y="138"/>
      <point x="209" y="135" type="curve"/>
      <point x="195" y="133"/>
      <point x="182" y="141"/>
      <point x="179" y="155" type="curve" smooth="yes"/>
      <point x="143" y="336"/>
      <point x="344" y="454"/>
      <point x="298" y="608" type="curve" smooth="yes"/>
      <point x="254" y="752"/>
      <point x="72" y="719"/>
    </contour>
  </outline>
</glyph>
<glyph name="A" format="2">
  <advance width="731"/>
  <unicode hex="0041"/>
  <outline>
    <contour>
      <point x="88" y="14" type="curve"/>
      <point x="146" y="130"/>
      <point x="309" y="491"/>
      <point x="366" y="614" type="curve"/>
      <point x="462" y="417"/>
      <point x="630" y="65"/>
      <point x="642" y="19" type="curve"/>
      <point x="645" y="6"/>
      <point x="659" y="-3"/>
      <point x="672" y="1" type="curve"/>
      <point x="685" y="4"/>
      <point x="694" y="18"/>
      <point x="690" y="31" type="curve"/>
      <point x="676" y="87"/>
      <point x="481" y="492"/>
      <point x="388" y="683" type="curve" smooth="yes"/>
      <point x="379" y="702"/>
      <point x="353" y="702"/>
      <point x="344" y="683" type="curve" smooth="yes"/>
      <point x="251" y="498"/>
      <point x="144" y="236"/>
      <point x="44" y="36" type="curve"/>
      <point x="37" y="24"/>
      <point x="42" y="9"/>
      <point x="55" y="3" type="curve"/>
      <point x="67" y="-4"/>
      <point x="82" y="1"/>
    </contour>
    <contour>
      <point x="256" y="249" type="curve" smooth="yes"/>
      <point x="324" y="249"/>
      <point x="366" y="256"/>
      <point x="548" y="249" type="curve"/>
      <point x="562" y="248"/>
      <point x="573" y="259"/>
      <point x="574" y="273" type="curve" smooth="yes"/>
      <point x="575" y="287"/>
      <point x="564" y="298"/>
      <point x="550" y="299" type="curve"/>
      <point x="366" y="306"/>
      <point x="322" y="299"/>
      <point x="256" y="299" type="curve" smooth="yes"/>
      <point x="242" y="299"/>
      <point x="231" y="288"/>
      <point x="231" y="274" type="curve" smooth="yes"/>
      <point x="231" y="260"/>
      <point x="242" y="249"/>
    </contour>
  </outline>
</glyph>
<glyph name="B" format="2">
  <advance width="563"/>
  <unicode hex="0042"/>
  <outline>
    <contour>
      <point x="80" y="572" type="curve" smooth="yes"/>
      <point x="136" y="614"/>
      <point x="225" y="643"/>
      <point x="272" y="643" type="curve" smooth="yes"/>
      <point x="357" y="643"/>
      <point x="388" y="597"/>
      <point x="393" y="552" type="curve" smooth="yes"/>
      <point x="402" y="478"/>
      <point x="316" y="392"/>
      <point x="303" y="378" type="curve"/>
      <point x="289" y="364"/>
      <point x="297" y="340"/>
      <point x="316" y="336" type="curve" smooth="yes"/>
      <point x="358" y="328"/>
      <point x="473" y="303"/>
      <point x="473" y="183" type="curve" smooth="yes"/>
      <point x="473" y="87"/>
      <point x="311" y="16"/>
      <point x="120" y="66" type="curve"/>
      <point x="107" y="69"/>
      <point x="94" y="62"/>
      <point x="90" y="48" type="curve"/>
      <point x="87" y="35"/>
      <point x="94" y="22"/>
      <point x="108" y="18" type="curve"/>
      <point x="330" y="-38"/>
      <point x="523" y="48"/>
      <point x="523" y="183" type="curve" smooth="yes"/>
      <point x="523" y="305"/>
      <point x="432" y="357"/>
      <point x="368" y="375" type="curve"/>
      <point x="407" y="422"/>
      <point x="451" y="490"/>
      <point x="443" y="558" type="curve" smooth="yes"/>
      <point x="434" y="628"/>
      <point x="382" y="693"/>
      <point x="272" y="693" type="curve" smooth="yes"/>
      <point x="213" y="693"/>
      <point x="114" y="660"/>
      <point x="50" y="612" type="curve" smooth="yes"/>
      <point x="39" y="604"/>
      <point x="37" y="588"/>
      <point x="45" y="577" type="curve" smooth="yes"/>
      <point x="53" y="566"/>
      <point x="69" y="564"/>
    </contour>
    <contour>
      <point x="131" y="559" type="curve"/>
      <point x="60" y="293"/>
      <point x="78" y="96"/>
      <point x="96" y="4" type="curve" smooth="yes"/>
      <point x="99" y="-10"/>
      <point x="111" y="-18"/>
      <point x="125" y="-15" type="curve"/>
      <point x="139" y="-13"/>
      <point x="147" y="0"/>
      <point x="144" y="14" type="curve" smooth="yes"/>
      <point x="127" y="98"/>
      <point x="110" y="287"/>
      <point x="179" y="547" type="curve"/>
      <point x="183" y="560"/>
      <point x="175" y="573"/>
      <point x="161" y="577" type="curve"/>
      <point x="148" y="580"/>
      <point x="134" y="573"/>
    </contour>
  </outline>
</glyph>
<glyph name="C" format="2">
  <advance width="679"/>
  <unicode hex="0043"/>
  <outline>
    <contour>
      <point x="624" y="659" type="curve" smooth="yes"/>
      <point x="387" y="766"/>
      <point x="63" y="615"/>
      <point x="42" y="294" type="curve" smooth="yes"/>
      <point x="21" y="-26"/>
      <point x="319" y="-65"/>
      <point x="525" y="48" type="curve"/>
      <point x="537" y="55"/>
      <point x="542" y="70"/>
      <point x="535" y="82" type="curve" smooth="yes"/>
      <point x="528" y="94"/>
      <point x="513" y="99"/>
      <point x="501" y="92" type="curve" smooth="yes"/>
      <point x="342" y="4"/>
      <point x="73" y="3"/>
      <point x="92" y="290" type="curve" smooth="yes"/>
      <point x="111" y="575"/>
      <point x="395" y="708"/>
      <point x="604" y="613" type="curve"/>
      <point x="616" y="608"/>
      <point x="631" y="613"/>
      <point x="637" y="626" type="curve"/>
      <point x="642" y="638"/>
      <point x="637" y="653"/>
    </contour>
  </outline>
</glyph>
<glyph name="D" format="2">
  <advance width="541"/>
  <unicode hex="0044"/>
  <outline>
    <contour>
      <point x="114" y="575" type="curve" smooth="yes"/>
      <point x="94" y="490"/>
      <point x="52" y="101"/>
      <point x="41" y="42" type="curve"/>
      <point x="39" y="28"/>
      <point x="48" y="15"/>
      <point x="61" y="12" type="curve"/>
      <point x="250" y="-25"/>
      <point x="442" y="-40"/>
      <point x="492" y="293" type="curve" smooth="yes"/>
      <point x="562" y="754"/>
      <point x="194" y="743"/>
      <point x="68" y="637" type="curve" smooth="yes"/>
      <point x="57" y="628"/>
      <point x="56" y="613"/>
      <point x="65" y="602" type="curve" smooth="yes"/>
      <point x="74" y="591"/>
      <point x="89" y="590"/>
      <point x="100" y="599" type="curve" smooth="yes"/>
      <point x="188" y="673"/>
      <point x="505" y="718"/>
      <point x="442" y="301" type="curve" smooth="yes"/>
      <point x="402" y="33"/>
      <point x="273" y="23"/>
      <point x="94" y="57" type="curve"/>
      <point x="107" y="144"/>
      <point x="145" y="489"/>
      <point x="162" y="563" type="curve" smooth="yes"/>
      <point x="165" y="577"/>
      <point x="157" y="590"/>
      <point x="144" y="593" type="curve" smooth="yes"/>
      <point x="130" y="596"/>
      <point x="117" y="588"/>
    </contour>
  </outline>
</glyph>
<glyph name="E" format="2">
  <advance width="639"/>
  <unicode hex="0045"/>
  <outline>
    <contour>
      <point x="575" y="680" type="curve" smooth="yes"/>
      <point x="238" y="708"/>
      <point x="147" y="667"/>
      <point x="136" y="667" type="curve" smooth="yes"/>
      <point x="88" y="667"/>
      <point x="-7" y="-8"/>
      <point x="69" y="-8" type="curve" smooth="yes"/>
      <point x="134" y="-8"/>
      <point x="465" y="-1"/>
      <point x="562" y="27" type="curve" smooth="yes"/>
      <point x="575" y="31"/>
      <point x="583" y="45"/>
      <point x="579" y="58" type="curve" smooth="yes"/>
      <point x="574" y="75"/>
      <point x="559" y="78"/>
      <point x="544" y="74" type="curve" smooth="yes"/>
      <point x="456" y="51"/>
      <point x="182" y="49"/>
      <point x="92" y="48" type="curve"/>
      <point x="86" y="137"/>
      <point x="140" y="528"/>
      <point x="161" y="613" type="curve"/>
      <point x="192" y="620"/>
      <point x="286" y="654"/>
      <point x="571" y="630" type="curve" smooth="yes"/>
      <point x="585" y="629"/>
      <point x="597" y="639"/>
      <point x="598" y="653" type="curve" smooth="yes"/>
      <point x="599" y="667"/>
      <point x="589" y="679"/>
    </contour>
    <contour>
      <point x="106" y="311" type="curve"/>
      <point x="257" y="328"/>
      <point x="457" y="345"/>
      <point x="539" y="345" type="curve" smooth="yes"/>
      <point x="553" y="345"/>
      <point x="564" y="356"/>
      <point x="564" y="370" type="curve" smooth="yes"/>
      <point x="564" y="384"/>
      <point x="553" y="395"/>
      <point x="539" y="395" type="curve" smooth="yes"/>
      <point x="453" y="395"/>
      <point x="251" y="378"/>
      <point x="100" y="361" type="curve"/>
      <point x="86" y="359"/>
      <point x="77" y="347"/>
      <point x="78" y="333" type="curve"/>
      <point x="80" y="319"/>
      <point x="92" y="310"/>
    </contour>
  </outline>
</glyph>
<glyph name="F" format="2">
  <advance width="604"/>
  <unicode hex="0046"/>
  <outline>
    <contour>
      <point x="539" y="695" type="curve"/>
      <point x="242" y="708"/>
      <point x="147" y="682"/>
      <point x="133" y="682" type="curve" smooth="yes"/>
      <point x="74" y="682"/>
      <point x="40" y="48"/>
      <point x="41" y="22" type="curve"/>
      <point x="42" y="8"/>
      <point x="53" y="-3"/>
      <point x="67" y="-2" type="curve" smooth="yes"/>
      <point x="81" y="-1"/>
      <point x="91" y="10"/>
      <point x="91" y="24" type="curve" smooth="yes"/>
      <point x="91" y="104"/>
      <point x="137" y="554"/>
      <point x="155" y="631" type="curve"/>
      <point x="190" y="636"/>
      <point x="289" y="656"/>
      <point x="537" y="645" type="curve"/>
      <point x="551" y="644"/>
      <point x="562" y="655"/>
      <point x="563" y="669" type="curve" smooth="yes"/>
      <point x="564" y="683"/>
      <point x="553" y="694"/>
    </contour>
    <contour>
      <point x="102" y="322" type="curve"/>
      <point x="254" y="339"/>
      <point x="338" y="344"/>
      <point x="422" y="344" type="curve" smooth="yes"/>
      <point x="436" y="344"/>
      <point x="447" y="355"/>
      <point x="447" y="369" type="curve" smooth="yes"/>
      <point x="447" y="383"/>
      <point x="436" y="394"/>
      <point x="422" y="394" type="curve" smooth="yes"/>
      <point x="336" y="394"/>
      <point x="250" y="389"/>
      <point x="96" y="372" type="curve"/>
      <point x="82" y="370"/>
      <point x="73" y="358"/>
      <point x="74" y="344" type="curve"/>
      <point x="76" y="330"/>
      <point x="88" y="321"/>
    </contour>
  </outline>
</glyph>
<glyph name="G" format="2">
  <advance width="657"/>
  <unicode hex="0047"/>
  <outline>
    <contour>
      <point x="524" y="595" type="curve"/>
      <point x="459" y="727"/>
      <point x="291" y="729"/>
      <point x="124" y="494" type="curve" smooth="yes"/>
      <point x="-72" y="222"/>
      <point x="92" y="-113"/>
      <point x="442" y="43" type="curve" smooth="yes"/>
      <point x="455" y="49"/>
      <point x="460" y="64"/>
      <point x="455" y="76" type="curve"/>
      <point x="449" y="89"/>
      <point x="434" y="94"/>
      <point x="422" y="89" type="curve" smooth="yes"/>
      <point x="115" y="-48"/>
      <point x="1" y="238"/>
      <point x="164" y="464" type="curve" smooth="yes"/>
      <point x="289" y="640"/>
      <point x="423" y="685"/>
      <point x="480" y="573" type="curve"/>
      <point x="486" y="560"/>
      <point x="501" y="556"/>
      <point x="513" y="562" type="curve"/>
      <point x="526" y="569"/>
      <point x="531" y="583"/>
    </contour>
    <contour>
      <point x="324" y="224" type="curve" smooth="yes"/>
      <point x="405" y="224"/>
      <point x="487" y="231"/>
      <point x="568" y="225" type="curve"/>
      <point x="559" y="152"/>
      <point x="507" y="-69"/>
      <point x="507" y="-110" type="curve" smooth="yes"/>
      <point x="507" y="-124"/>
      <point x="518" y="-135"/>
      <point x="532" y="-135" type="curve" smooth="yes"/>
      <point x="546" y="-135"/>
      <point x="557" y="-124"/>
      <point x="557" y="-110" type="curve" smooth="yes"/>
      <point x="557" y="-13"/>
      <point x="663" y="274"/>
      <point x="592" y="274" type="curve" smooth="yes"/>
      <point x="578" y="274"/>
      <point x="516" y="281"/>
      <point x="322" y="274" type="curve"/>
      <point x="308" y="273"/>
      <point x="298" y="262"/>
      <point x="298" y="248" type="curve"/>
      <point x="299" y="234"/>
      <point x="310" y="224"/>
    </contour>
  </outline>
</glyph>
<glyph name="H" format="2">
  <advance width="578"/>
  <unicode hex="0048"/>
  <outline>
    <contour>
      <point x="60" y="683" type="curve"/>
      <point x="42" y="615"/>
      <point x="26" y="150"/>
      <point x="60" y="15" type="curve"/>
      <point x="63" y="1"/>
      <point x="77" y="-6"/>
      <point x="90" y="-3" type="curve"/>
      <point x="104" y="1"/>
      <point x="111" y="14"/>
      <point x="108" y="27" type="curve"/>
      <point x="75" y="154"/>
      <point x="92" y="609"/>
      <point x="108" y="671" type="curve"/>
      <point x="112" y="684"/>
      <point x="104" y="697"/>
      <point x="90" y="701" type="curve"/>
      <point x="77" y="704"/>
      <point x="63" y="697"/>
    </contour>
    <contour>
      <point x="451" y="661" type="curve" smooth="yes"/>
      <point x="451" y="616"/>
      <point x="498" y="102"/>
      <point x="484" y="26" type="curve"/>
      <point x="481" y="12"/>
      <point x="491" y="-2"/>
      <point x="504" y="-4" type="curve"/>
      <point x="518" y="-7"/>
      <point x="531" y="3"/>
      <point x="534" y="16" type="curve"/>
      <point x="551" y="104"/>
      <point x="501" y="608"/>
      <point x="501" y="661" type="curve" smooth="yes"/>
      <point x="501" y="675"/>
      <point x="490" y="686"/>
      <point x="476" y="686" type="curve" smooth="yes"/>
      <point x="462" y="686"/>
      <point x="451" y="675"/>
    </contour>
    <contour>
      <point x="115" y="365" type="curve"/>
      <point x="142" y="339"/>
      <point x="370" y="326"/>
      <point x="495" y="342" type="curve" smooth="yes"/>
      <point x="509" y="344"/>
      <point x="519" y="357"/>
      <point x="517" y="370" type="curve" smooth="yes"/>
      <point x="515" y="384"/>
      <point x="502" y="394"/>
      <point x="489" y="392" type="curve" smooth="yes"/>
      <point x="368" y="376"/>
      <point x="177" y="389"/>
      <point x="148" y="403" type="curve" smooth="yes"/>
      <point x="138" y="408"/>
      <point x="124" y="410"/>
      <point x="115" y="401" type="curve"/>
      <point x="106" y="391"/>
      <point x="106" y="375"/>
    </contour>
  </outline>
</glyph>
<glyph name="I" format="2">
  <advance width="637"/>
  <unicode hex="0049"/>
  <outline>
    <contour>
      <point x="68" y="626" type="curve" smooth="yes"/>
      <point x="279" y="639"/>
      <point x="404" y="633"/>
      <point x="570" y="626" type="curve"/>
      <point x="584" y="625"/>
      <point x="595" y="636"/>
      <point x="596" y="650" type="curve" smooth="yes"/>
      <point x="597" y="664"/>
      <point x="586" y="675"/>
      <point x="572" y="676" type="curve"/>
      <point x="406" y="683"/>
      <point x="279" y="689"/>
      <point x="64" y="676" type="curve" smooth="yes"/>
      <point x="51" y="675"/>
      <point x="40" y="663"/>
      <point x="41" y="649" type="curve" smooth="yes"/>
      <point x="42" y="636"/>
      <point x="54" y="625"/>
    </contour>
    <contour>
      <point x="68" y="11" type="curve" smooth="yes"/>
      <point x="232" y="-5"/>
      <point x="490" y="-5"/>
      <point x="576" y="11" type="curve"/>
      <point x="589" y="14"/>
      <point x="599" y="27"/>
      <point x="596" y="41" type="curve"/>
      <point x="594" y="54"/>
      <point x="580" y="64"/>
      <point x="566" y="61" type="curve" smooth="yes"/>
      <point x="488" y="46"/>
      <point x="236" y="45"/>
      <point x="72" y="61" type="curve" smooth="yes"/>
      <point x="59" y="62"/>
      <point x="46" y="52"/>
      <point x="45" y="38" type="curve" smooth="yes"/>
      <point x="44" y="25"/>
      <point x="54" y="12"/>
    </contour>
    <contour>
      <point x="284" y="658" type="curve" smooth="yes"/>
      <point x="284" y="30" type="line" smooth="yes"/>
      <point x="284" y="16"/>
      <point x="295" y="5"/>
      <point x="309" y="5" type="curve" smooth="yes"/>
      <point x="323" y="5"/>
      <point x="334" y="16"/>
      <point x="334" y="30" type="curve" smooth="yes"/>
      <point x="334" y="658" type="line" smooth="yes"/>
      <point x="334" y="672"/>
      <point x="323" y="683"/>
      <point x="309" y="683" type="curve" smooth="yes"/>
      <point x="295" y="683"/>
      <point x="284" y="672"/>
    </contour>
  </outline>
</glyph>
<glyph name="J" format="2">
  <advance width="549"/>
  <unicode hex="004A"/>
  <outline>
    <contour>
      <point x="122" y="633" type="curve" smooth="yes"/>
      <point x="484" y="633" type="line" smooth="yes"/>
      <point x="498" y="633"/>
      <point x="509" y="644"/>
      <point x="509" y="658" type="curve" smooth="yes"/>
      <point x="509" y="672"/>
      <point x="498" y="683"/>
      <point x="484" y="683" type="curve" smooth="yes"/>
      <point x="122" y="683" type="line" smooth="yes"/>
      <point x="108" y="683"/>
      <point x="97" y="672"/>
      <point x="97" y="658" type="curve" smooth="yes"/>
      <point x="97" y="644"/>
      <point x="108" y="633"/>
    </contour>
    <contour>
      <point x="40" y="138" type="curve" smooth="yes"/>
      <point x="40" y="60"/>
      <point x="71" y="-1"/>
      <point x="178" y="-1" type="curve" smooth="yes"/>
      <point x="304" y="-1"/>
      <point x="361" y="130"/>
      <point x="350" y="648" type="curve"/>
      <point x="350" y="661"/>
      <point x="338" y="672"/>
      <point x="324" y="672" type="curve" smooth="yes"/>
      <point x="311" y="672"/>
      <point x="300" y="660"/>
      <point x="300" y="646" type="curve"/>
      <point x="313" y="77"/>
      <point x="234" y="49"/>
      <point x="178" y="49" type="curve" smooth="yes"/>
      <point x="105" y="49"/>
      <point x="90" y="80"/>
      <point x="90" y="138" type="curve" smooth="yes"/>
      <point x="90" y="152"/>
      <point x="79" y="163"/>
      <point x="65" y="163" type="curve" smooth="yes"/>
      <point x="51" y="163"/>
      <point x="40" y="152"/>
    </contour>
  </outline>
</glyph>
<glyph name="K" format="2">
  <advance width="609"/>
  <unicode hex="004B"/>
  <outline>
    <contour>
      <point x="53" y="658" type="curve" smooth="yes"/>
      <point x="66" y="494"/>
      <point x="40" y="195"/>
      <point x="40" y="25" type="curve" smooth="yes"/>
      <point x="40" y="11"/>
      <point x="51" y="0"/>
      <point x="65" y="0" type="curve" smooth="yes"/>
      <point x="79" y="0"/>
      <point x="90" y="11"/>
      <point x="90" y="25" type="curve" smooth="yes"/>
      <point x="90" y="185"/>
      <point x="116" y="496"/>
      <point x="103" y="662" type="curve" smooth="yes"/>
      <point x="102" y="676"/>
      <point x="90" y="686"/>
      <point x="76" y="685" type="curve" smooth="yes"/>
      <point x="62" y="684"/>
      <point x="52" y="672"/>
    </contour>
    <contour>
      <point x="451" y="641" type="curve"/>
      <point x="366" y="571"/>
      <point x="196" y="372"/>
      <point x="156" y="365" type="curve"/>
      <point x="171" y="345" type="line"/>
      <point x="173" y="348"/>
      <point x="185" y="361"/>
      <point x="225" y="355" type="curve" smooth="yes"/>
      <point x="284" y="346"/>
      <point x="354" y="104"/>
      <point x="531" y="3" type="curve" smooth="yes"/>
      <point x="543" y="-4"/>
      <point x="558" y="1"/>
      <point x="565" y="13" type="curve" smooth="yes"/>
      <point x="572" y="25"/>
      <point x="567" y="40"/>
      <point x="555" y="47" type="curve" smooth="yes"/>
      <point x="378" y="147"/>
      <point x="333" y="390"/>
      <point x="233" y="405" type="curve" smooth="yes"/>
      <point x="128" y="420"/>
      <point x="102" y="343"/>
      <point x="135" y="321" type="curve" smooth="yes"/>
      <point x="200" y="277"/>
      <point x="351" y="497"/>
      <point x="483" y="601" type="curve"/>
      <point x="493" y="610"/>
      <point x="495" y="626"/>
      <point x="487" y="637" type="curve"/>
      <point x="478" y="647"/>
      <point x="462" y="649"/>
    </contour>
  </outline>
</glyph>
<glyph name="L" format="2">
  <advance width="591"/>
  <unicode hex="004C"/>
  <outline>
    <contour>
      <point x="81" y="669" type="curve" smooth="yes"/>
      <point x="40" y="389"/>
      <point x="40" y="109"/>
      <point x="40" y="25" type="curve" smooth="yes"/>
      <point x="40" y="11"/>
      <point x="51" y="0"/>
      <point x="64" y="0" type="curve" smooth="yes"/>
      <point x="526" y="0" type="line" smooth="yes"/>
      <point x="540" y="0"/>
      <point x="551" y="11"/>
      <point x="551" y="25" type="curve" smooth="yes"/>
      <point x="551" y="38"/>
      <point x="540" y="49"/>
      <point x="526" y="49" type="curve" smooth="yes"/>
      <point x="89" y="49" type="line"/>
      <point x="89" y="151"/>
      <point x="92" y="408"/>
      <point x="130" y="662" type="curve" smooth="yes"/>
      <point x="132" y="676"/>
      <point x="123" y="688"/>
      <point x="109" y="690" type="curve" smooth="yes"/>
      <point x="96" y="692"/>
      <point x="83" y="683"/>
    </contour>
  </outline>
</glyph>
<glyph name="M" format="2">
  <advance width="787"/>
  <unicode hex="004D"/>
  <outline>
    <contour>
      <point x="91" y="23" type="curve" smooth="yes"/>
      <point x="112" y="245"/>
      <point x="153" y="485"/>
      <point x="174" y="600" type="curve"/>
      <point x="255" y="487"/>
      <point x="378" y="306"/>
      <point x="406" y="273" type="curve"/>
      <point x="416" y="262"/>
      <point x="433" y="262"/>
      <point x="443" y="273" type="curve" smooth="yes"/>
      <point x="517" y="353"/>
      <point x="616" y="497"/>
      <point x="668" y="578" type="curve"/>
      <point x="674" y="393"/>
      <point x="685" y="108"/>
      <point x="696" y="22" type="curve" smooth="yes"/>
      <point x="698" y="8"/>
      <point x="711" y="-2"/>
      <point x="724" y="0" type="curve" smooth="yes"/>
      <point x="738" y="2"/>
      <point x="748" y="15"/>
      <point x="746" y="28" type="curve" smooth="yes"/>
      <point x="733" y="125"/>
      <point x="720" y="489"/>
      <point x="715" y="662" type="curve" smooth="yes"/>
      <point x="714" y="687"/>
      <point x="681" y="695"/>
      <point x="668" y="673" type="curve"/>
      <point x="647" y="635"/>
      <point x="519" y="437"/>
      <point x="426" y="329" type="curve"/>
      <point x="382" y="389"/>
      <point x="255" y="575"/>
      <point x="180" y="676" type="curve" smooth="yes"/>
      <point x="167" y="693"/>
      <point x="139" y="687"/>
      <point x="135" y="666" type="curve" smooth="yes"/>
      <point x="118" y="582"/>
      <point x="66" y="294"/>
      <point x="41" y="27" type="curve" smooth="yes"/>
      <point x="40" y="14"/>
      <point x="50" y="1"/>
      <point x="64" y="0" type="curve" smooth="yes"/>
      <point x="77" y="-1"/>
      <point x="90" y="9"/>
    </contour>
  </outline>
</glyph>
<glyph name="N" format="2">
  <advance width="793"/>
  <unicode hex="004E"/>
  <outline>
    <contour>
      <point x="90" y="17" type="curve"/>
      <point x="202" y="334"/>
      <point x="215" y="471"/>
      <point x="259" y="605" type="curve"/>
      <point x="368" y="422"/>
      <point x="490" y="102"/>
      <point x="585" y="7" type="curve"/>
      <point x="599" y="-6"/>
      <point x="621" y="0"/>
      <point x="627" y="17" type="curve"/>
      <point x="683" y="191"/>
      <point x="718" y="557"/>
      <point x="751" y="654" type="curve"/>
      <point x="755" y="667"/>
      <point x="748" y="681"/>
      <point x="735" y="686" type="curve"/>
      <point x="722" y="690"/>
      <point x="707" y="683"/>
      <point x="703" y="670" type="curve"/>
      <point x="671" y="576"/>
      <point x="639" y="255"/>
      <point x="592" y="77" type="curve"/>
      <point x="503" y="200"/>
      <point x="379" y="521"/>
      <point x="273" y="676" type="curve" smooth="yes"/>
      <point x="261" y="693"/>
      <point x="236" y="690"/>
      <point x="229" y="671" type="curve" smooth="yes"/>
      <point x="165" y="501"/>
      <point x="166" y="383"/>
      <point x="42" y="33" type="curve"/>
      <point x="37" y="20"/>
      <point x="45" y="6"/>
      <point x="58" y="1" type="curve"/>
      <point x="71" y="-3"/>
      <point x="85" y="4"/>
    </contour>
  </outline>
</glyph>
<glyph name="O" format="2">
  <advance width="748"/>
  <unicode hex="004F"/>
  <outline>
    <contour>
      <point x="296" y="678" type="curve" smooth="yes"/>
      <point x="98" y="678"/>
      <point x="40" y="428"/>
      <point x="40" y="307" type="curve" smooth="yes"/>
      <point x="40" y="190"/>
      <point x="134" y="-1"/>
      <point x="391" y="-1" type="curve" smooth="yes"/>
      <point x="629" y="-1"/>
      <point x="708" y="258"/>
      <point x="708" y="370" type="curve" smooth="yes"/>
      <point x="708" y="487"/>
      <point x="620" y="703"/>
      <point x="380" y="685" type="curve" smooth="yes"/>
      <point x="366" y="684"/>
      <point x="356" y="672"/>
      <point x="357" y="658" type="curve" smooth="yes"/>
      <point x="358" y="644"/>
      <point x="370" y="634"/>
      <point x="384" y="635" type="curve" smooth="yes"/>
      <point x="580" y="649"/>
      <point x="658" y="473"/>
      <point x="658" y="370" type="curve" smooth="yes"/>
      <point x="658" y="262"/>
      <point x="583" y="49"/>
      <point x="391" y="49" type="curve" smooth="yes"/>
      <point x="166" y="49"/>
      <point x="90" y="212"/>
      <point x="90" y="307" type="curve" smooth="yes"/>
      <point x="90" y="434"/>
      <point x="150" y="628"/>
      <point x="296" y="628" type="curve" smooth="yes"/>
      <point x="310" y="628"/>
      <point x="321" y="639"/>
      <point x="321" y="653" type="curve" smooth="yes"/>
      <point x="321" y="667"/>
      <point x="310" y="678"/>
    </contour>
  </outline>
</glyph>
<glyph name="P" format="2">
  <advance width="473"/>
  <unicode hex="0050"/>
  <outline>
    <contour>
      <point x="91" y="-4" type="curve"/>
      <point x="126" y="182"/>
      <point x="129" y="549"/>
      <point x="129" y="647" type="curve"/>
      <point x="330" y="644"/>
      <point x="383" y="572"/>
      <point x="383" y="483" type="curve" smooth="yes"/>
      <point x="383" y="319"/>
      <point x="249" y="308"/>
      <point x="220" y="327" type="curve" smooth="yes"/>
      <point x="208" y="335"/>
      <point x="192" y="331"/>
      <point x="185" y="320" type="curve" smooth="yes"/>
      <point x="177" y="308"/>
      <point x="181" y="293"/>
      <point x="192" y="285" type="curve"/>
      <point x="255" y="243"/>
      <point x="433" y="279"/>
      <point x="433" y="483" type="curve" smooth="yes"/>
      <point x="433" y="699"/>
      <point x="180" y="697"/>
      <point x="104" y="697" type="curve" smooth="yes"/>
      <point x="90" y="697"/>
      <point x="79" y="686"/>
      <point x="79" y="672" type="curve" smooth="yes"/>
      <point x="79" y="609"/>
      <point x="79" y="201"/>
      <point x="41" y="6" type="curve"/>
      <point x="39" y="-8"/>
      <point x="48" y="-21"/>
      <point x="61" y="-24" type="curve"/>
      <point x="75" y="-26"/>
      <point x="88" y="-17"/>
    </contour>
  </outline>
</glyph>
<glyph name="Q" format="2">
  <advance width="721"/>
  <unicode hex="0051"/>
  <outline>
    <contour>
      <point x="292" y="683" type="curve" smooth="yes"/>
      <point x="58" y="644"/>
      <point x="40" y="435"/>
      <point x="40" y="312" type="curve" smooth="yes"/>
      <point x="40" y="194"/>
      <point x="134" y="4"/>
      <point x="391" y="4" type="curve" smooth="yes"/>
      <point x="632" y="4"/>
      <point x="681" y="254"/>
      <point x="681" y="363" type="curve" smooth="yes"/>
      <point x="681" y="536"/>
      <point x="516" y="718"/>
      <point x="347" y="647" type="curve" smooth="yes"/>
      <point x="201" y="585"/>
      <point x="196" y="391"/>
      <point x="312" y="235" type="curve" smooth="yes"/>
      <point x="443" y="61"/>
      <point x="578" y="13"/>
      <point x="600" y="-112" type="curve"/>
      <point x="602" y="-126"/>
      <point x="615" y="-135"/>
      <point x="629" y="-133" type="curve"/>
      <point x="643" y="-130"/>
      <point x="652" y="-118"/>
      <point x="650" y="-104" type="curve" smooth="yes"/>
      <point x="625" y="44"/>
      <point x="481" y="94"/>
      <point x="352" y="265" type="curve" smooth="yes"/>
      <point x="259" y="389"/>
      <point x="249" y="551"/>
      <point x="367" y="601" type="curve" smooth="yes"/>
      <point x="498" y="656"/>
      <point x="631" y="504"/>
      <point x="631" y="363" type="curve" smooth="yes"/>
      <point x="631" y="252"/>
      <point x="582" y="54"/>
      <point x="391" y="54" type="curve" smooth="yes"/>
      <point x="166" y="54"/>
      <point x="90" y="216"/>
      <point x="90" y="312" type="curve" smooth="yes"/>
      <point x="90" y="437"/>
      <point x="110" y="601"/>
      <point x="300" y="633" type="curve" smooth="yes"/>
      <point x="314" y="635"/>
      <point x="323" y="648"/>
      <point x="321" y="662" type="curve"/>
      <point x="318" y="676"/>
      <point x="306" y="685"/>
    </contour>
  </outline>
</glyph>
<glyph name="R" format="2">
  <advance width="575"/>
  <unicode hex="0052"/>
  <outline>
    <contour>
      <point x="91" y="12" type="curve" smooth="yes"/>
      <point x="103" y="90"/>
      <point x="116" y="435"/>
      <point x="116" y="523" type="curve" smooth="yes"/>
      <point x="116" y="537"/>
      <point x="105" y="548"/>
      <point x="91" y="548" type="curve" smooth="yes"/>
      <point x="77" y="548"/>
      <point x="66" y="537"/>
      <point x="66" y="523" type="curve" smooth="yes"/>
      <point x="66" y="433"/>
      <point x="53" y="94"/>
      <point x="41" y="20" type="curve" smooth="yes"/>
      <point x="39" y="6"/>
      <point x="48" y="-7"/>
      <point x="62" y="-9" type="curve" smooth="yes"/>
      <point x="76" y="-11"/>
      <point x="89" y="-2"/>
    </contour>
    <contour>
      <point x="80" y="566" type="curve"/>
      <point x="123" y="594"/>
      <point x="304" y="687"/>
      <point x="378" y="608" type="curve" smooth="yes"/>
      <point x="473" y="504"/>
      <point x="291" y="372"/>
      <point x="207" y="330" type="curve"/>
      <point x="192" y="323"/>
      <point x="188" y="303"/>
      <point x="200" y="291" type="curve"/>
      <point x="278" y="205"/>
      <point x="453" y="17"/>
      <point x="499" y="-6" type="curve" smooth="yes"/>
      <point x="511" y="-12"/>
      <point x="525" y="-8"/>
      <point x="532" y="5" type="curve"/>
      <point x="538" y="17"/>
      <point x="534" y="31"/>
      <point x="521" y="38" type="curve"/>
      <point x="501" y="48"/>
      <point x="410" y="135"/>
      <point x="258" y="301" type="curve"/>
      <point x="351" y="354"/>
      <point x="539" y="506"/>
      <point x="414" y="642" type="curve" smooth="yes"/>
      <point x="308" y="756"/>
      <point x="87" y="631"/>
      <point x="52" y="608" type="curve"/>
      <point x="41" y="600"/>
      <point x="37" y="585"/>
      <point x="45" y="573" type="curve" smooth="yes"/>
      <point x="52" y="562"/>
      <point x="68" y="559"/>
    </contour>
  </outline>
</glyph>
<glyph name="S" format="2">
  <advance width="618"/>
  <unicode hex="0053"/>
  <outline>
    <contour>
      <point x="573" y="570" type="curve" smooth="yes"/>
      <point x="505" y="666"/>
      <point x="442" y="695"/>
      <point x="361" y="695" type="curve" smooth="yes"/>
      <point x="232" y="695"/>
      <point x="161" y="595"/>
      <point x="179" y="508" type="curve" smooth="yes"/>
      <point x="211" y="358"/>
      <point x="400" y="327"/>
      <point x="475" y="228" type="curve" smooth="yes"/>
      <point x="521" y="167"/>
      <point x="478" y="49"/>
      <point x="301" y="49" type="curve" smooth="yes"/>
      <point x="209" y="49"/>
      <point x="112" y="116"/>
      <point x="89" y="165" type="curve"/>
      <point x="82" y="177"/>
      <point x="68" y="183"/>
      <point x="55" y="177" type="curve"/>
      <point x="43" y="170"/>
      <point x="37" y="156"/>
      <point x="43" y="143" type="curve" smooth="yes"/>
      <point x="76" y="76"/>
      <point x="191" y="-1"/>
      <point x="301" y="-1" type="curve" smooth="yes"/>
      <point x="524" y="-1"/>
      <point x="585" y="167"/>
      <point x="515" y="258" type="curve" smooth="yes"/>
      <point x="431" y="368"/>
      <point x="254" y="395"/>
      <point x="227" y="518" type="curve" smooth="yes"/>
      <point x="216" y="569"/>
      <point x="260" y="645"/>
      <point x="361" y="645" type="curve" smooth="yes"/>
      <point x="424" y="645"/>
      <point x="473" y="626"/>
      <point x="533" y="542" type="curve"/>
      <point x="541" y="530"/>
      <point x="556" y="528"/>
      <point x="567" y="536" type="curve"/>
      <point x="579" y="544"/>
      <point x="581" y="559"/>
    </contour>
  </outline>
</glyph>
<glyph name="T" format="2">
  <advance width="821"/>
  <unicode hex="0054"/>
  <outline>
    <contour>
      <point x="385" y="656" type="curve" smooth="yes"/>
      <point x="385" y="200"/>
      <point x="385" y="155"/>
      <point x="405" y="11" type="curve" smooth="yes"/>
      <point x="407" y="-3"/>
      <point x="420" y="-13"/>
      <point x="433" y="-11" type="curve" smooth="yes"/>
      <point x="447" y="-9"/>
      <point x="457" y="4"/>
      <point x="455" y="17" type="curve" smooth="yes"/>
      <point x="435" y="159"/>
      <point x="435" y="200"/>
      <point x="435" y="656" type="curve" smooth="yes"/>
      <point x="435" y="670"/>
      <point x="424" y="681"/>
      <point x="410" y="681" type="curve" smooth="yes"/>
      <point x="396" y="681"/>
      <point x="385" y="670"/>
    </contour>
    <contour>
      <point x="65" y="623" type="curve" smooth="yes"/>
      <point x="146" y="623"/>
      <point x="504" y="662"/>
      <point x="751" y="623" type="curve" smooth="yes"/>
      <point x="765" y="621"/>
      <point x="778" y="630"/>
      <point x="780" y="644" type="curve" smooth="yes"/>
      <point x="782" y="658"/>
      <point x="773" y="671"/>
      <point x="759" y="673" type="curve" smooth="yes"/>
      <point x="508" y="712"/>
      <point x="136" y="673"/>
      <point x="65" y="673" type="curve" smooth="yes"/>
      <point x="51" y="673"/>
      <point x="40" y="662"/>
      <point x="40" y="648" type="curve" smooth="yes"/>
      <point x="40" y="634"/>
      <point x="51" y="623"/>
    </contour>
  </outline>
</glyph>
<glyph name="U" format="2">
  <advance width="703"/>
  <unicode hex="0055"/>
  <outline>
    <contour>
      <point x="82" y="672" type="curve"/>
      <point x="-6" y="495"/>
      <point x="37" y="-1"/>
      <point x="289" y="-1" type="curve" smooth="yes"/>
      <point x="529" y="-1"/>
      <point x="663" y="292"/>
      <point x="663" y="661" type="curve" smooth="yes"/>
      <point x="663" y="675"/>
      <point x="652" y="686"/>
      <point x="638" y="686" type="curve" smooth="yes"/>
      <point x="624" y="686"/>
      <point x="613" y="675"/>
      <point x="613" y="661" type="curve" smooth="yes"/>
      <point x="613" y="330"/>
      <point x="500" y="49"/>
      <point x="289" y="49" type="curve" smooth="yes"/>
      <point x="90" y="49"/>
      <point x="49" y="496"/>
      <point x="126" y="650" type="curve" smooth="yes"/>
      <point x="132" y="662"/>
      <point x="128" y="676"/>
      <point x="115" y="683" type="curve"/>
      <point x="103" y="689"/>
      <point x="88" y="685"/>
    </contour>
  </outline>
</glyph>
<glyph name="V" format="2">
  <advance width="651"/>
  <unicode hex="0056"/>
  <outline>
    <contour>
      <point x="41" y="657" type="curve"/>
      <point x="96" y="369"/>
      <point x="169" y="164"/>
      <point x="247" y="2" type="curve" smooth="yes"/>
      <point x="256" y="-16"/>
      <point x="282" y="-17"/>
      <point x="292" y="0" type="curve" smooth="yes"/>
      <point x="392" y="169"/>
      <point x="500" y="458"/>
      <point x="607" y="650" type="curve" smooth="yes"/>
      <point x="614" y="662"/>
      <point x="609" y="677"/>
      <point x="597" y="684" type="curve" smooth="yes"/>
      <point x="585" y="691"/>
      <point x="570" y="686"/>
      <point x="563" y="674" type="curve" smooth="yes"/>
      <point x="462" y="494"/>
      <point x="364" y="237"/>
      <point x="272" y="68" type="curve"/>
      <point x="206" y="212"/>
      <point x="141" y="405"/>
      <point x="91" y="667" type="curve"/>
      <point x="89" y="680"/>
      <point x="75" y="690"/>
      <point x="61" y="687" type="curve"/>
      <point x="48" y="685"/>
      <point x="39" y="671"/>
    </contour>
  </outline>
</glyph>
<glyph name="W" format="2">
  <advance width="959"/>
  <unicode hex="0057"/>
  <outline>
    <contour>
      <point x="40" y="662" type="curve" smooth="yes"/>
      <point x="40" y="589"/>
      <point x="58" y="-1"/>
      <point x="147" y="-1" type="curve" smooth="yes"/>
      <point x="217" y="-1"/>
      <point x="340" y="211"/>
      <point x="455" y="381" type="curve"/>
      <point x="504" y="255"/>
      <point x="607" y="41"/>
      <point x="642" y="6" type="curve"/>
      <point x="654" y="-5"/>
      <point x="674" y="-3"/>
      <point x="682" y="12" type="curve" smooth="yes"/>
      <point x="781" y="194"/>
      <point x="885" y="558"/>
      <point x="917" y="654" type="curve" smooth="yes"/>
      <point x="921" y="667"/>
      <point x="914" y="681"/>
      <point x="901" y="686" type="curve"/>
      <point x="888" y="690"/>
      <point x="873" y="683"/>
      <point x="869" y="670" type="curve"/>
      <point x="835" y="569"/>
      <point x="745" y="252"/>
      <point x="657" y="72" type="curve"/>
      <point x="610" y="151"/>
      <point x="520" y="343"/>
      <point x="486" y="443" type="curve" smooth="yes"/>
      <point x="480" y="462"/>
      <point x="454" y="466"/>
      <point x="442" y="450" type="curve" smooth="yes"/>
      <point x="389" y="379"/>
      <point x="224" y="100"/>
      <point x="154" y="53" type="curve"/>
      <point x="121" y="124"/>
      <point x="90" y="502"/>
      <point x="90" y="662" type="curve" smooth="yes"/>
      <point x="90" y="676"/>
      <point x="79" y="687"/>
      <point x="65" y="687" type="curve" smooth="yes"/>
      <point x="51" y="687"/>
      <point x="40" y="676"/>
    </contour>
  </outline>
</glyph>
<glyph name="X" format="2">
  <advance width="726"/>
  <unicode hex="0058"/>
  <outline>
    <contour>
      <point x="77" y="644" type="curve"/>
      <point x="85" y="642"/>
      <point x="563" y="48"/>
      <point x="583" y="10" type="curve" smooth="yes"/>
      <point x="590" y="-3"/>
      <point x="604" y="-7"/>
      <point x="616" y="-1" type="curve"/>
      <point x="629" y="6"/>
      <point x="633" y="20"/>
      <point x="627" y="32" type="curve" smooth="yes"/>
      <point x="608" y="68"/>
      <point x="123" y="682"/>
      <point x="93" y="692" type="curve"/>
      <point x="79" y="696"/>
      <point x="65" y="689"/>
      <point x="61" y="676" type="curve" smooth="yes"/>
      <point x="57" y="662"/>
      <point x="64" y="648"/>
    </contour>
    <contour>
      <point x="641" y="685" type="curve"/>
      <point x="496" y="522"/>
      <point x="82" y="93"/>
      <point x="45" y="35" type="curve" smooth="yes"/>
      <point x="37" y="23"/>
      <point x="41" y="7"/>
      <point x="52" y="0" type="curve" smooth="yes"/>
      <point x="64" y="-8"/>
      <point x="79" y="-4"/>
      <point x="87" y="7" type="curve"/>
      <point x="123" y="61"/>
      <point x="528" y="482"/>
      <point x="679" y="651" type="curve"/>
      <point x="688" y="662"/>
      <point x="687" y="678"/>
      <point x="677" y="687" type="curve" smooth="yes"/>
      <point x="666" y="697"/>
      <point x="651" y="695"/>
    </contour>
  </outline>
</glyph>
<glyph name="Y" format="2">
  <advance width="537"/>
  <unicode hex="0059"/>
  <outline>
    <contour>
      <point x="49" y="651" type="curve"/>
      <point x="56" y="644"/>
      <point x="180" y="326"/>
      <point x="195" y="297" type="curve"/>
      <point x="201" y="284"/>
      <point x="216" y="280"/>
      <point x="228" y="286" type="curve"/>
      <point x="241" y="293"/>
      <point x="245" y="307"/>
      <point x="239" y="319" type="curve" smooth="yes"/>
      <point x="215" y="365"/>
      <point x="104" y="668"/>
      <point x="83" y="687" type="curve"/>
      <point x="73" y="697"/>
      <point x="57" y="696"/>
      <point x="48" y="686" type="curve"/>
      <point x="38" y="676"/>
      <point x="39" y="660"/>
    </contour>
    <contour>
      <point x="452" y="686" type="curve"/>
      <point x="302" y="518"/>
      <point x="101" y="94"/>
      <point x="64" y="38" type="curve"/>
      <point x="57" y="26"/>
      <point x="60" y="11"/>
      <point x="71" y="3" type="curve"/>
      <point x="83" y="-4"/>
      <point x="98" y="-1"/>
      <point x="106" y="10" type="curve"/>
      <point x="143" y="67"/>
      <point x="344" y="490"/>
      <point x="490" y="652" type="curve"/>
      <point x="499" y="663"/>
      <point x="498" y="679"/>
      <point x="488" y="688" type="curve" smooth="yes"/>
      <point x="477" y="698"/>
      <point x="462" y="696"/>
    </contour>
  </outline>
</glyph>
<glyph name="Z" format="2">
  <advance width="637"/>
  <unicode hex="005A"/>
  <outline>
    <contour>
      <point x="94" y="643" type="curve" smooth="yes"/>
      <point x="280" y="600"/>
      <point x="402" y="603"/>
      <point x="514" y="616" type="curve"/>
      <point x="359" y="420"/>
      <point x="100" y="101"/>
      <point x="48" y="49" type="curve" smooth="yes"/>
      <point x="32" y="33"/>
      <point x="44" y="6"/>
      <point x="66" y="6" type="curve" smooth="yes"/>
      <point x="230" y="6"/>
      <point x="489" y="1"/>
      <point x="557" y="-12" type="curve" smooth="yes"/>
      <point x="571" y="-15"/>
      <point x="585" y="-5"/>
      <point x="587" y="8" type="curve"/>
      <point x="590" y="22"/>
      <point x="580" y="35"/>
      <point x="567" y="38" type="curve"/>
      <point x="498" y="51"/>
      <point x="272" y="55"/>
      <point x="122" y="56" type="curve"/>
      <point x="214" y="161"/>
      <point x="464" y="471"/>
      <point x="591" y="634" type="curve"/>
      <point x="605" y="651"/>
      <point x="590" y="677"/>
      <point x="567" y="674" type="curve" smooth="yes"/>
      <point x="442" y="656"/>
      <point x="318" y="642"/>
      <point x="106" y="691" type="curve" smooth="yes"/>
      <point x="92" y="694"/>
      <point x="79" y="686"/>
      <point x="76" y="673" type="curve" smooth="yes"/>
      <point x="73" y="659"/>
      <point x="81" y="646"/>
    </contour>
  </outline>
</glyph>
<glyph name="a" format="2">
  <advance width="773"/>
  <unicode hex="0061"/>
  <outline>
    <contour>
      <point x="489" y="458" type="curve" smooth="yes"/>
      <point x="399" y="614"/>
      <point x="118" y="604"/>
      <point x="53" y="368" type="curve" smooth="yes"/>
      <point x="-10" y="135"/>
      <point x="169" y="-46"/>
      <point x="387" y="8" type="curve" smooth="yes"/>
      <point x="677" y="79"/>
      <point x="687" y="538"/>
      <point x="567" y="544" type="curve" smooth="yes"/>
      <point x="466" y="549"/>
      <point x="506" y="190"/>
      <point x="542" y="114" type="curve" smooth="yes"/>
      <point x="573" y="49"/>
      <point x="635" y="-12"/>
      <point x="708" y="-12" type="curve" smooth="yes"/>
      <point x="722" y="-12"/>
      <point x="733" y="-1"/>
      <point x="733" y="13" type="curve" smooth="yes"/>
      <point x="733" y="27"/>
      <point x="722" y="38"/>
      <point x="708" y="38" type="curve" smooth="yes"/>
      <point x="662" y="39"/>
      <point x="614" y="82"/>
      <point x="588" y="136" type="curve" smooth="yes"/>
      <point x="557" y="200"/>
      <point x="541" y="426"/>
      <point x="565" y="491" type="curve"/>
      <point x="567" y="491"/>
      <point x="566" y="491"/>
      <point x="568" y="491" type="curve"/>
      <point x="614" y="448"/>
      <point x="602" y="112"/>
      <point x="375" y="56" type="curve" smooth="yes"/>
      <point x="193" y="12"/>
      <point x="48" y="159"/>
      <point x="101" y="354" type="curve" smooth="yes"/>
      <point x="154" y="547"/>
      <point x="377" y="552"/>
      <point x="445" y="434" type="curve" smooth="yes"/>
      <point x="452" y="422"/>
      <point x="467" y="417"/>
      <point x="479" y="424" type="curve" smooth="yes"/>
      <point x="491" y="431"/>
      <point x="496" y="446"/>
    </contour>
  </outline>
</glyph>
<glyph name="b" format="2">
  <advance width="584"/>
  <unicode hex="0062"/>
  <outline>
    <contour>
      <point x="205" y="675" type="curve" smooth="yes"/>
      <point x="169" y="394"/>
      <point x="163" y="260"/>
      <point x="130" y="122" type="curve"/>
      <point x="178" y="114" type="line"/>
      <point x="185" y="228"/>
      <point x="251" y="377"/>
      <point x="390" y="365" type="curve" smooth="yes"/>
      <point x="513" y="354"/>
      <point x="549" y="112"/>
      <point x="373" y="54" type="curve" smooth="yes"/>
      <point x="257" y="15"/>
      <point x="139" y="65"/>
      <point x="84" y="120" type="curve" smooth="yes"/>
      <point x="74" y="130"/>
      <point x="58" y="130"/>
      <point x="48" y="120" type="curve" smooth="yes"/>
      <point x="38" y="110"/>
      <point x="38" y="94"/>
      <point x="48" y="84" type="curve" smooth="yes"/>
      <point x="114" y="18"/>
      <point x="251" y="-39"/>
      <point x="389" y="6" type="curve" smooth="yes"/>
      <point x="615" y="80"/>
      <point x="573" y="399"/>
      <point x="394" y="415" type="curve" smooth="yes"/>
      <point x="205" y="431"/>
      <point x="136" y="230"/>
      <point x="129" y="118" type="curve" smooth="yes"/>
      <point x="127" y="87"/>
      <point x="171" y="80"/>
      <point x="178" y="110" type="curve" smooth="yes"/>
      <point x="213" y="252"/>
      <point x="219" y="392"/>
      <point x="255" y="669" type="curve" smooth="yes"/>
      <point x="257" y="683"/>
      <point x="247" y="695"/>
      <point x="233" y="697" type="curve" smooth="yes"/>
      <point x="219" y="699"/>
      <point x="207" y="689"/>
    </contour>
  </outline>
</glyph>
<glyph name="c" format="2">
  <advance width="465"/>
  <unicode hex="0063"/>
  <outline>
    <contour>
      <point x="425" y="512" type="curve" smooth="yes"/>
      <point x="425" y="582"/>
      <point x="217" y="678"/>
      <point x="86" y="459" type="curve" smooth="yes"/>
      <point x="-47" y="239"/>
      <point x="131" y="-82"/>
      <point x="401" y="6" type="curve" smooth="yes"/>
      <point x="414" y="10"/>
      <point x="421" y="25"/>
      <point x="417" y="38" type="curve"/>
      <point x="412" y="51"/>
      <point x="398" y="58"/>
      <point x="385" y="54" type="curve" smooth="yes"/>
      <point x="157" y="-21"/>
      <point x="21" y="256"/>
      <point x="128" y="433" type="curve" smooth="yes"/>
      <point x="230" y="603"/>
      <point x="367" y="536"/>
      <point x="375" y="510" type="curve" smooth="yes"/>
      <point x="378" y="500"/>
      <point x="385" y="487"/>
      <point x="400" y="487" type="curve" smooth="yes"/>
      <point x="414" y="487"/>
      <point x="425" y="498"/>
    </contour>
  </outline>
</glyph>
<glyph name="d" format="2">
  <advance width="669"/>
  <unicode hex="0064"/>
  <outline>
    <contour>
      <point x="436" y="317" type="curve" smooth="yes"/>
      <point x="380" y="456"/>
      <point x="240" y="467"/>
      <point x="142" y="405" type="curve" smooth="yes"/>
      <point x="-17" y="304"/>
      <point x="9" y="-12"/>
      <point x="234" y="-13" type="curve" smooth="yes"/>
      <point x="413" y="-14"/>
      <point x="498" y="109"/>
      <point x="508" y="323" type="curve" smooth="yes"/>
      <point x="514" y="439"/>
      <point x="506" y="400"/>
      <point x="537" y="665" type="curve" smooth="yes"/>
      <point x="541" y="698"/>
      <point x="492" y="704"/>
      <point x="487" y="672" type="curve" smooth="yes"/>
      <point x="411" y="151"/>
      <point x="527" y="53"/>
      <point x="589" y="5" type="curve"/>
      <point x="600" y="-3"/>
      <point x="615" y="-1"/>
      <point x="624" y="10" type="curve"/>
      <point x="632" y="21"/>
      <point x="630" y="36"/>
      <point x="619" y="45" type="curve" smooth="yes"/>
      <point x="573" y="81"/>
      <point x="462" y="160"/>
      <point x="537" y="664" type="curve"/>
      <point x="487" y="671" type="line"/>
      <point x="456" y="404"/>
      <point x="464" y="441"/>
      <point x="458" y="325" type="curve" smooth="yes"/>
      <point x="448" y="123"/>
      <point x="375" y="36"/>
      <point x="234" y="37" type="curve" smooth="yes"/>
      <point x="62" y="38"/>
      <point x="49" y="288"/>
      <point x="168" y="363" type="curve" smooth="yes"/>
      <point x="248" y="413"/>
      <point x="348" y="400"/>
      <point x="390" y="299" type="curve"/>
      <point x="395" y="286"/>
      <point x="410" y="280"/>
      <point x="422" y="285" type="curve"/>
      <point x="435" y="290"/>
      <point x="441" y="305"/>
    </contour>
  </outline>
</glyph>
<glyph name="e" format="2">
  <advance width="459"/>
  <unicode hex="0065"/>
  <outline>
    <contour>
      <point x="71" y="260" type="curve" smooth="yes"/>
      <point x="213" y="226"/>
      <point x="373" y="302"/>
      <point x="395" y="411" type="curve" smooth="yes"/>
      <point x="417" y="524"/>
      <point x="302" y="612"/>
      <point x="192" y="528" type="curve" smooth="yes"/>
      <point x="45" y="416"/>
      <point x="-132" y="-1"/>
      <point x="394" y="-3" type="curve" smooth="yes"/>
      <point x="408" y="-3"/>
      <point x="419" y="8"/>
      <point x="419" y="22" type="curve" smooth="yes"/>
      <point x="419" y="36"/>
      <point x="408" y="47"/>
      <point x="394" y="47" type="curve" smooth="yes"/>
      <point x="-95" y="49"/>
      <point x="129" y="418"/>
      <point x="222" y="488" type="curve" smooth="yes"/>
      <point x="296" y="544"/>
      <point x="359" y="488"/>
      <point x="345" y="421" type="curve" smooth="yes"/>
      <point x="331" y="350"/>
      <point x="209" y="277"/>
      <point x="83" y="308" type="curve"/>
      <point x="69" y="311"/>
      <point x="56" y="303"/>
      <point x="53" y="290" type="curve"/>
      <point x="49" y="276"/>
      <point x="58" y="263"/>
    </contour>
  </outline>
</glyph>
<glyph name="f" format="2">
  <advance width="368"/>
  <unicode hex="0066"/>
  <outline>
    <contour>
      <point x="294" y="722" type="curve"/>
      <point x="140" y="670"/>
      <point x="140" y="528"/>
      <point x="138" y="305" type="curve" smooth="yes"/>
      <point x="136" y="118"/>
      <point x="138" y="201"/>
      <point x="134" y="5" type="curve" smooth="yes"/>
      <point x="134" y="-9"/>
      <point x="145" y="-21"/>
      <point x="158" y="-21" type="curve" smooth="yes"/>
      <point x="172" y="-21"/>
      <point x="184" y="-10"/>
      <point x="184" y="3" type="curve" smooth="yes"/>
      <point x="188" y="201"/>
      <point x="186" y="118"/>
      <point x="188" y="305" type="curve" smooth="yes"/>
      <point x="190" y="541"/>
      <point x="196" y="635"/>
      <point x="310" y="674" type="curve"/>
      <point x="323" y="678"/>
      <point x="330" y="693"/>
      <point x="326" y="706" type="curve"/>
      <point x="321" y="719"/>
      <point x="307" y="726"/>
    </contour>
    <contour>
      <point x="65" y="342" type="curve" smooth="yes"/>
      <point x="158" y="342"/>
      <point x="218" y="337"/>
      <point x="286" y="342" type="curve" smooth="yes"/>
      <point x="300" y="343"/>
      <point x="310" y="355"/>
      <point x="309" y="369" type="curve" smooth="yes"/>
      <point x="308" y="383"/>
      <point x="296" y="393"/>
      <point x="282" y="392" type="curve" smooth="yes"/>
      <point x="216" y="387"/>
      <point x="164" y="392"/>
      <point x="65" y="392" type="curve" smooth="yes"/>
      <point x="51" y="392"/>
      <point x="40" y="381"/>
      <point x="40" y="367" type="curve" smooth="yes"/>
      <point x="40" y="353"/>
      <point x="51" y="342"/>
    </contour>
  </outline>
</glyph>
<glyph name="g" format="2">
  <advance width="576"/>
  <unicode hex="0067"/>
  <outline>
    <contour>
      <point x="484" y="419" type="curve" smooth="yes"/>
      <point x="202" y="702"/>
      <point x="-129" y="228"/>
      <point x="140" y="47" type="curve" smooth="yes"/>
      <point x="297" y="-58"/>
      <point x="474" y="56"/>
      <point x="534" y="331" type="curve"/>
      <point x="485" y="337" type="line"/>
      <point x="471" y="58"/>
      <point x="497" y="-27"/>
      <point x="426" y="-157" type="curve" smooth="yes"/>
      <point x="343" y="-307"/>
      <point x="156" y="-281"/>
      <point x="115" y="-161" type="curve"/>
      <point x="111" y="-148"/>
      <point x="96" y="-141"/>
      <point x="83" y="-145" type="curve"/>
      <point x="70" y="-150"/>
      <point x="63" y="-164"/>
      <point x="67" y="-177" type="curve" smooth="yes"/>
      <point x="121" y="-338"/>
      <point x="366" y="-370"/>
      <point x="470" y="-181" type="curve" smooth="yes"/>
      <point x="549" y="-39"/>
      <point x="521" y="60"/>
      <point x="535" y="335" type="curve" smooth="yes"/>
      <point x="537" y="365"/>
      <point x="493" y="371"/>
      <point x="486" y="341" type="curve" smooth="yes"/>
      <point x="439" y="124"/>
      <point x="304" y="-3"/>
      <point x="168" y="89" type="curve" smooth="yes"/>
      <point x="-39" y="228"/>
      <point x="217" y="615"/>
      <point x="448" y="383" type="curve"/>
      <point x="457" y="373"/>
      <point x="474" y="373"/>
      <point x="484" y="383" type="curve"/>
      <point x="493" y="393"/>
      <point x="494" y="409"/>
    </contour>
  </outline>
</glyph>
<glyph name="h" format="2">
  <advance width="504"/>
  <unicode hex="0068"/>
  <outline>
    <contour>
      <point x="97" y="684" type="curve"/>
      <point x="79" y="510"/>
      <point x="59" y="225"/>
      <point x="41" y="18" type="curve" smooth="yes"/>
      <point x="38" y="-14"/>
      <point x="86" y="-20"/>
      <point x="91" y="12" type="curve" smooth="yes"/>
      <point x="107" y="125"/>
      <point x="134" y="362"/>
      <point x="254" y="362" type="curve" smooth="yes"/>
      <point x="413" y="362"/>
      <point x="255" y="10"/>
      <point x="435" y="-9" type="curve"/>
      <point x="449" y="-10"/>
      <point x="461" y="0"/>
      <point x="463" y="13" type="curve"/>
      <point x="464" y="27"/>
      <point x="454" y="39"/>
      <point x="441" y="41" type="curve"/>
      <point x="325" y="53"/>
      <point x="470" y="412"/>
      <point x="254" y="412" type="curve" smooth="yes"/>
      <point x="89" y="412"/>
      <point x="60" y="149"/>
      <point x="41" y="20" type="curve"/>
      <point x="91" y="14" type="line"/>
      <point x="109" y="223"/>
      <point x="129" y="506"/>
      <point x="147" y="678" type="curve"/>
      <point x="148" y="692"/>
      <point x="138" y="704"/>
      <point x="125" y="706" type="curve"/>
      <point x="111" y="707"/>
      <point x="99" y="697"/>
    </contour>
  </outline>
</glyph>
<glyph name="i" format="2">
  <advance width="170"/>
  <unicode hex="0069"/>
  <outline>
    <contour>
      <point x="68" y="511" type="curve"/>
      <point x="36" y="392"/>
      <point x="21" y="90"/>
      <point x="85" y="10" type="curve"/>
      <point x="93" y="-1"/>
      <point x="110" y="-3"/>
      <point x="121" y="6" type="curve" smooth="yes"/>
      <point x="131" y="14"/>
      <point x="133" y="31"/>
      <point x="125" y="42" type="curve"/>
      <point x="78" y="100"/>
      <point x="84" y="378"/>
      <point x="116" y="499" type="curve"/>
      <point x="120" y="512"/>
      <point x="112" y="525"/>
      <point x="98" y="529" type="curve"/>
      <point x="85" y="532"/>
      <point x="71" y="525"/>
    </contour>
    <contour>
      <point x="60" y="660" type="curve" smooth="yes"/>
      <point x="60" y="608"/>
      <point x="129" y="607"/>
      <point x="129" y="660" type="curve" smooth="yes"/>
      <point x="129" y="674"/>
      <point x="118" y="685"/>
      <point x="104" y="685" type="curve" smooth="yes"/>
      <point x="90" y="685"/>
      <point x="79" y="674"/>
      <point x="79" y="660" type="curve"/>
      <point x="110" y="660" type="line"/>
      <point x="110" y="674"/>
      <point x="99" y="685"/>
      <point x="85" y="685" type="curve" smooth="yes"/>
      <point x="71" y="685"/>
      <point x="60" y="674"/>
    </contour>
  </outline>
</glyph>
<glyph name="j" format="2">
  <advance width="343"/>
  <unicode hex="006A"/>
  <outline>
    <contour>
      <point x="236" y="522" type="line"/>
      <point x="236" y="330.31"/>
      <point x="232.948" y="142.222"/>
      <point x="221.206" y="52.2027" type="curve"/>
      <point x="221.202" y="52.1718" type="line"/>
      <point x="210.223" y="-33.664"/>
      <point x="186.552" y="-64.5992"/>
      <point x="163.908" y="-72.3459" type="curve"/>
      <point x="164.094" y="-72.2829" type="line"/>
      <point x="136.313" y="-81.5432"/>
      <point x="104.205" y="-75.1105"/>
      <point x="83.3534" y="-55.0039" type="curve" smooth="yes"/>
      <point x="73.3835" y="-45.3901"/>
      <point x="57.6177" y="-45.6768"/>
      <point x="48.0039" y="-55.6466" type="curve" smooth="yes"/>
      <point x="38.3901" y="-65.6165"/>
      <point x="38.6768" y="-81.3823"/>
      <point x="48.6466" y="-90.9961" type="curve" smooth="yes"/>
      <point x="83.7953" y="-124.889"/>
      <point x="135.687" y="-134.457"/>
      <point x="179.906" y="-119.717" type="curve"/>
      <point x="180.092" y="-119.654" type="line"/>
      <point x="233.448" y="-101.401"/>
      <point x="259.777" y="-40.336"/>
      <point x="270.798" y="45.8282" type="curve"/>
      <point x="270.794" y="45.7973" type="line"/>
      <point x="283.052" y="139.778"/>
      <point x="286" y="331.69"/>
      <point x="286" y="522" type="curve" smooth="yes"/>
      <point x="286" y="535.85"/>
      <point x="274.85" y="547"/>
      <point x="261" y="547" type="curve" smooth="yes"/>
      <point x="247.15" y="547"/>
      <point x="236" y="535.85"/>
      <point x="236" y="522" type="curve"/>
    </contour>
    <contour>
      <point x="262.439" y="658.762" type="curve"/>
      <point x="255.806" y="639.492" type="line"/>
      <point x="262.182" y="627.197"/>
      <point x="277.213" y="622.431"/>
      <point x="289.508" y="628.806" type="curve" smooth="yes"/>
      <point x="301.803" y="635.182"/>
      <point x="306.569" y="650.213"/>
      <point x="300.194" y="662.508" type="curve" smooth="yes"/>
      <point x="261.846" y="736.464"/>
      <point x="167.314" y="621.494"/>
      <point x="255.561" y="609.238" type="curve" smooth="yes"/>
      <point x="269.279" y="607.332"/>
      <point x="281.857" y="616.842"/>
      <point x="283.762" y="630.561" type="curve" smooth="yes"/>
      <point x="285.668" y="644.279"/>
      <point x="276.158" y="656.857"/>
    </contour>
  </outline>
</glyph>
<glyph name="k" format="2">
  <advance width="432"/>
  <unicode hex="006B"/>
  <outline>
    <contour>
      <point x="98" y="685" type="curve" smooth="yes"/>
      <point x="75" y="448"/>
      <point x="55" y="143"/>
      <point x="41" y="18" type="curve"/>
      <point x="91" y="13" type="line"/>
      <point x="96" y="77"/>
      <point x="102" y="131"/>
      <point x="138" y="193" type="curve"/>
      <point x="171" y="101"/>
      <point x="234" y="-25"/>
      <point x="371" y="2" type="curve"/>
      <point x="384" y="5"/>
      <point x="394" y="18"/>
      <point x="391" y="32" type="curve"/>
      <point x="389" y="45"/>
      <point x="375" y="55"/>
      <point x="361" y="52" type="curve" smooth="yes"/>
      <point x="260" y="32"/>
      <point x="209" y="129"/>
      <point x="169" y="257" type="curve" smooth="yes"/>
      <point x="163" y="277"/>
      <point x="137" y="281"/>
      <point x="125" y="265" type="curve" smooth="yes"/>
      <point x="57" y="171"/>
      <point x="48" y="101"/>
      <point x="41" y="17" type="curve" smooth="yes"/>
      <point x="38" y="-16"/>
      <point x="87" y="-20"/>
      <point x="91" y="12" type="curve" smooth="yes"/>
      <point x="105" y="137"/>
      <point x="125" y="448"/>
      <point x="148" y="681" type="curve" smooth="yes"/>
      <point x="149" y="694"/>
      <point x="139" y="707"/>
      <point x="125" y="708" type="curve" smooth="yes"/>
      <point x="112" y="709"/>
      <point x="99" y="699"/>
    </contour>
    <contour>
      <point x="355" y="470" type="curve" smooth="yes"/>
      <point x="271" y="474"/>
      <point x="205" y="415"/>
      <point x="126" y="265" type="curve" smooth="yes"/>
      <point x="119" y="252"/>
      <point x="124" y="237"/>
      <point x="136" y="231" type="curve"/>
      <point x="149" y="224"/>
      <point x="164" y="229"/>
      <point x="170" y="241" type="curve" smooth="yes"/>
      <point x="249" y="391"/>
      <point x="301" y="422"/>
      <point x="353" y="420" type="curve"/>
      <point x="367" y="419"/>
      <point x="378" y="430"/>
      <point x="379" y="444" type="curve" smooth="yes"/>
      <point x="380" y="458"/>
      <point x="369" y="469"/>
    </contour>
  </outline>
</glyph>
<glyph name="l" format="2">
  <advance width="149"/>
  <unicode hex="006C"/>
  <outline>
    <contour>
      <point x="58" y="680" type="curve" smooth="yes"/>
      <point x="40" y="469"/>
      <point x="31" y="197"/>
      <point x="53" y="14" type="curve" smooth="yes"/>
      <point x="55" y="0"/>
      <point x="67" y="-9"/>
      <point x="81" y="-8" type="curve"/>
      <point x="95" y="-6"/>
      <point x="105" y="6"/>
      <point x="103" y="20" type="curve" smooth="yes"/>
      <point x="82" y="197"/>
      <point x="90" y="465"/>
      <point x="108" y="676" type="curve" smooth="yes"/>
      <point x="109" y="690"/>
      <point x="99" y="702"/>
      <point x="85" y="703" type="curve" smooth="yes"/>
      <point x="71" y="704"/>
      <point x="59" y="694"/>
    </contour>
  </outline>
</glyph>
<glyph name="m" format="2">
  <advance width="1049"/>
  <unicode hex="006D"/>
  <outline>
    <contour>
      <point x="42" y="548" type="curve" smooth="yes"/>
      <point x="164" y="275"/>
      <point x="156" y="107"/>
      <point x="156" y="11" type="curve" smooth="yes"/>
      <point x="156" y="-20"/>
      <point x="202" y="-23"/>
      <point x="206" y="8" type="curve" smooth="yes"/>
      <point x="225" y="152"/>
      <point x="259" y="495"/>
      <point x="363" y="495" type="curve" smooth="yes"/>
      <point x="467" y="495"/>
      <point x="467" y="235"/>
      <point x="502" y="72" type="curve" smooth="yes"/>
      <point x="508" y="46"/>
      <point x="543" y="45"/>
      <point x="550" y="70" type="curve" smooth="yes"/>
      <point x="601" y="246"/>
      <point x="625" y="495"/>
      <point x="767" y="495" type="curve" smooth="yes"/>
      <point x="910" y="495"/>
      <point x="846" y="150"/>
      <point x="964" y="-7" type="curve" smooth="yes"/>
      <point x="972" y="-18"/>
      <point x="988" y="-20"/>
      <point x="999" y="-12" type="curve" smooth="yes"/>
      <point x="1010" y="-4"/>
      <point x="1012" y="12"/>
      <point x="1004" y="23" type="curve" smooth="yes"/>
      <point x="892" y="172"/>
      <point x="970" y="545"/>
      <point x="767" y="545" type="curve" smooth="yes"/>
      <point x="615" y="545"/>
      <point x="570" y="362"/>
      <point x="531" y="199" type="curve"/>
      <point x="509" y="355"/>
      <point x="491" y="545"/>
      <point x="363" y="545" type="curve" smooth="yes"/>
      <point x="216" y="545"/>
      <point x="186" y="234"/>
      <point x="156" y="14" type="curve"/>
      <point x="206" y="11" type="line"/>
      <point x="206" y="109"/>
      <point x="214" y="285"/>
      <point x="88" y="568" type="curve" smooth="yes"/>
      <point x="82" y="581"/>
      <point x="67" y="586"/>
      <point x="55" y="581" type="curve"/>
      <point x="42" y="575"/>
      <point x="37" y="560"/>
    </contour>
  </outline>
</glyph>
<glyph name="n" format="2">
  <advance width="625"/>
  <unicode hex="006E"/>
  <outline>
    <contour>
      <point x="47" y="523" type="curve" smooth="yes"/>
      <point x="124" y="431"/>
      <point x="86" y="149"/>
      <point x="102" y="23" type="curve" smooth="yes"/>
      <point x="106" y="-4"/>
      <point x="144" y="-7"/>
      <point x="151" y="19" type="curve" smooth="yes"/>
      <point x="202" y="204"/>
      <point x="193" y="508"/>
      <point x="341" y="507" type="curve" smooth="yes"/>
      <point x="473" y="506"/>
      <point x="443" y="161"/>
      <point x="539" y="9" type="curve"/>
      <point x="546" y="-3"/>
      <point x="562" y="-6"/>
      <point x="573" y="1" type="curve" smooth="yes"/>
      <point x="585" y="9"/>
      <point x="588" y="24"/>
      <point x="581" y="35" type="curve" smooth="yes"/>
      <point x="486" y="185"/>
      <point x="530" y="556"/>
      <point x="341" y="557" type="curve" smooth="yes"/>
      <point x="140" y="558"/>
      <point x="155" y="223"/>
      <point x="103" y="33" type="curve"/>
      <point x="152" y="29" type="line"/>
      <point x="135" y="160"/>
      <point x="178" y="444"/>
      <point x="85" y="555" type="curve" smooth="yes"/>
      <point x="76" y="566"/>
      <point x="61" y="567"/>
      <point x="50" y="558" type="curve" smooth="yes"/>
      <point x="39" y="549"/>
      <point x="38" y="534"/>
    </contour>
  </outline>
</glyph>
<glyph name="o" format="2">
  <advance width="613"/>
  <unicode hex="006F"/>
  <outline>
    <contour>
      <point x="137" y="485" type="curve"/>
      <point x="-16" y="394"/>
      <point x="20" y="109"/>
      <point x="189" y="23" type="curve" smooth="yes"/>
      <point x="306" y="-36"/>
      <point x="504" y="-4"/>
      <point x="560" y="191" type="curve" smooth="yes"/>
      <point x="630" y="435"/>
      <point x="396" y="641"/>
      <point x="216" y="531" type="curve" smooth="yes"/>
      <point x="204" y="524"/>
      <point x="200" y="509"/>
      <point x="208" y="497" type="curve"/>
      <point x="215" y="485"/>
      <point x="230" y="481"/>
      <point x="242" y="489" type="curve"/>
      <point x="382" y="574"/>
      <point x="570" y="405"/>
      <point x="512" y="205" type="curve" smooth="yes"/>
      <point x="466" y="46"/>
      <point x="308" y="18"/>
      <point x="211" y="67" type="curve" smooth="yes"/>
      <point x="76" y="135"/>
      <point x="46" y="372"/>
      <point x="163" y="443" type="curve" smooth="yes"/>
      <point x="175" y="450"/>
      <point x="179" y="465"/>
      <point x="171" y="477" type="curve"/>
      <point x="164" y="489"/>
      <point x="149" y="493"/>
    </contour>
  </outline>
</glyph>
<glyph name="p" format="2">
  <advance width="600"/>
  <unicode hex="0070"/>
  <outline>
    <contour>
      <point x="95" y="541" type="curve" smooth="yes"/>
      <point x="98" y="354"/>
      <point x="65" y="-181"/>
      <point x="42" y="-282" type="curve"/>
      <point x="91" y="-290" type="line"/>
      <point x="108" y="-43"/>
      <point x="118" y="271"/>
      <point x="211" y="429" type="curve" smooth="yes"/>
      <point x="308" y="598"/>
      <point x="560" y="461"/>
      <point x="501" y="245" type="curve" smooth="yes"/>
      <point x="461" y="95"/>
      <point x="281" y="49"/>
      <point x="193" y="183" type="curve"/>
      <point x="185" y="194"/>
      <point x="170" y="198"/>
      <point x="158" y="190" type="curve"/>
      <point x="147" y="182"/>
      <point x="143" y="167"/>
      <point x="151" y="155" type="curve" smooth="yes"/>
      <point x="262" y="-13"/>
      <point x="497" y="39"/>
      <point x="549" y="231" type="curve" smooth="yes"/>
      <point x="624" y="509"/>
      <point x="292" y="668"/>
      <point x="167" y="455" type="curve" smooth="yes"/>
      <point x="68" y="283"/>
      <point x="58" y="-47"/>
      <point x="41" y="-286" type="curve" smooth="yes"/>
      <point x="39" y="-317"/>
      <point x="83" y="-324"/>
      <point x="90" y="-294" type="curve" smooth="yes"/>
      <point x="115" y="-187"/>
      <point x="148" y="354"/>
      <point x="145" y="541" type="curve" smooth="yes"/>
      <point x="145" y="555"/>
      <point x="133" y="566"/>
      <point x="120" y="566" type="curve" smooth="yes"/>
      <point x="106" y="566"/>
      <point x="95" y="554"/>
    </contour>
  </outline>
</glyph>
<glyph name="q" format="2">
  <advance width="561"/>
  <unicode hex="0071"/>
  <outline>
    <contour>
      <point x="501" y="396" type="curve" smooth="yes"/>
      <point x="501" y="499"/>
      <point x="365" y="623"/>
      <point x="174" y="504" type="curve" smooth="yes"/>
      <point x="27" y="413"/>
      <point x="-4" y="195"/>
      <point x="109" y="113" type="curve" smooth="yes"/>
      <point x="212" y="38"/>
      <point x="418" y="113"/>
      <point x="508" y="286" type="curve" smooth="yes"/>
      <point x="523" y="315"/>
      <point x="481" y="339"/>
      <point x="464" y="311" type="curve" smooth="yes"/>
      <point x="361" y="135"/>
      <point x="271" y="6"/>
      <point x="230" y="-131" type="curve" smooth="yes"/>
      <point x="160" y="-360"/>
      <point x="403" y="-335"/>
      <point x="512" y="-230" type="curve" smooth="yes"/>
      <point x="522" y="-220"/>
      <point x="523" y="-205"/>
      <point x="513" y="-195" type="curve" smooth="yes"/>
      <point x="503" y="-185"/>
      <point x="488" y="-184"/>
      <point x="478" y="-194" type="curve"/>
      <point x="426" y="-243"/>
      <point x="221" y="-332"/>
      <point x="278" y="-145" type="curve" smooth="yes"/>
      <point x="317" y="-16"/>
      <point x="401" y="105"/>
      <point x="508" y="285" type="curve"/>
      <point x="464" y="310" type="line"/>
      <point x="386" y="160"/>
      <point x="213" y="99"/>
      <point x="139" y="153" type="curve" smooth="yes"/>
      <point x="58" y="212"/>
      <point x="80" y="387"/>
      <point x="200" y="462" type="curve" smooth="yes"/>
      <point x="357" y="559"/>
      <point x="451" y="460"/>
      <point x="451" y="396" type="curve" smooth="yes"/>
      <point x="451" y="382"/>
      <point x="462" y="371"/>
      <point x="476" y="371" type="curve" smooth="yes"/>
      <point x="490" y="371"/>
      <point x="501" y="382"/>
    </contour>
  </outline>
</glyph>
<glyph name="r" format="2">
  <advance width="482"/>
  <unicode hex="0072"/>
  <outline>
    <contour>
      <point x="53" y="510" type="curve"/>
      <point x="160" y="441"/>
      <point x="280" y="171"/>
      <point x="176" y="67" type="curve"/>
      <point x="153" y="128"/>
      <point x="200" y="405"/>
      <point x="426" y="506" type="curve" smooth="yes"/>
      <point x="439" y="512"/>
      <point x="444" y="527"/>
      <point x="439" y="539" type="curve"/>
      <point x="433" y="552"/>
      <point x="418" y="557"/>
      <point x="406" y="552" type="curve" smooth="yes"/>
      <point x="36" y="387"/>
      <point x="91" y="-150"/>
      <point x="227" y="51" type="curve" smooth="yes"/>
      <point x="328" y="200"/>
      <point x="210" y="474"/>
      <point x="79" y="552" type="curve"/>
      <point x="67" y="560"/>
      <point x="52" y="556"/>
      <point x="45" y="544" type="curve"/>
      <point x="37" y="532"/>
      <point x="41" y="517"/>
    </contour>
  </outline>
</glyph>
<glyph name="s" format="2">
  <advance width="487"/>
  <unicode hex="0073"/>
  <outline>
    <contour>
      <point x="411" y="530" type="curve"/>
      <point x="359" y="563"/>
      <point x="179" y="579"/>
      <point x="137" y="464" type="curve" smooth="yes"/>
      <point x="107" y="383"/>
      <point x="171" y="296"/>
      <point x="301" y="235" type="curve" smooth="yes"/>
      <point x="474" y="154"/>
      <point x="382" y="44"/>
      <point x="254" y="44" type="curve" smooth="yes"/>
      <point x="197" y="44"/>
      <point x="140" y="44"/>
      <point x="75" y="71" type="curve"/>
      <point x="62" y="76"/>
      <point x="47" y="70"/>
      <point x="42" y="58" type="curve"/>
      <point x="37" y="45"/>
      <point x="43" y="30"/>
      <point x="55" y="25" type="curve" smooth="yes"/>
      <point x="130" y="-6"/>
      <point x="196" y="-6"/>
      <point x="254" y="-6" type="curve" smooth="yes"/>
      <point x="442" y="-6"/>
      <point x="539" y="180"/>
      <point x="323" y="281" type="curve" smooth="yes"/>
      <point x="195" y="341"/>
      <point x="171" y="407"/>
      <point x="185" y="446" type="curve" smooth="yes"/>
      <point x="209" y="513"/>
      <point x="339" y="517"/>
      <point x="383" y="488" type="curve" smooth="yes"/>
      <point x="395" y="480"/>
      <point x="410" y="484"/>
      <point x="418" y="495" type="curve"/>
      <point x="426" y="507"/>
      <point x="422" y="522"/>
    </contour>
  </outline>
</glyph>
<glyph name="t" format="2">
  <advance width="419"/>
  <unicode hex="0074"/>
  <outline>
    <contour>
      <point x="184" y="685" type="curve" smooth="yes"/>
      <point x="163" y="523"/>
      <point x="155" y="352"/>
      <point x="155" y="119" type="curve" smooth="yes"/>
      <point x="155" y="-85"/>
      <point x="323" y="-58"/>
      <point x="374" y="16" type="curve"/>
      <point x="381" y="27"/>
      <point x="379" y="43"/>
      <point x="367" y="51" type="curve" smooth="yes"/>
      <point x="356" y="58"/>
      <point x="340" y="56"/>
      <point x="332" y="44" type="curve" smooth="yes"/>
      <point x="312" y="14"/>
      <point x="205" y="-38"/>
      <point x="205" y="119" type="curve" smooth="yes"/>
      <point x="205" y="350"/>
      <point x="213" y="519"/>
      <point x="234" y="679" type="curve" smooth="yes"/>
      <point x="236" y="693"/>
      <point x="226" y="705"/>
      <point x="212" y="707" type="curve" smooth="yes"/>
      <point x="198" y="709"/>
      <point x="186" y="699"/>
    </contour>
    <contour>
      <point x="64" y="362" type="curve" smooth="yes"/>
      <point x="138" y="357"/>
      <point x="280" y="362"/>
      <point x="313" y="362" type="curve" smooth="yes"/>
      <point x="327" y="362"/>
      <point x="338" y="373"/>
      <point x="338" y="387" type="curve" smooth="yes"/>
      <point x="338" y="401"/>
      <point x="327" y="412"/>
      <point x="313" y="412" type="curve" smooth="yes"/>
      <point x="276" y="412"/>
      <point x="140" y="407"/>
      <point x="68" y="412" type="curve" smooth="yes"/>
      <point x="54" y="413"/>
      <point x="42" y="403"/>
      <point x="41" y="389" type="curve" smooth="yes"/>
      <point x="40" y="375"/>
      <point x="50" y="363"/>
    </contour>
  </outline>
</glyph>
<glyph name="u" format="2">
  <advance width="646"/>
  <unicode hex="0075"/>
  <outline>
    <contour>
      <point x="81" y="542" type="curve" smooth="yes"/>
      <point x="1" y="223"/>
      <point x="39" y="1"/>
      <point x="213" y="1" type="curve" smooth="yes"/>
      <point x="411" y="1"/>
      <point x="439" y="329"/>
      <point x="465" y="533" type="curve"/>
      <point x="415" y="536" type="line"/>
      <point x="415" y="294"/>
      <point x="425" y="1"/>
      <point x="581" y="1" type="curve" smooth="yes"/>
      <point x="595" y="1"/>
      <point x="606" y="12"/>
      <point x="606" y="26" type="curve" smooth="yes"/>
      <point x="606" y="40"/>
      <point x="595" y="51"/>
      <point x="581" y="51" type="curve" smooth="yes"/>
      <point x="465" y="51"/>
      <point x="465" y="390"/>
      <point x="465" y="536" type="curve" smooth="yes"/>
      <point x="465" y="567"/>
      <point x="419" y="570"/>
      <point x="415" y="539" type="curve" smooth="yes"/>
      <point x="392" y="355"/>
      <point x="364" y="51"/>
      <point x="213" y="51" type="curve" smooth="yes"/>
      <point x="59" y="51"/>
      <point x="76" y="316"/>
      <point x="129" y="530" type="curve"/>
      <point x="133" y="543"/>
      <point x="124" y="557"/>
      <point x="111" y="560" type="curve"/>
      <point x="98" y="564"/>
      <point x="84" y="555"/>
    </contour>
  </outline>
</glyph>
<glyph name="v" format="2">
  <advance width="537"/>
  <unicode hex="0076"/>
  <outline>
    <contour>
      <point x="42" y="527" type="curve" smooth="yes"/>
      <point x="75" y="411"/>
      <point x="139" y="160"/>
      <point x="166" y="20" type="curve" smooth="yes"/>
      <point x="171" y="-4"/>
      <point x="204" y="-7"/>
      <point x="214" y="15" type="curve" smooth="yes"/>
      <point x="289" y="190"/>
      <point x="438" y="475"/>
      <point x="487" y="514" type="curve" smooth="yes"/>
      <point x="498" y="523"/>
      <point x="500" y="539"/>
      <point x="492" y="549" type="curve" smooth="yes"/>
      <point x="483" y="560"/>
      <point x="467" y="562"/>
      <point x="457" y="554" type="curve" smooth="yes"/>
      <point x="396" y="506"/>
      <point x="262" y="242"/>
      <point x="200" y="105" type="curve"/>
      <point x="168" y="247"/>
      <point x="118" y="442"/>
      <point x="90" y="541" type="curve" smooth="yes"/>
      <point x="86" y="554"/>
      <point x="73" y="562"/>
      <point x="59" y="558" type="curve" smooth="yes"/>
      <point x="46" y="554"/>
      <point x="38" y="541"/>
    </contour>
  </outline>
</glyph>
<glyph name="w" format="2">
  <advance width="924"/>
  <unicode hex="0077"/>
  <outline>
    <contour>
      <point x="101" y="542" type="curve" smooth="yes"/>
      <point x="19" y="326"/>
      <point x="-3" y="61"/>
      <point x="191" y="9" type="curve" smooth="yes"/>
      <point x="285" y="-16"/>
      <point x="411" y="-5"/>
      <point x="474" y="198" type="curve"/>
      <point x="502" y="99"/>
      <point x="564" y="-6"/>
      <point x="717" y="8" type="curve" smooth="yes"/>
      <point x="947" y="31"/>
      <point x="899" y="416"/>
      <point x="808" y="547" type="curve" smooth="yes"/>
      <point x="800" y="559"/>
      <point x="784" y="561"/>
      <point x="773" y="554" type="curve" smooth="yes"/>
      <point x="761" y="546"/>
      <point x="759" y="530"/>
      <point x="766" y="519" type="curve"/>
      <point x="841" y="411"/>
      <point x="888" y="75"/>
      <point x="713" y="58" type="curve" smooth="yes"/>
      <point x="546" y="42"/>
      <point x="524" y="200"/>
      <point x="497" y="309" type="curve" smooth="yes"/>
      <point x="491" y="335"/>
      <point x="453" y="334"/>
      <point x="448" y="308" type="curve" smooth="yes"/>
      <point x="421" y="159"/>
      <point x="368" y="13"/>
      <point x="203" y="57" type="curve" smooth="yes"/>
      <point x="39" y="101"/>
      <point x="86" y="362"/>
      <point x="147" y="524" type="curve" smooth="yes"/>
      <point x="152" y="537"/>
      <point x="146" y="551"/>
      <point x="133" y="556" type="curve" smooth="yes"/>
      <point x="120" y="561"/>
      <point x="106" y="555"/>
    </contour>
  </outline>
</glyph>
<glyph name="x" format="2">
  <advance width="565"/>
  <unicode hex="0078"/>
  <outline>
    <contour>
      <point x="86" y="507" type="curve"/>
      <point x="178" y="524"/>
      <point x="470" y="263"/>
      <point x="54" y="35" type="curve" smooth="yes"/>
      <point x="26" y="19"/>
      <point x="47" y="-23"/>
      <point x="76" y="-10" type="curve" smooth="yes"/>
      <point x="175" y="36"/>
      <point x="266" y="112"/>
      <point x="340" y="243" type="curve" smooth="yes"/>
      <point x="357" y="274"/>
      <point x="382" y="364"/>
      <point x="430" y="414" type="curve" smooth="yes"/>
      <point x="576" y="566"/>
      <point x="507" y="611"/>
      <point x="386" y="456" type="curve"/>
      <point x="332" y="387"/>
      <point x="237" y="198"/>
      <point x="483" y="-6" type="curve" smooth="yes"/>
      <point x="494" y="-15"/>
      <point x="509" y="-14"/>
      <point x="518" y="-3" type="curve" smooth="yes"/>
      <point x="527" y="8"/>
      <point x="526" y="23"/>
      <point x="515" y="32" type="curve" smooth="yes"/>
      <point x="297" y="214"/>
      <point x="382" y="370"/>
      <point x="426" y="425" type="curve"/>
      <point x="468" y="479"/>
      <point x="493" y="503"/>
      <point x="499" y="506" type="curve"/>
      <point x="467" y="535" type="line"/>
      <point x="467" y="535"/>
      <point x="457" y="515"/>
      <point x="394" y="448" type="curve" smooth="yes"/>
      <point x="338" y="390"/>
      <point x="311" y="294"/>
      <point x="296" y="267" type="curve" smooth="yes"/>
      <point x="228" y="146"/>
      <point x="145" y="76"/>
      <point x="56" y="36" type="curve"/>
      <point x="78" y="-9" type="line"/>
      <point x="544" y="247"/>
      <point x="224" y="583"/>
      <point x="78" y="557" type="curve"/>
      <point x="64" y="555"/>
      <point x="55" y="541"/>
      <point x="57" y="528" type="curve"/>
      <point x="60" y="514"/>
      <point x="73" y="505"/>
    </contour>
  </outline>
</glyph>
<glyph name="y" format="2">
  <advance width="597"/>
  <unicode hex="0079"/>
  <outline>
    <contour>
      <point x="44" y="529" type="curve" smooth="yes"/>
      <point x="108" y="305"/>
      <point x="108" y="88"/>
      <point x="261" y="69" type="curve" smooth="yes"/>
      <point x="399" y="53"/>
      <point x="484" y="313"/>
      <point x="555" y="528" type="curve" smooth="yes"/>
      <point x="565" y="559"/>
      <point x="519" y="575"/>
      <point x="507" y="544" type="curve"/>
      <point x="423" y="309"/>
      <point x="357" y="35"/>
      <point x="239" y="-192" type="curve" smooth="yes"/>
      <point x="171" y="-322"/>
      <point x="96" y="-229"/>
      <point x="89" y="-198" type="curve" smooth="yes"/>
      <point x="86" y="-185"/>
      <point x="73" y="-177"/>
      <point x="59" y="-180" type="curve" smooth="yes"/>
      <point x="46" y="-183"/>
      <point x="38" y="-196"/>
      <point x="41" y="-210" type="curve" smooth="yes"/>
      <point x="59" y="-291"/>
      <point x="196" y="-383"/>
      <point x="283" y="-216" type="curve" smooth="yes"/>
      <point x="403" y="15"/>
      <point x="473" y="299"/>
      <point x="555" y="528" type="curve"/>
      <point x="507" y="544" type="line"/>
      <point x="460" y="401"/>
      <point x="368" y="107"/>
      <point x="267" y="119" type="curve" smooth="yes"/>
      <point x="157" y="132"/>
      <point x="153" y="326"/>
      <point x="92" y="543" type="curve" smooth="yes"/>
      <point x="88" y="556"/>
      <point x="74" y="564"/>
      <point x="61" y="560" type="curve" smooth="yes"/>
      <point x="48" y="556"/>
      <point x="40" y="542"/>
    </contour>
  </outline>
</glyph>
<glyph name="z" format="2">
  <advance width="675"/>
  <unicode hex="007A"/>
  <outline>
    <contour>
      <point x="67" y="507" type="curve"/>
      <point x="195" y="484"/>
      <point x="406" y="487"/>
      <point x="514" y="498" type="curve"/>
      <point x="385" y="326"/>
      <point x="69" y="62"/>
      <point x="46" y="34" type="curve"/>
      <point x="31" y="14"/>
      <point x="50" y="-14"/>
      <point x="74" y="-6" type="curve" smooth="yes"/>
      <point x="192" y="34"/>
      <point x="551" y="18"/>
      <point x="598" y="-5" type="curve" smooth="yes"/>
      <point x="611" y="-11"/>
      <point x="626" y="-5"/>
      <point x="632" y="7" type="curve"/>
      <point x="638" y="20"/>
      <point x="632" y="35"/>
      <point x="620" y="41" type="curve"/>
      <point x="565" y="66"/>
      <point x="296" y="78"/>
      <point x="147" y="60" type="curve"/>
      <point x="251" y="153"/>
      <point x="501" y="376"/>
      <point x="589" y="519" type="curve" smooth="yes"/>
      <point x="601" y="538"/>
      <point x="583" y="562"/>
      <point x="561" y="556" type="curve" smooth="yes"/>
      <point x="502" y="539"/>
      <point x="227" y="529"/>
      <point x="75" y="557" type="curve"/>
      <point x="62" y="559"/>
      <point x="49" y="550"/>
      <point x="46" y="536" type="curve"/>
      <point x="44" y="523"/>
      <point x="53" y="510"/>
    </contour>
  </outline>
</glyph>
<glyph name="kn_am" format="2">
  <advance width="637"/>
  <unicode hex="0C82"/>
  <outline>
    <contour>
      <point x="220" y="524" type="curve"/>
      <point x="56" y="486"/>
      <point x="48" y="319"/>
      <point x="51" y="274" type="curve"/>
      <point x="55" y="191"/>
      <point x="117" y="42"/>
      <point x="309" y="42" type="curve" smooth="yes"/>
      <point x="458" y="42"/>
      <point x="587" y="154"/>
      <point x="587" y="290" type="curve" smooth="yes"/>
      <point x="587" y="420"/>
      <point x="492" y="571"/>
      <point x="290" y="539" type="curve" smooth="yes"/>
      <point x="276" y="537"/>
      <point x="267" y="524"/>
      <point x="269" y="510" type="curve" smooth="yes"/>
      <point x="271" y="496"/>
      <point x="284" y="487"/>
      <point x="298" y="489" type="curve" smooth="yes"/>
      <point x="462" y="515"/>
      <point x="537" y="398"/>
      <point x="537" y="290" type="curve" smooth="yes"/>
      <point x="537" y="188"/>
      <point x="436" y="92"/>
      <point x="309" y="92" type="curve" smooth="yes"/>
      <point x="153" y="92"/>
      <point x="105" y="210"/>
      <point x="101" y="277" type="curve"/>
      <point x="98" y="320"/>
      <point x="108" y="446"/>
      <point x="232" y="476" type="curve" smooth="yes"/>
      <point x="245" y="479"/>
      <point x="254" y="492"/>
      <point x="250" y="506" type="curve"/>
      <point x="247" y="519"/>
      <point x="234" y="528"/>
    </contour>
  </outline>
</glyph>
<glyph name="kn_ah" format="2">
  <advance width="326"/>
  <unicode hex="0C83"/>
  <outline>
    <contour>
      <point x="63" y="137" type="curve" smooth="yes"/>
      <point x="63" y="189"/>
      <point x="91" y="273"/>
      <point x="177" y="273" type="curve" smooth="yes"/>
      <point x="223" y="273"/>
      <point x="276" y="252"/>
      <point x="276" y="162" type="curve" smooth="yes"/>
      <point x="276" y="76"/>
      <point x="228" y="38"/>
      <point x="177" y="38" type="curve" smooth="yes"/>
      <point x="130" y="38"/>
      <point x="63" y="79"/>
    </contour>
    <contour>
      <point x="113" y="137" type="curve" smooth="yes"/>
      <point x="113" y="117"/>
      <point x="146" y="88"/>
      <point x="177" y="88" type="curve" smooth="yes"/>
      <point x="196" y="88"/>
      <point x="226" y="100"/>
      <point x="226" y="162" type="curve" smooth="yes"/>
      <point x="226" y="218"/>
      <point x="201" y="223"/>
      <point x="177" y="223" type="curve" smooth="yes"/>
      <point x="135" y="223"/>
      <point x="113" y="183"/>
    </contour>
    <contour>
      <point x="50" y="447" type="curve" smooth="yes"/>
      <point x="50" y="513"/>
      <point x="102" y="558"/>
      <point x="177" y="558" type="curve" smooth="yes"/>
      <point x="223" y="558"/>
      <point x="276" y="537"/>
      <point x="276" y="447" type="curve" smooth="yes"/>
      <point x="276" y="361"/>
      <point x="228" y="323"/>
      <point x="177" y="323" type="curve" smooth="yes"/>
      <point x="125" y="323"/>
      <point x="50" y="393"/>
    </contour>
    <contour>
      <point x="100" y="447" type="curve" smooth="yes"/>
      <point x="100" y="423"/>
      <point x="151" y="373"/>
      <point x="177" y="373" type="curve" smooth="yes"/>
      <point x="196" y="373"/>
      <point x="226" y="385"/>
      <point x="226" y="447" type="curve" smooth="yes"/>
      <point x="226" y="503"/>
      <point x="201" y="508"/>
      <point x="177" y="508" type="curve" smooth="yes"/>
      <point x="124" y="508"/>
      <point x="100" y="479"/>
    </contour>
  </outline>
</glyph>
<glyph name="kn_a" format="2">
  <advance width="697"/>
  <unicode hex="0C85"/>
  <outline>
    <contour>
      <point x="223" y="651" type="curve"/>
      <point x="103" y="575"/>
      <point x="-6" y="378"/>
      <point x="83" y="176" type="curve" smooth="yes"/>
      <point x="160" y="0"/>
      <point x="416" y="-102"/>
      <point x="557" y="83" type="curve" smooth="yes"/>
      <point x="652" y="208"/>
      <point x="700" y="515"/>
      <point x="555" y="515" type="curve" smooth="yes"/>
      <point x="398" y="515"/>
      <point x="436" y="318"/>
      <point x="391" y="281" type="curve" smooth="yes"/>
      <point x="377" y="269"/>
      <point x="350" y="245"/>
      <point x="285" y="260" type="curve" smooth="yes"/>
      <point x="271" y="263"/>
      <point x="258" y="255"/>
      <point x="255" y="242" type="curve" smooth="yes"/>
      <point x="252" y="228"/>
      <point x="260" y="215"/>
      <point x="273" y="212" type="curve" smooth="yes"/>
      <point x="361" y="191"/>
      <point x="403" y="227"/>
      <point x="423" y="243" type="curve"/>
      <point x="494" y="303"/>
      <point x="440" y="465"/>
      <point x="555" y="465" type="curve" smooth="yes"/>
      <point x="630" y="465"/>
      <point x="596" y="223"/>
      <point x="517" y="119" type="curve" smooth="yes"/>
      <point x="400" y="-35"/>
      <point x="191" y="62"/>
      <point x="129" y="202" type="curve" smooth="yes"/>
      <point x="53" y="376"/>
      <point x="145" y="543"/>
      <point x="249" y="609" type="curve"/>
      <point x="261" y="616"/>
      <point x="265" y="632"/>
      <point x="257" y="643" type="curve"/>
      <point x="250" y="655"/>
      <point x="234" y="659"/>
    </contour>
  </outline>
</glyph>
<glyph name="kn_aa" format="2">
  <advance width="721"/>
  <unicode hex="0C86"/>
  <outline>
    <contour>
      <point x="224" y="652" type="curve"/>
      <point x="144" y="598"/>
      <point x="39" y="484"/>
      <point x="51" y="302" type="curve" smooth="yes"/>
      <point x="63" y="122"/>
      <point x="204" y="-19"/>
      <point x="380" y="-17" type="curve" smooth="yes"/>
      <point x="628" y="-14"/>
      <point x="459" y="426"/>
      <point x="593" y="531" type="curve" smooth="yes"/>
      <point x="623" y="555"/>
      <point x="634" y="489"/>
      <point x="599" y="417" type="curve" smooth="yes"/>
      <point x="550" y="317"/>
      <point x="372" y="291"/>
      <point x="236" y="300" type="curve" smooth="yes"/>
      <point x="222" y="301"/>
      <point x="210" y="290"/>
      <point x="209" y="277" type="curve" smooth="yes"/>
      <point x="208" y="263"/>
      <point x="219" y="251"/>
      <point x="232" y="250" type="curve" smooth="yes"/>
      <point x="364" y="241"/>
      <point x="577" y="261"/>
      <point x="643" y="395" type="curve" smooth="yes"/>
      <point x="717" y="546"/>
      <point x="628" y="622"/>
      <point x="563" y="571" type="curve" smooth="yes"/>
      <point x="403" y="445"/>
      <point x="564" y="38"/>
      <point x="380" y="35" type="curve" smooth="yes"/>
      <point x="232" y="33"/>
      <point x="111" y="150"/>
      <point x="101" y="306" type="curve" smooth="yes"/>
      <point x="91" y="462"/>
      <point x="180" y="562"/>
      <point x="252" y="610" type="curve"/>
      <point x="263" y="618"/>
      <point x="266" y="633"/>
      <point x="259" y="645" type="curve"/>
      <point x="251" y="656"/>
      <point x="236" y="659"/>
    </contour>
  </outline>
</glyph>
<glyph name="kn_ii" format="2">
  <advance width="1011"/>
  <unicode hex="0C88"/>
  <outline>
    <contour>
      <point x="354" y="570" type="curve" smooth="yes"/>
      <point x="536" y="570"/>
      <point x="636" y="293"/>
      <point x="573" y="149" type="curve" smooth="yes"/>
      <point x="519" y="25"/>
      <point x="270" y="-33"/>
      <point x="197" y="193" type="curve" smooth="yes"/>
      <point x="125" y="414"/>
      <point x="311" y="570"/>
    </contour>
    <contour>
      <point x="354" y="620" type="curve" smooth="yes"/>
      <point x="273" y="620"/>
      <point x="68" y="428"/>
      <point x="149" y="177" type="curve" smooth="yes"/>
      <point x="236" y="-93"/>
      <point x="547" y="-35"/>
      <point x="619" y="129" type="curve" smooth="yes"/>
      <point x="696" y="303"/>
      <point x="576" y="620"/>
    </contour>
    <contour>
      <point x="209" y="587" type="curve" smooth="yes"/>
      <point x="292" y="555"/>
      <point x="501" y="583"/>
      <point x="657" y="664" type="curve"/>
      <point x="670" y="670"/>
      <point x="675" y="685"/>
      <point x="668" y="697" type="curve"/>
      <point x="662" y="710"/>
      <point x="647" y="715"/>
      <point x="635" y="708" type="curve"/>
      <point x="483" y="631"/>
      <point x="290" y="609"/>
      <point x="227" y="633" type="curve" smooth="yes"/>
      <point x="214" y="638"/>
      <point x="200" y="632"/>
      <point x="195" y="619" type="curve" smooth="yes"/>
      <point x="190" y="606"/>
      <point x="196" y="592"/>
    </contour>
    <contour>
      <point x="64" y="348" type="curve"/>
      <point x="226" y="260"/>
      <point x="539" y="98"/>
      <point x="740" y="247" type="curve" smooth="yes"/>
      <point x="1000" y="440"/>
      <point x="804" y="638"/>
      <point x="731" y="514" type="curve" smooth="yes"/>
      <point x="702" y="465"/>
      <point x="685" y="360"/>
      <point x="699" y="266" type="curve" smooth="yes"/>
      <point x="717" y="150"/>
      <point x="788" y="28"/>
      <point x="956" y="97" type="curve" smooth="yes"/>
      <point x="968" y="102"/>
      <point x="974" y="117"/>
      <point x="969" y="130" type="curve"/>
      <point x="964" y="142"/>
      <point x="949" y="148"/>
      <point x="936" y="143" type="curve"/>
      <point x="818" y="94"/>
      <point x="766" y="166"/>
      <point x="749" y="274" type="curve" smooth="yes"/>
      <point x="736" y="360"/>
      <point x="752" y="453"/>
      <point x="773" y="488" type="curve" smooth="yes"/>
      <point x="804" y="540"/>
      <point x="888" y="419"/>
      <point x="710" y="287" type="curve" smooth="yes"/>
      <point x="541" y="162"/>
      <point x="262" y="298"/>
      <point x="88" y="392" type="curve"/>
      <point x="76" y="399"/>
      <point x="61" y="394"/>
      <point x="54" y="382" type="curve" smooth="yes"/>
      <point x="47" y="370"/>
      <point x="52" y="355"/>
    </contour>
  </outline>
</glyph>
<glyph name="kn_u" format="2">
  <advance width="1420"/>
  <unicode hex="0C89"/>
  <outline>
    <contour>
      <point x="155" y="436" type="curve"/>
      <point x="282" y="402"/>
      <point x="321" y="599"/>
      <point x="205" y="619" type="curve" smooth="yes"/>
      <point x="36" y="648"/>
      <point x="-74" y="52"/>
      <point x="315" y="3" type="curve" smooth="yes"/>
      <point x="600" y="-33"/>
      <point x="607" y="320"/>
      <point x="738" y="320" type="curve" smooth="yes"/>
      <point x="871" y="320"/>
      <point x="903" y="-55"/>
      <point x="1144" y="-31" type="curve" smooth="yes"/>
      <point x="1272" y="-18"/>
      <point x="1521" y="208"/>
      <point x="1242" y="530" type="curve"/>
      <point x="1233" y="541"/>
      <point x="1217" y="542"/>
      <point x="1207" y="533" type="curve"/>
      <point x="1196" y="524"/>
      <point x="1195" y="508"/>
      <point x="1204" y="498" type="curve" smooth="yes"/>
      <point x="1457" y="206"/>
      <point x="1226" y="28"/>
      <point x="1140" y="19" type="curve" smooth="yes"/>
      <point x="933" y="-1"/>
      <point x="917" y="370"/>
      <point x="738" y="370" type="curve" smooth="yes"/>
      <point x="559" y="370"/>
      <point x="575" y="21"/>
      <point x="321" y="53" type="curve" smooth="yes"/>
      <point x="-6" y="94"/>
      <point x="105" y="586"/>
      <point x="197" y="569" type="curve" smooth="yes"/>
      <point x="244" y="561"/>
      <point x="227" y="468"/>
      <point x="169" y="484" type="curve" smooth="yes"/>
      <point x="155" y="488"/>
      <point x="142" y="480"/>
      <point x="138" y="467" type="curve" smooth="yes"/>
      <point x="134" y="453"/>
      <point x="142" y="440"/>
    </contour>
  </outline>
</glyph>
<glyph name="kn_uu" format="2">
  <advance width="1553"/>
  <unicode hex="0C8A"/>
  <outline>
    <contour>
      <point x="190" y="419" type="curve"/>
      <point x="304" y="400"/>
      <point x="329" y="611"/>
      <point x="185" y="611" type="curve"/>
      <point x="7" y="610"/>
      <point x="-22" y="27"/>
      <point x="273" y="27" type="curve" smooth="yes"/>
      <point x="553" y="27"/>
      <point x="466" y="330"/>
      <point x="647" y="330" type="curve" smooth="yes"/>
      <point x="785" y="330"/>
      <point x="782" y="-16"/>
      <point x="990" y="-11" type="curve" smooth="yes"/>
      <point x="1234" y="-5"/>
      <point x="1089" y="376"/>
      <point x="1249" y="417" type="curve" smooth="yes"/>
      <point x="1393" y="453"/>
      <point x="1483" y="210"/>
      <point x="1444" y="58" type="curve"/>
      <point x="1440" y="45"/>
      <point x="1448" y="31"/>
      <point x="1462" y="28" type="curve"/>
      <point x="1475" y="24"/>
      <point x="1489" y="32"/>
      <point x="1492" y="46" type="curve"/>
      <point x="1539" y="229"/>
      <point x="1428" y="513"/>
      <point x="1237" y="465" type="curve" smooth="yes"/>
      <point x="1032" y="413"/>
      <point x="1177" y="43"/>
      <point x="988" y="39" type="curve" smooth="yes"/>
      <point x="821" y="35"/>
      <point x="830" y="380"/>
      <point x="647" y="380" type="curve" smooth="yes"/>
      <point x="419" y="380"/>
      <point x="518" y="77"/>
      <point x="273" y="77" type="curve" smooth="yes"/>
      <point x="40" y="77"/>
      <point x="79" y="560"/>
      <point x="185" y="561" type="curve" smooth="yes"/>
      <point x="258" y="561"/>
      <point x="241" y="462"/>
      <point x="198" y="469" type="curve" smooth="yes"/>
      <point x="184" y="471"/>
      <point x="172" y="462"/>
      <point x="169" y="448" type="curve"/>
      <point x="167" y="434"/>
      <point x="176" y="422"/>
    </contour>
  </outline>
</glyph>
<glyph name="kn_r_ext" format="2">
  <advance width="1287"/>
  <unicode hex="0C8B"/>
  <outline>
    <contour>
      <point x="616" y="541" type="curve" smooth="yes"/>
      <point x="683" y="515"/>
      <point x="855" y="512"/>
      <point x="1055" y="664" type="curve" smooth="yes"/>
      <point x="1066" y="672"/>
      <point x="1068" y="688"/>
      <point x="1060" y="699" type="curve" smooth="yes"/>
      <point x="1052" y="710"/>
      <point x="1036" y="712"/>
      <point x="1025" y="704" type="curve" smooth="yes"/>
      <point x="835" y="560"/>
      <point x="681" y="569"/>
      <point x="634" y="587" type="curve" smooth="yes"/>
      <point x="621" y="592"/>
      <point x="607" y="586"/>
      <point x="602" y="573" type="curve" smooth="yes"/>
      <point x="597" y="560"/>
      <point x="603" y="546"/>
    </contour>
    <contour>
      <point x="239" y="489" type="curve"/>
      <point x="239" y="490" type="line"/>
      <point x="233" y="483"/>
      <point x="184" y="481"/>
      <point x="184" y="531" type="curve" smooth="yes"/>
      <point x="184" y="572"/>
      <point x="228" y="576"/>
      <point x="259" y="569" type="curve"/>
      <point x="281" y="565"/>
      <point x="425" y="542"/>
      <point x="425" y="363" type="curve" smooth="yes"/>
      <point x="425" y="260"/>
      <point x="421" y="52"/>
      <point x="243" y="52" type="curve" smooth="yes"/>
      <point x="125" y="52"/>
      <point x="100" y="92"/>
      <point x="100" y="111" type="curve" smooth="yes"/>
      <point x="100" y="115"/>
      <point x="124" y="170"/>
      <point x="243" y="170" type="curve" smooth="yes"/>
      <point x="382" y="170"/>
      <point x="529" y="57"/>
      <point x="588" y="26" type="curve"/>
      <point x="645" y="-6"/>
      <point x="731" y="-7"/>
      <point x="782" y="27" type="curve" smooth="yes"/>
      <point x="830" y="59"/>
      <point x="898" y="143"/>
      <point x="898" y="258" type="curve" smooth="yes"/>
      <point x="898" y="361"/>
      <point x="836" y="577"/>
      <point x="684" y="577" type="curve" smooth="yes"/>
      <point x="670" y="577"/>
      <point x="659" y="566"/>
      <point x="659" y="552" type="curve" smooth="yes"/>
      <point x="659" y="538"/>
      <point x="670" y="527"/>
      <point x="684" y="527" type="curve" smooth="yes"/>
      <point x="784" y="527"/>
      <point x="848" y="365"/>
      <point x="848" y="258" type="curve" smooth="yes"/>
      <point x="848" y="163"/>
      <point x="790" y="93"/>
      <point x="754" y="69" type="curve" smooth="yes"/>
      <point x="721" y="47"/>
      <point x="655" y="47"/>
      <point x="612" y="70" type="curve" smooth="yes"/>
      <point x="550" y="104"/>
      <point x="398" y="220"/>
      <point x="243" y="220" type="curve" smooth="yes"/>
      <point x="100" y="220"/>
      <point x="50" y="147"/>
      <point x="50" y="111" type="curve" smooth="yes"/>
      <point x="50" y="102"/>
      <point x="50" y="2"/>
      <point x="243" y="2" type="curve" smooth="yes"/>
      <point x="477" y="2"/>
      <point x="475" y="287"/>
      <point x="475" y="363" type="curve" smooth="yes"/>
      <point x="475" y="584"/>
      <point x="289" y="615"/>
      <point x="269" y="619" type="curve" smooth="yes"/>
      <point x="212" y="630"/>
      <point x="134" y="612"/>
      <point x="134" y="531" type="curve" smooth="yes"/>
      <point x="134" y="415"/>
      <point x="289" y="412"/>
      <point x="289" y="489" type="curve" smooth="yes"/>
      <point x="289" y="503"/>
      <point x="278" y="514"/>
      <point x="264" y="514" type="curve" smooth="yes"/>
      <point x="250" y="514"/>
      <point x="239" y="503"/>
    </contour>
    <contour>
      <point x="828" y="91" type="curve"/>
      <point x="1038" y="-158"/>
      <point x="1425" y="22"/>
      <point x="1129" y="485" type="curve"/>
      <point x="1122" y="497"/>
      <point x="1106" y="501"/>
      <point x="1095" y="493" type="curve"/>
      <point x="1083" y="486"/>
      <point x="1079" y="470"/>
      <point x="1087" y="459" type="curve"/>
      <point x="1347" y="52"/>
      <point x="1038" y="-81"/>
      <point x="866" y="123" type="curve" smooth="yes"/>
      <point x="857" y="134"/>
      <point x="841" y="135"/>
      <point x="831" y="126" type="curve"/>
      <point x="820" y="117"/>
      <point x="819" y="101"/>
    </contour>
  </outline>
</glyph>
<glyph name="kn_e" format="2">
  <advance width="867"/>
  <unicode hex="0C8E"/>
  <outline>
    <contour>
      <point x="148" y="111" type="curve" smooth="yes"/>
      <point x="230" y="111"/>
      <point x="229" y="174"/>
      <point x="229" y="191" type="curve" smooth="yes"/>
      <point x="229" y="232"/>
      <point x="198" y="271"/>
      <point x="148" y="271" type="curve" smooth="yes"/>
      <point x="96" y="271"/>
      <point x="50" y="239"/>
      <point x="50" y="172" type="curve" smooth="yes"/>
      <point x="50" y="55"/>
      <point x="125" y="0"/>
      <point x="240" y="0" type="curve" smooth="yes"/>
      <point x="333" y="0"/>
      <point x="411" y="59"/>
      <point x="439" y="90" type="curve"/>
      <point x="467" y="48"/>
      <point x="520" y="-5"/>
      <point x="627" y="0" type="curve" smooth="yes"/>
      <point x="801" y="8"/>
      <point x="817" y="194"/>
      <point x="817" y="301" type="curve" smooth="yes"/>
      <point x="817" y="501"/>
      <point x="583" y="620"/>
      <point x="461" y="620" type="curve" smooth="yes"/>
      <point x="447" y="620"/>
      <point x="436" y="609"/>
      <point x="436" y="595" type="curve" smooth="yes"/>
      <point x="436" y="581"/>
      <point x="447" y="570"/>
      <point x="461" y="570" type="curve" smooth="yes"/>
      <point x="565" y="570"/>
      <point x="767" y="465"/>
      <point x="767" y="301" type="curve" smooth="yes"/>
      <point x="767" y="119"/>
      <point x="713" y="54"/>
      <point x="625" y="50" type="curve" smooth="yes"/>
      <point x="517" y="45"/>
      <point x="483" y="111"/>
      <point x="464" y="147" type="curve"/>
      <point x="455" y="166"/>
      <point x="429" y="165"/>
      <point x="420" y="147" type="curve" smooth="yes"/>
      <point x="406" y="118"/>
      <point x="327" y="50"/>
      <point x="240" y="50" type="curve" smooth="yes"/>
      <point x="155" y="50"/>
      <point x="100" y="81"/>
      <point x="100" y="172" type="curve" smooth="yes"/>
      <point x="100" y="209"/>
      <point x="122" y="221"/>
      <point x="148" y="221" type="curve" smooth="yes"/>
      <point x="173" y="221"/>
      <point x="179" y="202"/>
      <point x="179" y="191" type="curve" smooth="yes"/>
      <point x="179" y="171"/>
      <point x="178" y="161"/>
      <point x="148" y="161" type="curve" smooth="yes"/>
      <point x="134" y="161"/>
      <point x="123" y="150"/>
      <point x="123" y="136" type="curve" smooth="yes"/>
      <point x="123" y="122"/>
      <point x="134" y="111"/>
    </contour>
  </outline>
</glyph>
<glyph name="kn_ee" format="2">
  <advance width="876"/>
  <unicode hex="0C8F"/>
  <outline>
    <contour>
      <point x="144" y="104" type="curve" smooth="yes"/>
      <point x="221" y="104"/>
      <point x="220" y="167"/>
      <point x="220" y="181" type="curve" smooth="yes"/>
      <point x="220" y="221"/>
      <point x="191" y="258"/>
      <point x="144" y="258" type="curve" smooth="yes"/>
      <point x="93" y="258"/>
      <point x="50" y="228"/>
      <point x="50" y="164" type="curve" smooth="yes"/>
      <point x="50" y="53"/>
      <point x="121" y="1"/>
      <point x="230" y="1" type="curve" smooth="yes"/>
      <point x="312" y="1"/>
      <point x="384" y="50"/>
      <point x="417" y="84" type="curve"/>
      <point x="442" y="45"/>
      <point x="494" y="-4"/>
      <point x="593" y="1" type="curve" smooth="yes"/>
      <point x="713" y="6"/>
      <point x="831" y="157"/>
      <point x="771" y="295" type="curve" smooth="yes"/>
      <point x="703" y="452"/>
      <point x="445" y="446"/>
      <point x="445" y="526" type="curve" smooth="yes"/>
      <point x="445" y="623"/>
      <point x="680" y="619"/>
      <point x="796" y="598" type="curve"/>
      <point x="809" y="596"/>
      <point x="822" y="605"/>
      <point x="825" y="619" type="curve"/>
      <point x="827" y="632"/>
      <point x="818" y="645"/>
      <point x="804" y="648" type="curve"/>
      <point x="701" y="666"/>
      <point x="395" y="689"/>
      <point x="395" y="526" type="curve" smooth="yes"/>
      <point x="395" y="391"/>
      <point x="663" y="416"/>
      <point x="725" y="275" type="curve" smooth="yes"/>
      <point x="770" y="171"/>
      <point x="679" y="55"/>
      <point x="591" y="51" type="curve" smooth="yes"/>
      <point x="491" y="47"/>
      <point x="458" y="108"/>
      <point x="442" y="140" type="curve" smooth="yes"/>
      <point x="433" y="159"/>
      <point x="407" y="159"/>
      <point x="398" y="140" type="curve" smooth="yes"/>
      <point x="385" y="114"/>
      <point x="311" y="51"/>
      <point x="230" y="51" type="curve" smooth="yes"/>
      <point x="151" y="51"/>
      <point x="100" y="80"/>
      <point x="100" y="164" type="curve" smooth="yes"/>
      <point x="100" y="198"/>
      <point x="118" y="208"/>
      <point x="144" y="208" type="curve" smooth="yes"/>
      <point x="166" y="208"/>
      <point x="170" y="190"/>
      <point x="170" y="181" type="curve" smooth="yes"/>
      <point x="170" y="161"/>
      <point x="168" y="154"/>
      <point x="144" y="154" type="curve" smooth="yes"/>
      <point x="130" y="154"/>
      <point x="119" y="143"/>
      <point x="119" y="129" type="curve" smooth="yes"/>
      <point x="119" y="115"/>
      <point x="130" y="104"/>
    </contour>
  </outline>
</glyph>
<glyph name="kn_ai" format="2">
  <advance width="888"/>
  <unicode hex="0C90"/>
  <outline>
    <contour>
      <point x="190" y="206" type="curve" smooth="yes"/>
      <point x="190" y="252"/>
      <point x="162" y="277"/>
      <point x="120" y="277" type="curve" smooth="yes"/>
      <point x="78" y="277"/>
      <point x="50" y="239"/>
      <point x="50" y="191" type="curve" smooth="yes"/>
      <point x="50" y="105"/>
      <point x="97" y="0"/>
      <point x="271" y="0" type="curve" smooth="yes"/>
      <point x="413" y="0"/>
      <point x="473" y="41"/>
      <point x="501" y="75" type="curve"/>
      <point x="530" y="52"/>
      <point x="580" y="25"/>
      <point x="664" y="30" type="curve" smooth="yes"/>
      <point x="769" y="37"/>
      <point x="838" y="149"/>
      <point x="838" y="252" type="curve" smooth="yes"/>
      <point x="838" y="317"/>
      <point x="836" y="507"/>
      <point x="615" y="489" type="curve" smooth="yes"/>
      <point x="395" y="471"/>
      <point x="439" y="333"/>
      <point x="527" y="333" type="curve" smooth="yes"/>
      <point x="571" y="333"/>
      <point x="605" y="354"/>
      <point x="624" y="392" type="curve" smooth="yes"/>
      <point x="668" y="480"/>
      <point x="556" y="581"/>
      <point x="429" y="624" type="curve" smooth="yes"/>
      <point x="307" y="666"/>
      <point x="105" y="640"/>
      <point x="64" y="553" type="curve" smooth="yes"/>
      <point x="31" y="481"/>
      <point x="75" y="411"/>
      <point x="132" y="411" type="curve" smooth="yes"/>
      <point x="146" y="411"/>
      <point x="157" y="422"/>
      <point x="157" y="436" type="curve" smooth="yes"/>
      <point x="157" y="450"/>
      <point x="146" y="461"/>
      <point x="132" y="461" type="curve" smooth="yes"/>
      <point x="113" y="461"/>
      <point x="91" y="493"/>
      <point x="110" y="531" type="curve"/>
      <point x="133" y="582"/>
      <point x="298" y="615"/>
      <point x="413" y="576" type="curve" smooth="yes"/>
      <point x="523" y="538"/>
      <point x="603" y="461"/>
      <point x="580" y="414" type="curve"/>
      <point x="569" y="393"/>
      <point x="552" y="383"/>
      <point x="527" y="383" type="curve" smooth="yes"/>
      <point x="486" y="383"/>
      <point x="497" y="429"/>
      <point x="619" y="439" type="curve" smooth="yes"/>
      <point x="774" y="452"/>
      <point x="788" y="344"/>
      <point x="788" y="252" type="curve" smooth="yes"/>
      <point x="788" y="168"/>
      <point x="733" y="84"/>
      <point x="660" y="80" type="curve" smooth="yes"/>
      <point x="569" y="74"/>
      <point x="531" y="114"/>
      <point x="515" y="130" type="curve" smooth="yes"/>
      <point x="504" y="141"/>
      <point x="486" y="139"/>
      <point x="477" y="126" type="curve"/>
      <point x="467" y="113"/>
      <point x="441" y="50"/>
      <point x="271" y="50" type="curve" smooth="yes"/>
      <point x="109" y="50"/>
      <point x="100" y="152"/>
      <point x="100" y="191" type="curve" smooth="yes"/>
      <point x="100" y="205"/>
      <point x="105" y="227"/>
      <point x="120" y="227" type="curve" smooth="yes"/>
      <point x="137" y="227"/>
      <point x="140" y="222"/>
      <point x="140" y="206" type="curve" smooth="yes"/>
      <point x="140" y="192"/>
      <point x="151" y="181"/>
      <point x="165" y="181" type="curve" smooth="yes"/>
      <point x="179" y="181"/>
      <point x="190" y="192"/>
    </contour>
  </outline>
</glyph>
<glyph name="kn_o" format="2">
  <advance width="808"/>
  <unicode hex="0C92"/>
  <outline>
    <contour>
      <point x="130" y="543" type="curve"/>
      <point x="130" y="537"/>
      <point x="100" y="537"/>
      <point x="100" y="543" type="curve"/>
      <point x="100" y="590"/>
      <point x="262" y="597"/>
      <point x="262" y="476" type="curve" smooth="yes"/>
      <point x="262" y="381"/>
      <point x="103" y="263"/>
      <point x="103" y="157" type="curve" smooth="yes"/>
      <point x="103" y="71"/>
      <point x="146" y="0"/>
      <point x="261" y="0" type="curve" smooth="yes"/>
      <point x="346" y="0"/>
      <point x="400" y="66"/>
      <point x="419" y="92" type="curve"/>
      <point x="447" y="48"/>
      <point x="507" y="-14"/>
      <point x="592" y="-14" type="curve" smooth="yes"/>
      <point x="731" y="-14"/>
      <point x="781" y="139"/>
      <point x="747" y="208" type="curve" smooth="yes"/>
      <point x="741" y="220"/>
      <point x="726" y="226"/>
      <point x="714" y="219" type="curve"/>
      <point x="702" y="213"/>
      <point x="696" y="198"/>
      <point x="703" y="186" type="curve"/>
      <point x="721" y="149"/>
      <point x="693" y="36"/>
      <point x="592" y="36" type="curve" smooth="yes"/>
      <point x="513" y="36"/>
      <point x="459" y="112"/>
      <point x="443" y="153" type="curve" smooth="yes"/>
      <point x="435" y="174"/>
      <point x="406" y="175"/>
      <point x="397" y="154" type="curve" smooth="yes"/>
      <point x="380" y="116"/>
      <point x="330" y="50"/>
      <point x="261" y="50" type="curve" smooth="yes"/>
      <point x="174" y="50"/>
      <point x="153" y="100"/>
      <point x="153" y="157" type="curve" smooth="yes"/>
      <point x="153" y="239"/>
      <point x="312" y="360"/>
      <point x="312" y="476" type="curve" smooth="yes"/>
      <point x="312" y="660"/>
      <point x="50" y="662"/>
      <point x="50" y="543" type="curve" smooth="yes"/>
      <point x="50" y="470"/>
      <point x="180" y="470"/>
      <point x="180" y="543" type="curve" smooth="yes"/>
      <point x="180" y="557"/>
      <point x="169" y="568"/>
      <point x="155" y="568" type="curve" smooth="yes"/>
      <point x="141" y="568"/>
      <point x="130" y="557"/>
    </contour>
  </outline>
</glyph>
<glyph name="kn_au" format="2">
  <advance width="808"/>
  <unicode hex="0C94"/>
  <outline>
    <contour>
      <point x="66" y="610" type="curve" smooth="yes"/>
      <point x="150" y="567"/>
      <point x="305" y="590"/>
      <point x="305" y="683" type="curve" smooth="yes"/>
      <point x="305" y="721"/>
      <point x="284" y="760"/>
      <point x="242" y="783" type="curve" smooth="yes"/>
      <point x="220" y="795"/>
      <point x="204" y="791"/>
      <point x="170" y="791" type="curve"/>
      <point x="170" y="766" type="line"/>
      <point x="193" y="768"/>
      <point x="205" y="766"/>
      <point x="228" y="767" type="curve" smooth="yes"/>
      <point x="290" y="770"/>
      <point x="350" y="768"/>
      <point x="379" y="762" type="curve" smooth="yes"/>
      <point x="403" y="757"/>
      <point x="454" y="732"/>
      <point x="454" y="693" type="curve" smooth="yes"/>
      <point x="454" y="652"/>
      <point x="447" y="629"/>
      <point x="415" y="600" type="curve" smooth="yes"/>
      <point x="406" y="592"/>
      <point x="405" y="579"/>
      <point x="413" y="571" type="curve"/>
      <point x="421" y="562"/>
      <point x="434" y="561"/>
      <point x="443" y="569" type="curve" smooth="yes"/>
      <point x="486" y="608"/>
      <point x="495" y="643"/>
      <point x="495" y="693" type="curve" smooth="yes"/>
      <point x="495" y="759"/>
      <point x="426" y="795"/>
      <point x="388" y="803" type="curve" smooth="yes"/>
      <point x="340" y="814"/>
      <point x="237" y="813"/>
      <point x="155" y="803" type="curve" smooth="yes"/>
      <point x="129" y="800"/>
      <point x="131" y="762"/>
      <point x="157" y="762" type="curve" smooth="yes"/>
      <point x="237" y="762"/>
      <point x="263" y="716"/>
      <point x="263" y="683" type="curve" smooth="yes"/>
      <point x="263" y="632"/>
      <point x="146" y="616"/>
      <point x="85" y="647" type="curve" smooth="yes"/>
      <point x="75" y="652"/>
      <point x="62" y="648"/>
      <point x="57" y="638" type="curve" smooth="yes"/>
      <point x="52" y="628"/>
      <point x="56" y="615"/>
    </contour>
    <contour>
      <point x="130" y="543" type="curve" smooth="yes"/>
      <point x="130" y="537"/>
      <point x="100" y="537"/>
      <point x="100" y="543" type="curve" smooth="yes"/>
      <point x="100" y="590"/>
      <point x="262" y="597"/>
      <point x="262" y="476" type="curve" smooth="yes"/>
      <point x="262" y="381"/>
      <point x="103" y="263"/>
      <point x="103" y="157" type="curve" smooth="yes"/>
      <point x="103" y="71"/>
      <point x="146" y="0"/>
      <point x="261" y="0" type="curve" smooth="yes"/>
      <point x="346" y="0"/>
      <point x="400" y="66"/>
      <point x="419" y="92" type="curve"/>
      <point x="447" y="48"/>
      <point x="507" y="-14"/>
      <point x="592" y="-14" type="curve" smooth="yes"/>
      <point x="731" y="-14"/>
      <point x="781" y="139"/>
      <point x="747" y="208" type="curve" smooth="yes"/>
      <point x="741" y="220"/>
      <point x="726" y="226"/>
      <point x="714" y="219" type="curve"/>
      <point x="702" y="213"/>
      <point x="696" y="198"/>
      <point x="703" y="186" type="curve"/>
      <point x="721" y="149"/>
      <point x="693" y="36"/>
      <point x="592" y="36" type="curve" smooth="yes"/>
      <point x="513" y="36"/>
      <point x="459" y="112"/>
      <point x="443" y="153" type="curve" smooth="yes"/>
      <point x="435" y="174"/>
      <point x="406" y="175"/>
      <point x="397" y="154" type="curve" smooth="yes"/>
      <point x="380" y="116"/>
      <point x="330" y="50"/>
      <point x="261" y="50" type="curve" smooth="yes"/>
      <point x="174" y="50"/>
      <point x="153" y="100"/>
      <point x="153" y="157" type="curve" smooth="yes"/>
      <point x="153" y="239"/>
      <point x="312" y="360"/>
      <point x="312" y="476" type="curve" smooth="yes"/>
      <point x="312" y="660"/>
      <point x="50" y="662"/>
      <point x="50" y="543" type="curve" smooth="yes"/>
      <point x="50" y="470"/>
      <point x="180" y="470"/>
      <point x="180" y="543" type="curve" smooth="yes"/>
      <point x="180" y="557"/>
      <point x="169" y="568"/>
      <point x="155" y="568" type="curve" smooth="yes"/>
      <point x="141" y="568"/>
      <point x="130" y="557"/>
    </contour>
  </outline>
</glyph>
<glyph name="kn_kh" format="2">
  <advance width="870"/>
  <unicode hex="0C96"/>
  <outline>
    <contour>
      <point x="342" y="539" type="curve" smooth="yes"/>
      <point x="377" y="496"/>
      <point x="409" y="401"/>
      <point x="400" y="315" type="curve" smooth="yes"/>
      <point x="389" y="209"/>
      <point x="301" y="99"/>
      <point x="202" y="59" type="curve" smooth="yes"/>
      <point x="165" y="44"/>
      <point x="100" y="47"/>
      <point x="100" y="98" type="curve" smooth="yes"/>
      <point x="100" y="132"/>
      <point x="135" y="189"/>
      <point x="209" y="177" type="curve" smooth="yes"/>
      <point x="220" y="175"/>
      <point x="230" y="173"/>
      <point x="239" y="171" type="curve" smooth="yes"/>
      <point x="372" y="142"/>
      <point x="396" y="85"/>
      <point x="531" y="39" type="curve" smooth="yes"/>
      <point x="694" y="-15"/>
      <point x="780" y="112"/>
      <point x="811" y="277" type="curve" smooth="yes"/>
      <point x="835" y="399"/>
      <point x="808" y="551"/>
      <point x="744" y="658" type="curve" smooth="yes"/>
      <point x="741" y="663"/>
      <point x="738" y="668"/>
      <point x="735" y="672" type="curve" smooth="yes"/>
      <point x="727" y="683"/>
      <point x="712" y="687"/>
      <point x="700" y="679" type="curve" smooth="yes"/>
      <point x="689" y="672"/>
      <point x="686" y="656"/>
      <point x="693" y="644" type="curve"/>
      <point x="696" y="640"/>
      <point x="699" y="635"/>
      <point x="702" y="630" type="curve" smooth="yes"/>
      <point x="758" y="533"/>
      <point x="782" y="397"/>
      <point x="761" y="287" type="curve" smooth="yes"/>
      <point x="730" y="124"/>
      <point x="660" y="49"/>
      <point x="547" y="87" type="curve" smooth="yes"/>
      <point x="424" y="128"/>
      <point x="389" y="190"/>
      <point x="249" y="221" type="curve" smooth="yes"/>
      <point x="239" y="223"/>
      <point x="228" y="225"/>
      <point x="217" y="227" type="curve" smooth="yes"/>
      <point x="118" y="244"/>
      <point x="62" y="173"/>
      <point x="52" y="116" type="curve" smooth="yes"/>
      <point x="51" y="110"/>
      <point x="50" y="104"/>
      <point x="50" y="98" type="curve" smooth="yes"/>
      <point x="50" y="66"/>
      <point x="82" y="-23"/>
      <point x="196" y="5" type="curve" smooth="yes"/>
      <point x="299" y="31"/>
      <point x="422" y="153"/>
      <point x="446" y="277" type="curve"/>
      <point x="448" y="285"/>
      <point x="449" y="293"/>
      <point x="450" y="302" type="curve" smooth="yes"/>
      <point x="463" y="420"/>
      <point x="412" y="568"/>
      <point x="340" y="604" type="curve" smooth="yes"/>
      <point x="280" y="634"/>
      <point x="165" y="628"/>
      <point x="165" y="536" type="curve" smooth="yes"/>
      <point x="165" y="522"/>
      <point x="176" y="511"/>
      <point x="190" y="511" type="curve" smooth="yes"/>
      <point x="204" y="511"/>
      <point x="215" y="522"/>
      <point x="215" y="536" type="curve" smooth="yes"/>
      <point x="215" y="588"/>
      <point x="312" y="576"/>
    </contour>
  </outline>
</glyph>
<glyph name="kn_ng" format="2">
  <advance width="763"/>
  <unicode hex="0C99"/>
  <outline>
    <contour>
      <point x="110" y="545" type="curve"/>
      <point x="117" y="587"/>
      <point x="212" y="601"/>
      <point x="212" y="482" type="curve" smooth="yes"/>
      <point x="212" y="389"/>
      <point x="53" y="317"/>
      <point x="51" y="159" type="curve" smooth="yes"/>
      <point x="50" y="73"/>
      <point x="94" y="0"/>
      <point x="210" y="0" type="curve" smooth="yes"/>
      <point x="287" y="0"/>
      <point x="342" y="54"/>
      <point x="370" y="94" type="curve"/>
      <point x="400" y="48"/>
      <point x="459" y="-14"/>
      <point x="546" y="-14" type="curve" smooth="yes"/>
      <point x="686" y="-14"/>
      <point x="736" y="141"/>
      <point x="703" y="211" type="curve" smooth="yes"/>
      <point x="697" y="223"/>
      <point x="682" y="229"/>
      <point x="669" y="223" type="curve"/>
      <point x="657" y="217"/>
      <point x="651" y="202"/>
      <point x="657" y="189" type="curve"/>
      <point x="676" y="151"/>
      <point x="648" y="36"/>
      <point x="546" y="36" type="curve" smooth="yes"/>
      <point x="465" y="36"/>
      <point x="411" y="113"/>
      <point x="394" y="155" type="curve" smooth="yes"/>
      <point x="386" y="176"/>
      <point x="357" y="176"/>
      <point x="348" y="156" type="curve" smooth="yes"/>
      <point x="331" y="117"/>
      <point x="280" y="50"/>
      <point x="210" y="50" type="curve" smooth="yes"/>
      <point x="121" y="50"/>
      <point x="100" y="101"/>
      <point x="101" y="159" type="curve" smooth="yes"/>
      <point x="103" y="297"/>
      <point x="262" y="361"/>
      <point x="262" y="482" type="curve" smooth="yes"/>
      <point x="262" y="664"/>
      <point x="77" y="654"/>
      <point x="60" y="553" type="curve" smooth="yes"/>
      <point x="58" y="540"/>
      <point x="67" y="527"/>
      <point x="81" y="524" type="curve"/>
      <point x="94" y="522"/>
      <point x="107" y="531"/>
    </contour>
    <contour>
      <point x="652" y="496" type="curve" smooth="yes"/>
      <point x="598" y="676"/>
      <point x="387" y="770"/>
      <point x="219" y="519" type="curve"/>
      <point x="212" y="507"/>
      <point x="215" y="492"/>
      <point x="226" y="484" type="curve"/>
      <point x="238" y="477"/>
      <point x="253" y="480"/>
      <point x="261" y="491" type="curve"/>
      <point x="406" y="708"/>
      <point x="563" y="619"/>
      <point x="604" y="482" type="curve" smooth="yes"/>
      <point x="608" y="469"/>
      <point x="622" y="461"/>
      <point x="635" y="465" type="curve" smooth="yes"/>
      <point x="648" y="469"/>
      <point x="656" y="483"/>
    </contour>
    <contour>
      <point x="407" y="418" type="curve"/>
      <point x="408" y="431" type="line"/>
      <point x="396" y="424"/>
      <point x="392" y="408"/>
      <point x="399" y="396" type="curve" smooth="yes"/>
      <point x="406" y="384"/>
      <point x="422" y="380"/>
      <point x="434" y="387" type="curve" smooth="yes"/>
      <point x="466" y="406"/>
      <point x="456" y="444"/>
      <point x="435" y="458" type="curve"/>
      <point x="424" y="466"/>
      <point x="408" y="464"/>
      <point x="401" y="452" type="curve"/>
      <point x="393" y="441"/>
      <point x="395" y="425"/>
    </contour>
  </outline>
</glyph>
<glyph name="kn_c" format="2">
  <advance width="977"/>
  <unicode hex="0C9A"/>
  <outline>
    <contour>
      <point x="153" y="608" type="curve" smooth="yes"/>
      <point x="263" y="608"/>
      <point x="296" y="521"/>
      <point x="263" y="471" type="curve" smooth="yes"/>
      <point x="214" y="399"/>
      <point x="0" y="186"/>
      <point x="62" y="50" type="curve" smooth="yes"/>
      <point x="126" y="-89"/>
      <point x="307" y="16"/>
      <point x="371" y="70" type="curve"/>
      <point x="412" y="31"/>
      <point x="451" y="-10"/>
      <point x="556" y="4" type="curve" smooth="yes"/>
      <point x="753" y="29"/>
      <point x="800" y="418"/>
      <point x="706" y="649" type="curve"/>
      <point x="682" y="640"/>
      <point x="682" y="639"/>
      <point x="660" y="633" type="curve"/>
      <point x="736" y="432"/>
      <point x="699" y="73"/>
      <point x="550" y="54" type="curve" smooth="yes"/>
      <point x="457" y="41"/>
      <point x="439" y="78"/>
      <point x="389" y="123" type="curve"/>
      <point x="379" y="131"/>
      <point x="364" y="131"/>
      <point x="355" y="122" type="curve" smooth="yes"/>
      <point x="307" y="76"/>
      <point x="151" y="-23"/>
      <point x="108" y="70" type="curve" smooth="yes"/>
      <point x="61" y="173"/>
      <point x="265" y="383"/>
      <point x="305" y="443" type="curve" smooth="yes"/>
      <point x="361" y="525"/>
      <point x="304" y="658"/>
      <point x="153" y="658" type="curve" smooth="yes"/>
      <point x="139" y="658"/>
      <point x="128" y="647"/>
      <point x="128" y="633" type="curve" smooth="yes"/>
      <point x="128" y="619"/>
      <point x="139" y="608"/>
    </contour>
    <contour>
      <point x="553" y="362" type="curve" smooth="yes"/>
      <point x="726" y="362"/>
      <point x="857" y="394"/>
      <point x="905" y="403" type="curve" smooth="yes"/>
      <point x="919" y="406"/>
      <point x="928" y="419"/>
      <point x="926" y="432" type="curve"/>
      <point x="923" y="446"/>
      <point x="910" y="455"/>
      <point x="897" y="453" type="curve" smooth="yes"/>
      <point x="851" y="445"/>
      <point x="724" y="412"/>
      <point x="553" y="412" type="curve" smooth="yes"/>
      <point x="539" y="412"/>
      <point x="528" y="401"/>
      <point x="528" y="387" type="curve" smooth="yes"/>
      <point x="528" y="373"/>
      <point x="539" y="362"/>
    </contour>
    <contour>
      <point x="553" y="614" type="curve" smooth="yes"/>
      <point x="726" y="614"/>
      <point x="857" y="646"/>
      <point x="905" y="655" type="curve" smooth="yes"/>
      <point x="919" y="658"/>
      <point x="928" y="671"/>
      <point x="926" y="684" type="curve"/>
      <point x="923" y="698"/>
      <point x="910" y="707"/>
      <point x="897" y="705" type="curve" smooth="yes"/>
      <point x="851" y="697"/>
      <point x="724" y="664"/>
      <point x="553" y="664" type="curve" smooth="yes"/>
      <point x="539" y="664"/>
      <point x="528" y="653"/>
      <point x="528" y="639" type="curve" smooth="yes"/>
      <point x="528" y="625"/>
      <point x="539" y="614"/>
    </contour>
  </outline>
</glyph>
<glyph name="kn_jh" format="2">
  <advance width="1400"/>
  <unicode hex="0C9D"/>
  <outline>
    <contour>
      <point x="911" y="24" type="curve" smooth="yes"/>
      <point x="900" y="-34"/>
      <point x="906" y="-126"/>
      <point x="949" y="-151" type="curve" smooth="yes"/>
      <point x="961" y="-158"/>
      <point x="976" y="-153"/>
      <point x="983" y="-141" type="curve" smooth="yes"/>
      <point x="990" y="-129"/>
      <point x="985" y="-114"/>
      <point x="973" y="-107" type="curve" smooth="yes"/>
      <point x="964" y="-102"/>
      <point x="947" y="-46"/>
      <point x="959" y="14" type="curve" smooth="yes"/>
      <point x="962" y="28"/>
      <point x="954" y="41"/>
      <point x="940" y="43" type="curve"/>
      <point x="926" y="46"/>
      <point x="914" y="38"/>
    </contour>
    <contour>
      <point x="517" y="237" type="curve" smooth="yes"/>
      <point x="542" y="-16"/>
      <point x="973" y="-270"/>
      <point x="970" y="602" type="curve" smooth="yes"/>
      <point x="970" y="616"/>
      <point x="958" y="626"/>
      <point x="944" y="626" type="curve" smooth="yes"/>
      <point x="930" y="626"/>
      <point x="920" y="614"/>
      <point x="920" y="600" type="curve" smooth="yes"/>
      <point x="920" y="-199"/>
      <point x="586" y="47"/>
      <point x="567" y="241" type="curve"/>
      <point x="566" y="255"/>
      <point x="553" y="265"/>
      <point x="540" y="264" type="curve" smooth="yes"/>
      <point x="526" y="263"/>
      <point x="516" y="250"/>
    </contour>
    <contour>
      <point x="896" y="236" type="curve"/>
      <point x="922" y="-16"/>
      <point x="1373" y="-270"/>
      <point x="1349" y="602" type="curve"/>
      <point x="1349" y="616"/>
      <point x="1337" y="626"/>
      <point x="1323" y="626" type="curve" smooth="yes"/>
      <point x="1309" y="626"/>
      <point x="1299" y="614"/>
      <point x="1299" y="600" type="curve"/>
      <point x="1321" y="-200"/>
      <point x="967" y="47"/>
      <point x="946" y="242" type="curve"/>
      <point x="945" y="255"/>
      <point x="932" y="266"/>
      <point x="918" y="264" type="curve"/>
      <point x="905" y="263"/>
      <point x="895" y="250"/>
    </contour>
    <contour>
      <point x="276" y="575" type="curve" smooth="yes"/>
      <point x="460" y="575"/>
      <point x="562" y="295"/>
      <point x="498" y="149" type="curve" smooth="yes"/>
      <point x="443" y="25"/>
      <point x="191" y="-35"/>
      <point x="117" y="193" type="curve" smooth="yes"/>
      <point x="44" y="417"/>
      <point x="232" y="575"/>
    </contour>
    <contour>
      <point x="276" y="625" type="curve" smooth="yes"/>
      <point x="194" y="625"/>
      <point x="-13" y="431"/>
      <point x="69" y="177" type="curve" smooth="yes"/>
      <point x="158" y="-95"/>
      <point x="471" y="-36"/>
      <point x="544" y="129" type="curve" smooth="yes"/>
      <point x="621" y="305"/>
      <point x="500" y="625"/>
    </contour>
    <contour>
      <point x="130" y="592" type="curve" smooth="yes"/>
      <point x="214" y="560"/>
      <point x="425" y="589"/>
      <point x="582" y="669" type="curve" smooth="yes"/>
      <point x="595" y="676"/>
      <point x="599" y="690"/>
      <point x="593" y="702" type="curve"/>
      <point x="586" y="715"/>
      <point x="572" y="719"/>
      <point x="560" y="713" type="curve" smooth="yes"/>
      <point x="407" y="635"/>
      <point x="212" y="614"/>
      <point x="148" y="638" type="curve" smooth="yes"/>
      <point x="135" y="643"/>
      <point x="121" y="637"/>
      <point x="116" y="624" type="curve" smooth="yes"/>
      <point x="111" y="611"/>
      <point x="117" y="597"/>
    </contour>
  </outline>
</glyph>
<glyph name="kn_tth" format="2">
  <advance width="646"/>
  <unicode hex="0CA0"/>
  <outline>
    <contour>
      <point x="276" y="575" type="curve" smooth="yes"/>
      <point x="460" y="575"/>
      <point x="562" y="295"/>
      <point x="498" y="149" type="curve" smooth="yes"/>
      <point x="443" y="25"/>
      <point x="191" y="-35"/>
      <point x="117" y="193" type="curve" smooth="yes"/>
      <point x="44" y="417"/>
      <point x="232" y="575"/>
    </contour>
    <contour>
      <point x="276" y="625" type="curve" smooth="yes"/>
      <point x="194" y="625"/>
      <point x="-13" y="431"/>
      <point x="69" y="177" type="curve" smooth="yes"/>
      <point x="158" y="-95"/>
      <point x="471" y="-36"/>
      <point x="544" y="129" type="curve" smooth="yes"/>
      <point x="621" y="305"/>
      <point x="500" y="625"/>
    </contour>
    <contour>
      <point x="130" y="592" type="curve" smooth="yes"/>
      <point x="214" y="560"/>
      <point x="425" y="589"/>
      <point x="582" y="669" type="curve" smooth="yes"/>
      <point x="595" y="676"/>
      <point x="599" y="690"/>
      <point x="593" y="702" type="curve"/>
      <point x="586" y="715"/>
      <point x="572" y="719"/>
      <point x="560" y="713" type="curve" smooth="yes"/>
      <point x="407" y="635"/>
      <point x="212" y="614"/>
      <point x="148" y="638" type="curve" smooth="yes"/>
      <point x="135" y="643"/>
      <point x="121" y="637"/>
      <point x="116" y="624" type="curve" smooth="yes"/>
      <point x="111" y="611"/>
      <point x="117" y="597"/>
    </contour>
    <contour>
      <point x="297" y="301" type="curve"/>
      <point x="300" y="313" type="line"/>
      <point x="288" y="306"/>
      <point x="283" y="291"/>
      <point x="290" y="279" type="curve" smooth="yes"/>
      <point x="297" y="267"/>
      <point x="312" y="262"/>
      <point x="324" y="269" type="curve"/>
      <point x="352" y="284"/>
      <point x="353" y="322"/>
      <point x="327" y="341" type="curve" smooth="yes"/>
      <point x="316" y="349"/>
      <point x="300" y="347"/>
      <point x="292" y="336" type="curve" smooth="yes"/>
      <point x="284" y="325"/>
      <point x="286" y="309"/>
    </contour>
  </outline>
</glyph>
<glyph name="kn_dd" format="2">
  <advance width="894"/>
  <unicode hex="0CA1"/>
  <outline>
    <contour>
      <point x="333" y="618" type="curve" smooth="yes"/>
      <point x="120" y="540"/>
      <point x="50" y="381"/>
      <point x="50" y="218" type="curve" smooth="yes"/>
      <point x="50" y="56"/>
      <point x="162" y="-3"/>
      <point x="238" y="-7" type="curve" smooth="yes"/>
      <point x="351" y="-13"/>
      <point x="400" y="33"/>
      <point x="426" y="74" type="curve"/>
      <point x="459" y="33"/>
      <point x="513" y="-11"/>
      <point x="610" y="-7" type="curve" smooth="yes"/>
      <point x="710" y="-2"/>
      <point x="798" y="110"/>
      <point x="798" y="244" type="curve" smooth="yes"/>
      <point x="798" y="420"/>
      <point x="484" y="492"/>
      <point x="484" y="348" type="curve" smooth="yes"/>
      <point x="484" y="219"/>
      <point x="703" y="343"/>
      <point x="656" y="461" type="curve" smooth="yes"/>
      <point x="608" y="580"/>
      <point x="443" y="637"/>
      <point x="300" y="637" type="curve" smooth="yes"/>
      <point x="176" y="637"/>
      <point x="115" y="646"/>
      <point x="115" y="603" type="curve" smooth="yes"/>
      <point x="115" y="568"/>
      <point x="157" y="566"/>
      <point x="276" y="566" type="curve" smooth="yes"/>
      <point x="351" y="566"/>
      <point x="697" y="558"/>
      <point x="834" y="660" type="curve" smooth="yes"/>
      <point x="845" y="668"/>
      <point x="847" y="684"/>
      <point x="839" y="695" type="curve" smooth="yes"/>
      <point x="831" y="706"/>
      <point x="815" y="708"/>
      <point x="804" y="700" type="curve"/>
      <point x="673" y="611"/>
      <point x="323" y="616"/>
      <point x="276" y="616" type="curve" smooth="yes"/>
      <point x="259" y="616"/>
      <point x="172" y="615"/>
      <point x="154" y="622" type="curve"/>
      <point x="154" y="585" type="line"/>
      <point x="168" y="590"/>
      <point x="248" y="587"/>
      <point x="300" y="587" type="curve" smooth="yes"/>
      <point x="435" y="587"/>
      <point x="574" y="534"/>
      <point x="610" y="443" type="curve" smooth="yes"/>
      <point x="627" y="400"/>
      <point x="560" y="342"/>
      <point x="534" y="343" type="curve"/>
      <point x="534" y="344"/>
      <point x="534" y="346"/>
      <point x="534" y="348" type="curve" smooth="yes"/>
      <point x="534" y="410"/>
      <point x="748" y="362"/>
      <point x="748" y="244" type="curve" smooth="yes"/>
      <point x="748" y="131"/>
      <point x="675" y="46"/>
      <point x="608" y="43" type="curve" smooth="yes"/>
      <point x="499" y="39"/>
      <point x="466" y="107"/>
      <point x="443" y="134" type="curve" smooth="yes"/>
      <point x="433" y="146"/>
      <point x="414" y="146"/>
      <point x="404" y="134" type="curve"/>
      <point x="382" y="105"/>
      <point x="370" y="36"/>
      <point x="240" y="43" type="curve" smooth="yes"/>
      <point x="194" y="45"/>
      <point x="100" y="80"/>
      <point x="100" y="218" type="curve" smooth="yes"/>
      <point x="100" y="361"/>
      <point x="157" y="502"/>
      <point x="351" y="572" type="curve" smooth="yes"/>
      <point x="364" y="577"/>
      <point x="370" y="591"/>
      <point x="365" y="604" type="curve"/>
      <point x="361" y="617"/>
      <point x="346" y="623"/>
    </contour>
  </outline>
</glyph>
<glyph name="kn_nn" format="2">
  <advance width="779"/>
  <unicode hex="0CA3"/>
  <outline>
    <contour>
      <point x="219" y="42" type="curve" smooth="yes"/>
      <point x="95" y="131"/>
      <point x="161" y="249"/>
      <point x="216" y="278" type="curve" smooth="yes"/>
      <point x="234" y="288"/>
      <point x="233" y="315"/>
      <point x="214" y="323" type="curve" smooth="yes"/>
      <point x="150" y="350"/>
      <point x="69" y="417"/>
      <point x="113" y="506" type="curve" smooth="yes"/>
      <point x="179" y="641"/>
      <point x="307" y="549"/>
      <point x="357" y="524" type="curve"/>
      <point x="364" y="520"/>
      <point x="373" y="520"/>
      <point x="380" y="524" type="curve" smooth="yes"/>
      <point x="436" y="556"/>
      <point x="471" y="626"/>
      <point x="570" y="581" type="curve" smooth="yes"/>
      <point x="712" y="518"/>
      <point x="726" y="134"/>
      <point x="547" y="44" type="curve"/>
      <point x="534" y="38"/>
      <point x="530" y="23"/>
      <point x="536" y="11" type="curve"/>
      <point x="543" y="-2"/>
      <point x="557" y="-6"/>
      <point x="569" y="0" type="curve" smooth="yes"/>
      <point x="784" y="109"/>
      <point x="772" y="546"/>
      <point x="590" y="627" type="curve" smooth="yes"/>
      <point x="470" y="682"/>
      <point x="407" y="604"/>
      <point x="367" y="575" type="curve"/>
      <point x="330" y="596"/>
      <point x="155" y="705"/>
      <point x="69" y="528" type="curve" smooth="yes"/>
      <point x="16" y="422"/>
      <point x="86" y="339"/>
      <point x="157" y="296" type="curve"/>
      <point x="88" y="230"/>
      <point x="59" y="95"/>
      <point x="189" y="2" type="curve"/>
      <point x="201" y="-6"/>
      <point x="216" y="-4"/>
      <point x="224" y="7" type="curve"/>
      <point x="232" y="19"/>
      <point x="230" y="34"/>
    </contour>
  </outline>
</glyph>
<glyph name="kn_t" format="2">
  <advance width="859"/>
  <unicode hex="0CA4"/>
  <outline>
    <contour>
      <point x="52" y="238" type="curve" smooth="yes"/>
      <point x="103" y="59"/>
      <point x="299" y="-6"/>
      <point x="453" y="-6" type="curve" smooth="yes"/>
      <point x="739" y="-6"/>
      <point x="759" y="204"/>
      <point x="741" y="288" type="curve" smooth="yes"/>
      <point x="709" y="439"/>
      <point x="537" y="462"/>
      <point x="425" y="457" type="curve" smooth="yes"/>
      <point x="271" y="450"/>
      <point x="255" y="384"/>
      <point x="275" y="339" type="curve" smooth="yes"/>
      <point x="305" y="271"/>
      <point x="440" y="280"/>
      <point x="525" y="327" type="curve" smooth="yes"/>
      <point x="695" y="420"/>
      <point x="537" y="644"/>
      <point x="340" y="644" type="curve" smooth="yes"/>
      <point x="137" y="644"/>
      <point x="197" y="545"/>
      <point x="381" y="576" type="curve" smooth="yes"/>
      <point x="504" y="597"/>
      <point x="740" y="632"/>
      <point x="795" y="662" type="curve"/>
      <point x="807" y="669"/>
      <point x="812" y="684"/>
      <point x="805" y="696" type="curve" smooth="yes"/>
      <point x="798" y="708"/>
      <point x="783" y="712"/>
      <point x="771" y="706" type="curve" smooth="yes"/>
      <point x="719" y="679"/>
      <point x="462" y="641"/>
      <point x="373" y="626" type="curve" smooth="yes"/>
      <point x="316" y="616"/>
      <point x="264" y="622"/>
      <point x="255" y="626" type="curve"/>
      <point x="254" y="588" type="line"/>
      <point x="255" y="589"/>
      <point x="271" y="594"/>
      <point x="340" y="594" type="curve" smooth="yes"/>
      <point x="472" y="594"/>
      <point x="628" y="440"/>
      <point x="501" y="371" type="curve" smooth="yes"/>
      <point x="427" y="330"/>
      <point x="332" y="334"/>
      <point x="321" y="359" type="curve" smooth="yes"/>
      <point x="304" y="399"/>
      <point x="406" y="406"/>
      <point x="427" y="407" type="curve" smooth="yes"/>
      <point x="543" y="412"/>
      <point x="670" y="385"/>
      <point x="693" y="278" type="curve" smooth="yes"/>
      <point x="708" y="210"/>
      <point x="695" y="44"/>
      <point x="453" y="44" type="curve" smooth="yes"/>
      <point x="305" y="44"/>
      <point x="141" y="107"/>
      <point x="100" y="252" type="curve" smooth="yes"/>
      <point x="96" y="265"/>
      <point x="82" y="273"/>
      <point x="69" y="269" type="curve" smooth="yes"/>
      <point x="56" y="265"/>
      <point x="48" y="251"/>
    </contour>
  </outline>
</glyph>
<glyph name="kn_d" format="2">
  <advance width="916"/>
  <unicode hex="0CA6"/>
  <outline>
    <contour>
      <point x="342" y="628" type="curve"/>
      <point x="119" y="547"/>
      <point x="50" y="384"/>
      <point x="50" y="223" type="curve" smooth="yes"/>
      <point x="50" y="53"/>
      <point x="169" y="-1"/>
      <point x="242" y="-5" type="curve" smooth="yes"/>
      <point x="362" y="-12"/>
      <point x="410" y="38"/>
      <point x="436" y="77" type="curve"/>
      <point x="466" y="40"/>
      <point x="521" y="-10"/>
      <point x="625" y="-5" type="curve" smooth="yes"/>
      <point x="728" y="-1"/>
      <point x="818" y="113"/>
      <point x="818" y="248" type="curve" smooth="yes"/>
      <point x="818" y="552"/>
      <point x="519" y="646"/>
      <point x="306" y="646" type="curve" smooth="yes"/>
      <point x="179" y="646"/>
      <point x="118" y="655"/>
      <point x="118" y="612" type="curve" smooth="yes"/>
      <point x="118" y="577"/>
      <point x="159" y="575"/>
      <point x="282" y="575" type="curve" smooth="yes"/>
      <point x="358" y="575"/>
      <point x="715" y="567"/>
      <point x="856" y="670" type="curve" smooth="yes"/>
      <point x="867" y="678"/>
      <point x="869" y="694"/>
      <point x="861" y="705" type="curve" smooth="yes"/>
      <point x="853" y="716"/>
      <point x="837" y="718"/>
      <point x="826" y="710" type="curve"/>
      <point x="691" y="620"/>
      <point x="329" y="625"/>
      <point x="282" y="625" type="curve" smooth="yes"/>
      <point x="265" y="625"/>
      <point x="175" y="624"/>
      <point x="157" y="631" type="curve"/>
      <point x="157" y="594" type="line"/>
      <point x="173" y="599"/>
      <point x="251" y="596"/>
      <point x="306" y="596" type="curve" smooth="yes"/>
      <point x="517" y="596"/>
      <point x="768" y="504"/>
      <point x="768" y="248" type="curve" smooth="yes"/>
      <point x="768" y="129"/>
      <point x="690" y="48"/>
      <point x="623" y="45" type="curve" smooth="yes"/>
      <point x="510" y="41"/>
      <point x="475" y="111"/>
      <point x="453" y="137" type="curve" smooth="yes"/>
      <point x="443" y="149"/>
      <point x="425" y="149"/>
      <point x="415" y="137" type="curve" smooth="yes"/>
      <point x="391" y="108"/>
      <point x="379" y="38"/>
      <point x="246" y="45" type="curve" smooth="yes"/>
      <point x="192" y="48"/>
      <point x="100" y="87"/>
      <point x="100" y="223" type="curve" smooth="yes"/>
      <point x="100" y="366"/>
      <point x="159" y="509"/>
      <point x="358" y="580" type="curve" smooth="yes"/>
      <point x="372" y="585"/>
      <point x="378" y="599"/>
      <point x="374" y="612" type="curve"/>
      <point x="369" y="626"/>
      <point x="355" y="632"/>
    </contour>
  </outline>
</glyph>
<glyph name="kn_n" format="2">
  <advance width="796"/>
  <unicode hex="0CA8"/>
  <outline>
    <contour>
      <point x="102" y="19" type="curve" smooth="yes"/>
      <point x="90" y="200"/>
      <point x="168" y="224"/>
      <point x="212" y="227" type="curve" smooth="yes"/>
      <point x="377" y="241"/>
      <point x="419" y="-8"/>
      <point x="566" y="-8" type="curve" smooth="yes"/>
      <point x="744" y="-8"/>
      <point x="750" y="224"/>
      <point x="712" y="319" type="curve" smooth="yes"/>
      <point x="623" y="548"/>
      <point x="294" y="631"/>
      <point x="238" y="631" type="curve" smooth="yes"/>
      <point x="220" y="631"/>
      <point x="110" y="629"/>
      <point x="110" y="577" type="curve" smooth="yes"/>
      <point x="110" y="522"/>
      <point x="239" y="537"/>
      <point x="292" y="548" type="curve" smooth="yes"/>
      <point x="368" y="564"/>
      <point x="600" y="582"/>
      <point x="734" y="675" type="curve" smooth="yes"/>
      <point x="746" y="683"/>
      <point x="748" y="699"/>
      <point x="741" y="710" type="curve"/>
      <point x="730" y="726"/>
      <point x="714" y="722"/>
      <point x="700" y="713" type="curve" smooth="yes"/>
      <point x="575" y="630"/>
      <point x="354" y="611"/>
      <point x="282" y="596" type="curve" smooth="yes"/>
      <point x="217" y="582"/>
      <point x="163" y="587"/>
      <point x="153" y="592" type="curve"/>
      <point x="156" y="567" type="line"/>
      <point x="162" y="572"/>
      <point x="196" y="581"/>
      <point x="238" y="581" type="curve" smooth="yes"/>
      <point x="283" y="581"/>
      <point x="587" y="502"/>
      <point x="666" y="301" type="curve" smooth="yes"/>
      <point x="694" y="229"/>
      <point x="695" y="42"/>
      <point x="566" y="42" type="curve" smooth="yes"/>
      <point x="456" y="42"/>
      <point x="403" y="293"/>
      <point x="208" y="277" type="curve" smooth="yes"/>
      <point x="130" y="271"/>
      <point x="38" y="217"/>
      <point x="52" y="15" type="curve" smooth="yes"/>
      <point x="53" y="1"/>
      <point x="65" y="-9"/>
      <point x="79" y="-8" type="curve" smooth="yes"/>
      <point x="93" y="-7"/>
      <point x="103" y="5"/>
    </contour>
  </outline>
</glyph>
<glyph name="kn_b" format="2">
  <advance width="801"/>
  <unicode hex="0CAC"/>
  <outline>
    <contour>
      <point x="153" y="608" type="curve" smooth="yes"/>
      <point x="263" y="608"/>
      <point x="296" y="521"/>
      <point x="263" y="471" type="curve" smooth="yes"/>
      <point x="214" y="399"/>
      <point x="0" y="186"/>
      <point x="62" y="50" type="curve" smooth="yes"/>
      <point x="126" y="-89"/>
      <point x="307" y="16"/>
      <point x="371" y="70" type="curve"/>
      <point x="412" y="31"/>
      <point x="451" y="-10"/>
      <point x="556" y="4" type="curve" smooth="yes"/>
      <point x="753" y="29"/>
      <point x="795" y="425"/>
      <point x="706" y="649" type="curve" smooth="yes"/>
      <point x="696" y="673"/>
      <point x="652" y="655"/>
      <point x="660" y="633" type="curve" smooth="yes"/>
      <point x="743" y="397"/>
      <point x="699" y="73"/>
      <point x="550" y="54" type="curve" smooth="yes"/>
      <point x="457" y="41"/>
      <point x="439" y="78"/>
      <point x="389" y="123" type="curve"/>
      <point x="379" y="131"/>
      <point x="364" y="131"/>
      <point x="355" y="122" type="curve" smooth="yes"/>
      <point x="307" y="76"/>
      <point x="151" y="-23"/>
      <point x="108" y="70" type="curve" smooth="yes"/>
      <point x="61" y="173"/>
      <point x="265" y="383"/>
      <point x="305" y="443" type="curve" smooth="yes"/>
      <point x="361" y="525"/>
      <point x="304" y="658"/>
      <point x="153" y="658" type="curve" smooth="yes"/>
      <point x="139" y="658"/>
      <point x="128" y="647"/>
      <point x="128" y="633" type="curve" smooth="yes"/>
      <point x="128" y="619"/>
      <point x="139" y="608"/>
    </contour>
  </outline>
</glyph>
<glyph name="kn_bh" format="2">
  <advance width="911"/>
  <unicode hex="0CAD"/>
  <outline>
    <contour>
      <point x="153" y="600" type="curve" smooth="yes"/>
      <point x="260" y="600"/>
      <point x="293" y="514"/>
      <point x="260" y="465" type="curve" smooth="yes"/>
      <point x="213" y="394"/>
      <point x="0" y="185"/>
      <point x="62" y="50" type="curve" smooth="yes"/>
      <point x="126" y="-87"/>
      <point x="304" y="17"/>
      <point x="367" y="69" type="curve"/>
      <point x="407" y="31"/>
      <point x="445" y="-11"/>
      <point x="550" y="4" type="curve" smooth="yes"/>
      <point x="797" y="39"/>
      <point x="793" y="570"/>
      <point x="642" y="630" type="curve" smooth="yes"/>
      <point x="542" y="670"/>
      <point x="452" y="635"/>
      <point x="495" y="590" type="curve" smooth="yes"/>
      <point x="528" y="555"/>
      <point x="709" y="561"/>
      <point x="851" y="668" type="curve" smooth="yes"/>
      <point x="862" y="676"/>
      <point x="864" y="692"/>
      <point x="856" y="703" type="curve" smooth="yes"/>
      <point x="848" y="714"/>
      <point x="832" y="717"/>
      <point x="821" y="708" type="curve" smooth="yes"/>
      <point x="775" y="671"/>
      <point x="592" y="591"/>
      <point x="529" y="626" type="curve"/>
      <point x="526" y="594" type="line"/>
      <point x="535" y="598"/>
      <point x="588" y="598"/>
      <point x="624" y="584" type="curve" smooth="yes"/>
      <point x="729" y="542"/>
      <point x="736" y="81"/>
      <point x="542" y="54" type="curve" smooth="yes"/>
      <point x="452" y="41"/>
      <point x="434" y="78"/>
      <point x="385" y="122" type="curve" smooth="yes"/>
      <point x="375" y="131"/>
      <point x="360" y="130"/>
      <point x="351" y="121" type="curve" smooth="yes"/>
      <point x="304" y="76"/>
      <point x="150" y="-21"/>
      <point x="108" y="70" type="curve" smooth="yes"/>
      <point x="62" y="171"/>
      <point x="263" y="379"/>
      <point x="302" y="437" type="curve" smooth="yes"/>
      <point x="357" y="518"/>
      <point x="301" y="650"/>
      <point x="153" y="650" type="curve" smooth="yes"/>
      <point x="139" y="650"/>
      <point x="128" y="639"/>
      <point x="128" y="625" type="curve" smooth="yes"/>
      <point x="128" y="611"/>
      <point x="139" y="600"/>
    </contour>
    <contour>
      <point x="345" y="8" type="curve" smooth="yes"/>
      <point x="332" y="-50"/>
      <point x="340" y="-142"/>
      <point x="382" y="-166" type="curve" smooth="yes"/>
      <point x="394" y="-173"/>
      <point x="409" y="-168"/>
      <point x="416" y="-156" type="curve" smooth="yes"/>
      <point x="423" y="-144"/>
      <point x="418" y="-129"/>
      <point x="406" y="-122" type="curve"/>
      <point x="398" y="-118"/>
      <point x="380" y="-62"/>
      <point x="393" y="-2" type="curve" smooth="yes"/>
      <point x="396" y="11"/>
      <point x="388" y="24"/>
      <point x="374" y="27" type="curve" smooth="yes"/>
      <point x="361" y="30"/>
      <point x="348" y="22"/>
    </contour>
  </outline>
</glyph>
<glyph name="kn_l" format="2">
  <advance width="848"/>
  <unicode hex="0CB2"/>
  <outline>
    <contour>
      <point x="196" y="515" type="curve"/>
      <point x="227" y="453"/>
      <point x="328" y="476"/>
      <point x="326" y="547" type="curve" smooth="yes"/>
      <point x="325" y="593"/>
      <point x="293" y="628"/>
      <point x="237" y="628" type="curve" smooth="yes"/>
      <point x="170" y="628"/>
      <point x="14" y="571"/>
      <point x="59" y="311" type="curve" smooth="yes"/>
      <point x="96" y="100"/>
      <point x="270" y="-15"/>
      <point x="448" y="-17" type="curve" smooth="yes"/>
      <point x="676" y="-19"/>
      <point x="798" y="157"/>
      <point x="798" y="373" type="curve" smooth="yes"/>
      <point x="798" y="606"/>
      <point x="661" y="633"/>
      <point x="609" y="606" type="curve"/>
      <point x="596" y="600"/>
      <point x="592" y="585"/>
      <point x="598" y="573" type="curve"/>
      <point x="605" y="560"/>
      <point x="619" y="556"/>
      <point x="631" y="562" type="curve"/>
      <point x="655" y="575"/>
      <point x="748" y="560"/>
      <point x="748" y="373" type="curve" smooth="yes"/>
      <point x="748" y="175"/>
      <point x="640" y="31"/>
      <point x="448" y="33" type="curve" smooth="yes"/>
      <point x="292" y="35"/>
      <point x="141" y="136"/>
      <point x="109" y="319" type="curve" smooth="yes"/>
      <point x="69" y="552"/>
      <point x="204" y="578"/>
      <point x="237" y="578" type="curve" smooth="yes"/>
      <point x="267" y="578"/>
      <point x="275" y="565"/>
      <point x="276" y="545" type="curve"/>
      <point x="276" y="528"/>
      <point x="247" y="523"/>
      <point x="240" y="537" type="curve"/>
      <point x="234" y="550"/>
      <point x="219" y="554"/>
      <point x="207" y="548" type="curve"/>
      <point x="194" y="541"/>
      <point x="189" y="527"/>
    </contour>
  </outline>
</glyph>
<glyph name="kn_s" format="2">
  <advance width="754"/>
  <unicode hex="0CB8"/>
  <outline>
    <contour>
      <point x="100" y="15" type="curve" smooth="yes"/>
      <point x="100" y="192"/>
      <point x="182" y="217"/>
      <point x="222" y="217" type="curve" smooth="yes"/>
      <point x="365" y="217"/>
      <point x="360" y="-10"/>
      <point x="544" y="-10" type="curve" smooth="yes"/>
      <point x="704" y="-10"/>
      <point x="732" y="178"/>
      <point x="678" y="360" type="curve" smooth="yes"/>
      <point x="612" y="584"/>
      <point x="435" y="646"/>
      <point x="274" y="595" type="curve" smooth="yes"/>
      <point x="216" y="577"/>
      <point x="182" y="533"/>
      <point x="182" y="478" type="curve" smooth="yes"/>
      <point x="182" y="428"/>
      <point x="228" y="370"/>
      <point x="298" y="370" type="curve" smooth="yes"/>
      <point x="362" y="370"/>
      <point x="423" y="407"/>
      <point x="423" y="478" type="curve" smooth="yes"/>
      <point x="423" y="555"/>
      <point x="347" y="636"/>
      <point x="254" y="646" type="curve" smooth="yes"/>
      <point x="84" y="665"/>
      <point x="105" y="604"/>
      <point x="127" y="586" type="curve" smooth="yes"/>
      <point x="167" y="552"/>
      <point x="297" y="582"/>
      <point x="404" y="596" type="curve" smooth="yes"/>
      <point x="510" y="609"/>
      <point x="591" y="626"/>
      <point x="684" y="665" type="curve" smooth="yes"/>
      <point x="696" y="670"/>
      <point x="702" y="685"/>
      <point x="697" y="698" type="curve"/>
      <point x="692" y="710"/>
      <point x="677" y="716"/>
      <point x="664" y="711" type="curve"/>
      <point x="577" y="674"/>
      <point x="502" y="659"/>
      <point x="398" y="646" type="curve" smooth="yes"/>
      <point x="353" y="640"/>
      <point x="178" y="608"/>
      <point x="159" y="624" type="curve"/>
      <point x="155" y="597" type="line"/>
      <point x="157" y="598"/>
      <point x="178" y="604"/>
      <point x="248" y="596" type="curve" smooth="yes"/>
      <point x="321" y="588"/>
      <point x="373" y="525"/>
      <point x="373" y="478" type="curve" smooth="yes"/>
      <point x="373" y="445"/>
      <point x="346" y="420"/>
      <point x="298" y="420" type="curve" smooth="yes"/>
      <point x="256" y="420"/>
      <point x="232" y="454"/>
      <point x="232" y="478" type="curve" smooth="yes"/>
      <point x="232" y="509"/>
      <point x="250" y="535"/>
      <point x="288" y="547" type="curve" smooth="yes"/>
      <point x="423" y="590"/>
      <point x="572" y="542"/>
      <point x="630" y="346" type="curve" smooth="yes"/>
      <point x="665" y="226"/>
      <point x="674" y="40"/>
      <point x="544" y="40" type="curve" smooth="yes"/>
      <point x="393" y="40"/>
      <point x="400" y="267"/>
      <point x="222" y="267" type="curve" smooth="yes"/>
      <point x="150" y="267"/>
      <point x="50" y="214"/>
      <point x="50" y="15" type="curve" smooth="yes"/>
      <point x="50" y="1"/>
      <point x="61" y="-10"/>
      <point x="75" y="-10" type="curve" smooth="yes"/>
      <point x="89" y="-10"/>
      <point x="100" y="1"/>
    </contour>
  </outline>
</glyph>
<glyph name="kn_h" format="2">
  <advance width="1136"/>
  <unicode hex="0CB9"/>
  <outline>
    <contour>
      <point x="235" y="550" type="curve" smooth="yes"/>
      <point x="378" y="550"/>
      <point x="656" y="0"/>
      <point x="877" y="0" type="curve" smooth="yes"/>
      <point x="1036" y="0"/>
      <point x="1086" y="135"/>
      <point x="1086" y="232" type="curve" smooth="yes"/>
      <point x="1086" y="346"/>
      <point x="1016" y="532"/>
      <point x="877" y="532" type="curve" smooth="yes"/>
      <point x="687" y="532"/>
      <point x="509" y="50"/>
      <point x="304" y="50" type="curve" smooth="yes"/>
      <point x="179" y="50"/>
      <point x="100" y="170"/>
      <point x="100" y="300" type="curve" smooth="yes"/>
      <point x="100" y="461"/>
      <point x="168" y="550"/>
    </contour>
    <contour>
      <point x="235" y="600" type="curve" smooth="yes"/>
      <point x="120" y="600"/>
      <point x="50" y="463"/>
      <point x="50" y="300" type="curve" smooth="yes"/>
      <point x="50" y="156"/>
      <point x="139" y="0"/>
      <point x="304" y="0" type="curve" smooth="yes"/>
      <point x="539" y="0"/>
      <point x="724" y="482"/>
      <point x="877" y="482" type="curve" smooth="yes"/>
      <point x="968" y="482"/>
      <point x="1036" y="346"/>
      <point x="1036" y="232" type="curve" smooth="yes"/>
      <point x="1036" y="145"/>
      <point x="994" y="50"/>
      <point x="877" y="50" type="curve" smooth="yes"/>
      <point x="686" y="50"/>
      <point x="414" y="600"/>
    </contour>
    <contour>
      <point x="107" y="598" type="curve" smooth="yes"/>
      <point x="244" y="535"/>
      <point x="664" y="580"/>
      <point x="800" y="662" type="curve" smooth="yes"/>
      <point x="812" y="669"/>
      <point x="816" y="684"/>
      <point x="808" y="696" type="curve"/>
      <point x="801" y="708"/>
      <point x="786" y="712"/>
      <point x="774" y="704" type="curve"/>
      <point x="650" y="630"/>
      <point x="248" y="589"/>
      <point x="127" y="644" type="curve"/>
      <point x="115" y="649"/>
      <point x="100" y="644"/>
      <point x="94" y="631" type="curve"/>
      <point x="89" y="619"/>
      <point x="94" y="604"/>
    </contour>
  </outline>
</glyph>
<glyph name="kn_ma_aa" format="2">
  <advance width="173"/>
  <unicode hex="0CBE"/>
  <outline>
    <contour>
      <point x="-584" y="655" type="curve" smooth="yes"/>
      <point x="-270" y="672"/>
      <point x="10" y="650"/>
      <point x="43" y="633" type="curve" smooth="yes"/>
      <point x="75" y="617"/>
      <point x="215" y="253"/>
      <point x="-9" y="43" type="curve" smooth="yes"/>
      <point x="-19" y="34"/>
      <point x="-20" y="18"/>
      <point x="-10" y="8" type="curve"/>
      <point x="-1" y="-2"/>
      <point x="15" y="-3"/>
      <point x="25" y="7" type="curve"/>
      <point x="270" y="236"/>
      <point x="134" y="642"/>
      <point x="65" y="677" type="curve" smooth="yes"/>
      <point x="18" y="701"/>
      <point x="-278" y="722"/>
      <point x="-586" y="705" type="curve" smooth="yes"/>
      <point x="-600" y="704"/>
      <point x="-611" y="692"/>
      <point x="-610" y="679" type="curve" smooth="yes"/>
      <point x="-609" y="665"/>
      <point x="-597" y="654"/>
    </contour>
  </outline>
</glyph>
<glyph name="kn_ma_i" format="2">
  <advance width="64"/>
  <unicode hex="0CBF"/>
  <outline>
    <contour>
      <point x="-313" y="491" type="curve"/>
      <point x="-224" y="534"/>
      <point x="-209" y="583"/>
      <point x="-209" y="624" type="curve" smooth="yes"/>
      <point x="-209" y="666"/>
      <point x="-240" y="708"/>
      <point x="-295" y="708" type="curve" smooth="yes"/>
      <point x="-352" y="708"/>
      <point x="-379" y="665"/>
      <point x="-379" y="624" type="curve" smooth="yes"/>
      <point x="-379" y="557"/>
      <point x="-311" y="513"/>
      <point x="-240" y="545" type="curve" smooth="yes"/>
      <point x="-227" y="551"/>
      <point x="-222" y="565"/>
      <point x="-227" y="578" type="curve"/>
      <point x="-233" y="591"/>
      <point x="-247" y="596"/>
      <point x="-260" y="591" type="curve"/>
      <point x="-296" y="575"/>
      <point x="-329" y="591"/>
      <point x="-329" y="624" type="curve" smooth="yes"/>
      <point x="-329" y="643"/>
      <point x="-318" y="658"/>
      <point x="-295" y="658" type="curve" smooth="yes"/>
      <point x="-270" y="658"/>
      <point x="-259" y="642"/>
      <point x="-259" y="624" type="curve" smooth="yes"/>
      <point x="-259" y="603"/>
      <point x="-262" y="572"/>
      <point x="-335" y="535" type="curve" smooth="yes"/>
      <point x="-347" y="529"/>
      <point x="-353" y="514"/>
      <point x="-346" y="502" type="curve"/>
      <point x="-340" y="490"/>
      <point x="-325" y="484"/>
    </contour>
  </outline>
</glyph>
<glyph name="kn_ma_ii" format="2">
  <advance width="318"/>
  <unicode hex="0CC0"/>
  <outline>
    <contour>
      <point x="-99" y="598" type="curve"/>
      <point x="-25" y="634"/>
      <point x="-10" y="675"/>
      <point x="-10" y="711" type="curve" smooth="yes"/>
      <point x="-10" y="747"/>
      <point x="-36" y="786"/>
      <point x="-85" y="786" type="curve" smooth="yes"/>
      <point x="-134" y="786"/>
      <point x="-160" y="747"/>
      <point x="-160" y="711" type="curve" smooth="yes"/>
      <point x="-160" y="653"/>
      <point x="-100" y="614"/>
      <point x="-39" y="642" type="curve" smooth="yes"/>
      <point x="-26" y="648"/>
      <point x="-21" y="663"/>
      <point x="-26" y="675" type="curve"/>
      <point x="-32" y="688"/>
      <point x="-47" y="693"/>
      <point x="-59" y="688" type="curve"/>
      <point x="-85" y="676"/>
      <point x="-110" y="687"/>
      <point x="-110" y="711" type="curve" smooth="yes"/>
      <point x="-110" y="712"/>
      <point x="-110" y="736"/>
      <point x="-85" y="736" type="curve" smooth="yes"/>
      <point x="-60" y="736"/>
      <point x="-60" y="712"/>
      <point x="-60" y="711" type="curve" smooth="yes"/>
      <point x="-60" y="697"/>
      <point x="-61" y="672"/>
      <point x="-121" y="642" type="curve" smooth="yes"/>
      <point x="-133" y="636"/>
      <point x="-139" y="621"/>
      <point x="-132" y="609" type="curve"/>
      <point x="-126" y="597"/>
      <point x="-111" y="591"/>
    </contour>
    <contour>
      <point x="86" y="459" type="curve"/>
      <point x="205" y="394"/>
      <point x="344" y="438"/>
      <point x="344" y="521" type="curve" smooth="yes"/>
      <point x="344" y="607"/>
      <point x="153" y="697"/>
      <point x="40" y="517" type="curve" smooth="yes"/>
      <point x="-13" y="433"/>
      <point x="-26" y="283"/>
      <point x="-3" y="216" type="curve" smooth="yes"/>
      <point x="40" y="87"/>
      <point x="130" y="22"/>
      <point x="259" y="0" type="curve"/>
      <point x="273" y="-2"/>
      <point x="285" y="7"/>
      <point x="288" y="21" type="curve"/>
      <point x="290" y="35"/>
      <point x="281" y="48"/>
      <point x="267" y="50" type="curve" smooth="yes"/>
      <point x="154" y="69"/>
      <point x="81" y="123"/>
      <point x="45" y="232" type="curve" smooth="yes"/>
      <point x="27" y="285"/>
      <point x="37" y="420"/>
      <point x="82" y="491" type="curve" smooth="yes"/>
      <point x="169" y="630"/>
      <point x="294" y="554"/>
      <point x="294" y="521" type="curve" smooth="yes"/>
      <point x="294" y="486"/>
      <point x="201" y="453"/>
      <point x="110" y="503" type="curve" smooth="yes"/>
      <point x="98" y="510"/>
      <point x="83" y="505"/>
      <point x="76" y="493" type="curve" smooth="yes"/>
      <point x="69" y="481"/>
      <point x="74" y="466"/>
    </contour>
  </outline>
</glyph>
<glyph name="kn_ma_u" format="2">
  <advance width="390"/>
  <unicode hex="0CC1"/>
  <outline>
    <contour>
      <point x="-157" y="235" type="curve" smooth="yes"/>
      <point x="-126" y="-13"/>
      <point x="413" y="-262"/>
      <point x="385" y="595" type="curve"/>
      <point x="385" y="609"/>
      <point x="373" y="619"/>
      <point x="359" y="619" type="curve" smooth="yes"/>
      <point x="345" y="619"/>
      <point x="335" y="607"/>
      <point x="335" y="593" type="curve"/>
      <point x="361" y="-194"/>
      <point x="-84" y="51"/>
      <point x="-107" y="241" type="curve" smooth="yes"/>
      <point x="-109" y="255"/>
      <point x="-121" y="265"/>
      <point x="-135" y="263" type="curve" smooth="yes"/>
      <point x="-149" y="261"/>
      <point x="-159" y="249"/>
    </contour>
  </outline>
</glyph>
<glyph name="kn_ma_uu" format="2">
  <advance width="691"/>
  <unicode hex="0CC2"/>
  <outline>
    <contour>
      <point x="-159" y="198" type="curve" smooth="yes"/>
      <point x="-126" y="-51"/>
      <point x="87" y="-63"/>
      <point x="190" y="148" type="curve" smooth="yes"/>
      <point x="276" y="328"/>
      <point x="334" y="569"/>
      <point x="479" y="569" type="curve" smooth="yes"/>
      <point x="606" y="569"/>
      <point x="635" y="391"/>
      <point x="635" y="301" type="curve" smooth="yes"/>
      <point x="635" y="203"/>
      <point x="555" y="62"/>
      <point x="525" y="47" type="curve"/>
      <point x="512" y="41"/>
      <point x="508" y="26"/>
      <point x="514" y="14" type="curve"/>
      <point x="521" y="1"/>
      <point x="535" y="-3"/>
      <point x="547" y="3" type="curve" smooth="yes"/>
      <point x="601" y="31"/>
      <point x="685" y="193"/>
      <point x="685" y="301" type="curve" smooth="yes"/>
      <point x="685" y="433"/>
      <point x="636" y="619"/>
      <point x="479" y="619" type="curve" smooth="yes"/>
      <point x="294" y="619"/>
      <point x="234" y="357"/>
      <point x="144" y="170" type="curve" smooth="yes"/>
      <point x="66" y="9"/>
      <point x="-82" y="0"/>
      <point x="-109" y="204" type="curve" smooth="yes"/>
      <point x="-111" y="218"/>
      <point x="-124" y="228"/>
      <point x="-137" y="226" type="curve" smooth="yes"/>
      <point x="-151" y="224"/>
      <point x="-161" y="211"/>
    </contour>
  </outline>
</glyph>
<glyph name="kn_ma_r" format="2">
  <advance width="82"/>
  <unicode hex="0CC3"/>
  <outline>
    <contour>
      <point x="-104" y="-163" type="curve"/>
      <point x="-30" y="-119"/>
      <point x="-72" y="-33"/>
      <point x="-128" y="-33" type="curve" smooth="yes"/>
      <point x="-173" y="-33"/>
      <point x="-215" y="-77"/>
      <point x="-215" y="-121" type="curve" smooth="yes"/>
      <point x="-215" y="-152"/>
      <point x="-204" y="-251"/>
      <point x="-97" y="-251" type="curve" smooth="yes"/>
      <point x="1" y="-251"/>
      <point x="109" y="-128"/>
      <point x="53" y="145" type="curve" smooth="yes"/>
      <point x="50" y="159"/>
      <point x="37" y="166"/>
      <point x="24" y="164" type="curve"/>
      <point x="10" y="161"/>
      <point x="2" y="148"/>
      <point x="5" y="135" type="curve" smooth="yes"/>
      <point x="53" y="-98"/>
      <point x="-30" y="-201"/>
      <point x="-97" y="-201" type="curve" smooth="yes"/>
      <point x="-156" y="-201"/>
      <point x="-165" y="-152"/>
      <point x="-165" y="-121" type="curve" smooth="yes"/>
      <point x="-165" y="-103"/>
      <point x="-145" y="-83"/>
      <point x="-128" y="-83" type="curve" smooth="yes"/>
      <point x="-122" y="-83"/>
      <point x="-100" y="-103"/>
      <point x="-130" y="-121" type="curve" smooth="yes"/>
      <point x="-142" y="-128"/>
      <point x="-146" y="-143"/>
      <point x="-138" y="-155" type="curve"/>
      <point x="-131" y="-167"/>
      <point x="-116" y="-171"/>
    </contour>
  </outline>
</glyph>
<glyph name="kn_ma_e" format="2">
  <advance width="75"/>
  <unicode hex="0CC6"/>
  <outline>
    <contour>
      <point x="-479" y="540" type="curve"/>
      <point x="-445" y="539"/>
      <point x="-11" y="533"/>
      <point x="16" y="541" type="curve" smooth="yes"/>
      <point x="45" y="550"/>
      <point x="88" y="579"/>
      <point x="89" y="631" type="curve" smooth="yes"/>
      <point x="90" y="666"/>
      <point x="68" y="707"/>
      <point x="18" y="709" type="curve" smooth="yes"/>
      <point x="-57" y="711"/>
      <point x="-107" y="601"/>
      <point x="2" y="547" type="curve"/>
      <point x="14" y="540"/>
      <point x="29" y="546"/>
      <point x="35" y="558" type="curve"/>
      <point x="42" y="570"/>
      <point x="36" y="585"/>
      <point x="24" y="591" type="curve" smooth="yes"/>
      <point x="-36" y="621"/>
      <point x="-6" y="659"/>
      <point x="16" y="659" type="curve" smooth="yes"/>
      <point x="39" y="659"/>
      <point x="39" y="637"/>
      <point x="39" y="633" type="curve"/>
      <point x="38" y="611"/>
      <point x="19" y="595"/>
      <point x="1" y="589" type="curve"/>
      <point x="-10" y="586"/>
      <point x="-415" y="587"/>
      <point x="-477" y="590" type="curve" smooth="yes"/>
      <point x="-491" y="591"/>
      <point x="-502" y="580"/>
      <point x="-503" y="566" type="curve" smooth="yes"/>
      <point x="-504" y="552"/>
      <point x="-493" y="541"/>
    </contour>
  </outline>
</glyph>
<glyph name="kn_ma_ee" format="2">
  <advance width="375"/>
  <unicode hex="0CC7"/>
  <outline>
    <contour>
      <point x="-479" y="535" type="curve"/>
      <point x="-445" y="534"/>
      <point x="-11" y="528"/>
      <point x="16" y="536" type="curve" smooth="yes"/>
      <point x="45" y="545"/>
      <point x="88" y="574"/>
      <point x="89" y="626" type="curve" smooth="yes"/>
      <point x="90" y="661"/>
      <point x="68" y="702"/>
      <point x="18" y="704" type="curve" smooth="yes"/>
      <point x="-57" y="706"/>
      <point x="-107" y="596"/>
      <point x="2" y="542" type="curve"/>
      <point x="14" y="535"/>
      <point x="29" y="541"/>
      <point x="35" y="553" type="curve"/>
      <point x="42" y="565"/>
      <point x="36" y="580"/>
      <point x="24" y="586" type="curve" smooth="yes"/>
      <point x="-36" y="616"/>
      <point x="-6" y="654"/>
      <point x="16" y="654" type="curve" smooth="yes"/>
      <point x="39" y="654"/>
      <point x="39" y="632"/>
      <point x="39" y="628" type="curve"/>
      <point x="38" y="606"/>
      <point x="19" y="590"/>
      <point x="1" y="584" type="curve"/>
      <point x="-10" y="581"/>
      <point x="-415" y="582"/>
      <point x="-477" y="585" type="curve" smooth="yes"/>
      <point x="-491" y="586"/>
      <point x="-502" y="575"/>
      <point x="-503" y="561" type="curve" smooth="yes"/>
      <point x="-504" y="547"/>
      <point x="-493" y="536"/>
    </contour>
    <contour>
      <point x="188" y="507" type="curve"/>
      <point x="318" y="436"/>
      <point x="469" y="484"/>
      <point x="469" y="573" type="curve" smooth="yes"/>
      <point x="469" y="665"/>
      <point x="263" y="763"/>
      <point x="139" y="567" type="curve" smooth="yes"/>
      <point x="82" y="476"/>
      <point x="68" y="311"/>
      <point x="92" y="239" type="curve" smooth="yes"/>
      <point x="140" y="97"/>
      <point x="237" y="26"/>
      <point x="377" y="2" type="curve"/>
      <point x="391" y="0"/>
      <point x="403" y="9"/>
      <point x="406" y="23" type="curve"/>
      <point x="408" y="37"/>
      <point x="399" y="49"/>
      <point x="385" y="52" type="curve"/>
      <point x="261" y="72"/>
      <point x="181" y="133"/>
      <point x="140" y="255" type="curve" smooth="yes"/>
      <point x="121" y="313"/>
      <point x="131" y="462"/>
      <point x="181" y="541" type="curve" smooth="yes"/>
      <point x="278" y="695"/>
      <point x="419" y="612"/>
      <point x="419" y="573" type="curve" smooth="yes"/>
      <point x="419" y="532"/>
      <point x="314" y="495"/>
      <point x="212" y="551" type="curve" smooth="yes"/>
      <point x="200" y="558"/>
      <point x="185" y="553"/>
      <point x="178" y="541" type="curve" smooth="yes"/>
      <point x="171" y="529"/>
      <point x="176" y="514"/>
    </contour>
  </outline>
</glyph>
<glyph name="kn_ma_ai" format="2">
  <advance width="205"/>
  <unicode hex="0CC8"/>
  <outline>
    <contour>
      <point x="-439" y="605" type="curve"/>
      <point x="-405" y="604"/>
      <point x="29" y="598"/>
      <point x="56" y="606" type="curve" smooth="yes"/>
      <point x="85" y="615"/>
      <point x="128" y="644"/>
      <point x="129" y="696" type="curve" smooth="yes"/>
      <point x="130" y="731"/>
      <point x="108" y="772"/>
      <point x="58" y="774" type="curve" smooth="yes"/>
      <point x="-17" y="776"/>
      <point x="-67" y="666"/>
      <point x="42" y="612" type="curve"/>
      <point x="54" y="605"/>
      <point x="69" y="611"/>
      <point x="75" y="623" type="curve"/>
      <point x="82" y="635"/>
      <point x="76" y="650"/>
      <point x="64" y="656" type="curve" smooth="yes"/>
      <point x="4" y="686"/>
      <point x="34" y="724"/>
      <point x="56" y="724" type="curve" smooth="yes"/>
      <point x="79" y="724"/>
      <point x="79" y="702"/>
      <point x="79" y="698" type="curve"/>
      <point x="78" y="676"/>
      <point x="59" y="660"/>
      <point x="41" y="654" type="curve"/>
      <point x="30" y="651"/>
      <point x="-375" y="652"/>
      <point x="-437" y="655" type="curve" smooth="yes"/>
      <point x="-451" y="656"/>
      <point x="-462" y="645"/>
      <point x="-463" y="631" type="curve" smooth="yes"/>
      <point x="-464" y="617"/>
      <point x="-453" y="606"/>
    </contour>
    <contour>
      <point x="-86" y="70" type="curve"/>
      <point x="-49" y="58"/>
      <point x="-28" y="94"/>
      <point x="-28" y="111" type="curve" smooth="yes"/>
      <point x="-28" y="134"/>
      <point x="-40" y="153"/>
      <point x="-65" y="153" type="curve" smooth="yes"/>
      <point x="-84" y="153"/>
      <point x="-112" y="139"/>
      <point x="-112" y="85" type="curve" smooth="yes"/>
      <point x="-112" y="42"/>
      <point x="-57" y="-51"/>
      <point x="54" y="-51" type="curve" smooth="yes"/>
      <point x="174" y="-51"/>
      <point x="211" y="72"/>
      <point x="188" y="162" type="curve" smooth="yes"/>
      <point x="172" y="227"/>
      <point x="111" y="292"/>
      <point x="64" y="292" type="curve" smooth="yes"/>
      <point x="7" y="292"/>
      <point x="-7" y="211"/>
      <point x="94" y="211" type="curve" smooth="yes"/>
      <point x="175" y="211"/>
      <point x="277" y="346"/>
      <point x="154" y="504" type="curve" smooth="yes"/>
      <point x="145" y="515"/>
      <point x="130" y="517"/>
      <point x="119" y="509" type="curve"/>
      <point x="108" y="500"/>
      <point x="106" y="485"/>
      <point x="114" y="474" type="curve" smooth="yes"/>
      <point x="143" y="433"/>
      <point x="203" y="261"/>
      <point x="94" y="261" type="curve" smooth="yes"/>
      <point x="74" y="261"/>
      <point x="66" y="265"/>
      <point x="65" y="266" type="curve"/>
      <point x="64" y="242" type="line"/>
      <point x="77" y="242"/>
      <point x="126" y="205"/>
      <point x="140" y="150" type="curve" smooth="yes"/>
      <point x="159" y="72"/>
      <point x="124" y="-1"/>
      <point x="54" y="-1" type="curve" smooth="yes"/>
      <point x="-27" y="-1"/>
      <point x="-62" y="68"/>
      <point x="-62" y="85" type="curve" smooth="yes"/>
      <point x="-62" y="99"/>
      <point x="-59" y="105"/>
      <point x="-59" y="106" type="curve"/>
      <point x="-78" y="113" type="line"/>
      <point x="-72" y="118" type="line"/>
      <point x="-85" y="122"/>
      <point x="-99" y="115"/>
      <point x="-103" y="101" type="curve" smooth="yes"/>
      <point x="-107" y="88"/>
      <point x="-100" y="74"/>
    </contour>
  </outline>
</glyph>
